<svg viewBox="0 0 732 652" xmlns="http://www.w3.org/2000/svg" fill-rule="evenodd" clip-rule="evenodd" stroke-linejoin="round" stroke-miterlimit="1.414">
  <path d="M453.28 19.5c1.61-4.06 4.209-7.79 7.66-10.896C467.061 3.095 475.364 0 484.021 0h.002c48.449 0 87.724 35.348 87.724 78.952v12.419c39.617 20.864 66.227 59.564 66.227 103.858v3.223c7.249 2.535 13.91 6.412 19.516 11.457 10.047 9.042 15.925 21.135 16.519 33.86 14.847.401 28.991 5.884 39.525 15.365 10.948 9.853 17.099 23.217 17.099 37.151v16.25c0 24.231-21.826 43.874-48.749 43.874h-6.621v10.833c0 19.916-16.139 36.44-37.289 39.555v23.51h10.231c26.924.001 48.749 19.643 48.749 43.874v2.476h4.79c7.981 0 15.635 2.853 21.279 7.932 5.643 5.079 8.813 11.967 8.813 19.15v7.583c0 15.556-14.011 28.167-31.295 28.167h-3.587v12.149c0 13.504-5.96 26.454-16.57 36.003-10.609 9.548-24.999 14.912-40.003 14.912h-14.468v2.476c0 14.06-12.665 25.458-28.287 25.458h-28.888c-14.957 0-27.083-10.913-27.083-24.375v-3.559h-13.216c-8.938 0-17.511-3.195-23.832-8.884-6.32-5.688-9.871-13.404-9.871-21.448v-2.167h-77.035v1.083c0 14.958-13.472 27.083-30.092 27.083h-8.465c-.454 11.907-11.321 21.433-24.661 21.433h-25.277c-6.864 0-13.446-2.453-18.299-6.821-4.365-3.928-7.009-9.115-7.498-14.612h-42.186c0 7.47-3.298 14.634-9.167 19.917-5.869 5.282-13.829 8.249-22.129 8.249h-13.302c-.361 6.416-3.352 12.504-8.424 17.068-5.418 4.876-12.765 7.615-20.427 7.615h-63.193c-7.183 0-14.072-2.568-19.151-7.139-5.079-4.571-7.932-10.77-7.932-17.235v-.309H83.68c-17.616 0-31.897-12.853-31.897-28.707v-11.608h-.025c-4.469 0-8.755-1.598-11.916-4.442-3.16-2.845-4.935-6.702-4.935-10.724v-8.667c0-8.847 7.364-16.145 16.876-17.201v-23.732c0-10.769 9.699-19.499 21.666-19.499v-37.221a40.519 40.519 0 0 1-7.297-5.216c-7.675-6.908-11.986-16.276-11.986-26.045v-9.75H45.74c-25.262 0-45.74-18.43-45.74-41.165v-51.458c0-28.192 19.456-52.294 46.943-62.024v-45.223c0-19.583 10.403-36.979 26.506-47.957v-28.726c0-19.106 8.433-37.429 23.444-50.94 15.011-13.51 35.371-21.1 56.6-21.1h12.639V63.065c0-9.481 4.185-18.574 11.634-25.279 7.449-6.704 17.553-10.47 28.087-10.47h52.36c11.652 0 22.827 4.166 31.067 11.581 4.139 3.726 7.368 8.118 9.555 12.897a74.768 74.768 0 0 1 10.058-11.036C324.017 27.147 344.529 19.5 365.918 19.5h87.362z" fill="#fff"/>
  <clipPath id="a">
    <path d="M453.28 19.5c1.61-4.06 4.209-7.79 7.66-10.896C467.061 3.095 475.364 0 484.021 0h.002c48.449 0 87.724 35.348 87.724 78.952v12.419c39.617 20.864 66.227 59.564 66.227 103.858v3.223c7.249 2.535 13.91 6.412 19.516 11.457 10.047 9.042 15.925 21.135 16.519 33.86 14.847.401 28.991 5.884 39.525 15.365 10.948 9.853 17.099 23.217 17.099 37.151v16.25c0 24.231-21.826 43.874-48.749 43.874h-6.621v10.833c0 19.916-16.139 36.44-37.289 39.555v23.51h10.231c26.924.001 48.749 19.643 48.749 43.874v2.476h4.79c7.981 0 15.635 2.853 21.279 7.932 5.643 5.079 8.813 11.967 8.813 19.15v7.583c0 15.556-14.011 28.167-31.295 28.167h-3.587v12.149c0 13.504-5.96 26.454-16.57 36.003-10.609 9.548-24.999 14.912-40.003 14.912h-14.468v2.476c0 14.06-12.665 25.458-28.287 25.458h-28.888c-14.957 0-27.083-10.913-27.083-24.375v-3.559h-13.216c-8.938 0-17.511-3.195-23.832-8.884-6.32-5.688-9.871-13.404-9.871-21.448v-2.167h-77.035v1.083c0 14.958-13.472 27.083-30.092 27.083h-8.465c-.454 11.907-11.321 21.433-24.661 21.433h-25.277c-6.864 0-13.446-2.453-18.299-6.821-4.365-3.928-7.009-9.115-7.498-14.612h-42.186c0 7.47-3.298 14.634-9.167 19.917-5.869 5.282-13.829 8.249-22.129 8.249h-13.302c-.361 6.416-3.352 12.504-8.424 17.068-5.418 4.876-12.765 7.615-20.427 7.615h-63.193c-7.183 0-14.072-2.568-19.151-7.139-5.079-4.571-7.932-10.77-7.932-17.235v-.309H83.68c-17.616 0-31.897-12.853-31.897-28.707v-11.608h-.025c-4.469 0-8.755-1.598-11.916-4.442-3.16-2.845-4.935-6.702-4.935-10.724v-8.667c0-8.847 7.364-16.145 16.876-17.201v-23.732c0-10.769 9.699-19.499 21.666-19.499v-37.221a40.519 40.519 0 0 1-7.297-5.216c-7.675-6.908-11.986-16.276-11.986-26.045v-9.75H45.74c-25.262 0-45.74-18.43-45.74-41.165v-51.458c0-28.192 19.456-52.294 46.943-62.024v-45.223c0-19.583 10.403-36.979 26.506-47.957v-28.726c0-19.106 8.433-37.429 23.444-50.94 15.011-13.51 35.371-21.1 56.6-21.1h12.639V63.065c0-9.481 4.185-18.574 11.634-25.279 7.449-6.704 17.553-10.47 28.087-10.47h52.36c11.652 0 22.827 4.166 31.067 11.581 4.139 3.726 7.368 8.118 9.555 12.897a74.768 74.768 0 0 1 10.058-11.036C324.017 27.147 344.529 19.5 365.918 19.5h87.362z"/>
  </clipPath>
  <g clip-path="url(#a)" fill="#d1ffff">
    <path d="M427.324 19.363c1.611-4.059 4.209-7.789 7.66-10.895 6.122-5.509 14.424-8.604 23.081-8.604h.003c48.448 0 87.724 35.348 87.724 78.951v12.42c39.617 20.864 66.227 59.564 66.227 103.858v3.223c7.249 2.534 13.91 6.411 19.516 11.456 10.047 9.043 15.924 21.136 16.519 33.86 14.846.402 28.991 5.885 39.525 15.365 10.948 9.854 17.098 23.217 17.098 37.152v16.25c0 24.231-21.825 43.874-48.749 43.874h-6.62v10.833c0 19.916-16.139 36.44-37.289 39.554v23.511h10.231c26.924 0 48.749 19.643 48.749 43.874v2.475h4.79c7.981 0 15.635 2.854 21.278 7.933 5.644 5.079 8.814 11.967 8.814 19.15v7.583c0 15.556-14.012 28.166-31.296 28.166h-3.586v12.15c0 13.503-5.961 26.454-16.57 36.002-10.609 9.549-24.999 14.913-40.003 14.913h-14.469v2.476c0 14.059-12.664 25.457-28.286 25.457h-28.888c-14.958 0-27.083-10.912-27.083-24.374v-3.559h-13.216c-8.939 0-17.511-3.196-23.832-8.884-6.32-5.689-9.871-13.404-9.871-21.449v-2.166h-77.036v1.083c0 14.957-13.472 27.082-30.092 27.083h-8.465c-.453 11.906-11.32 21.433-24.66 21.433h-25.277c-6.864 0-13.446-2.454-18.3-6.822-4.364-3.928-7.009-9.114-7.497-14.611h-42.187c0 7.47-3.297 14.634-9.166 19.916-5.869 5.283-13.829 8.25-22.129 8.25H190.67c-.361 6.416-3.353 12.503-8.424 17.068-5.418 4.876-12.766 7.615-20.428 7.615H98.625c-7.182 0-14.071-2.568-19.15-7.139-5.079-4.571-7.932-10.771-7.932-17.235v-.309H57.725c-17.617 0-31.898-12.853-31.898-28.708v-11.607h-.024c-4.469 0-8.756-1.598-11.916-4.443-3.16-2.844-4.936-6.701-4.936-10.724v-8.666c0-8.847 7.364-16.145 16.876-17.202v-23.731c0-10.769 9.7-19.499 21.666-19.5v-37.22a40.467 40.467 0 0 1-7.296-5.217c-7.675-6.907-11.987-16.276-11.987-26.044v-9.75h-8.426c-25.261 0-45.739-18.43-45.739-41.166v-51.457c0-28.192 19.456-52.294 46.943-62.024v-45.224c0-19.582 10.403-36.978 26.505-47.956v-28.726c0-19.106 8.434-37.43 23.445-50.94 15.011-13.51 35.371-21.1 56.6-21.1h12.639V62.929c0-9.482 4.185-18.575 11.634-25.279 7.449-6.704 17.552-10.471 28.087-10.471h52.36c11.652 0 22.827 4.166 31.066 11.582 4.14 3.725 7.368 8.118 9.556 12.897a74.765 74.765 0 0 1 10.057-11.036c15.124-13.612 35.637-21.259 57.026-21.259h87.361z"/>
    <path d="M236.3 25.46h70.598v35.299H236.3z"/>
  </g>
</svg>
