<?xml version="1.0" encoding="UTF-8" standalone="no"?><!DOCTYPE svg PUBLIC "-//W3C//DTD SVG 1.1//EN" "http://www.w3.org/Graphics/SVG/1.1/DTD/svg11.dtd"><svg width="100%" height="100%" viewBox="0 0 732 652" version="1.1" xmlns="http://www.w3.org/2000/svg" xmlns:xlink="http://www.w3.org/1999/xlink" xml:space="preserve" style="fill-rule:evenodd;clip-rule:evenodd;stroke-linejoin:round;stroke-miterlimit:1.41421;"><path id="BackRightCloud1" d="M453.28,19.5c1.61,-4.06 4.209,-7.79 7.66,-10.896c6.121,-5.509 14.424,-8.604 23.081,-8.604c0,0 0.001,0 0.002,0c48.449,0 87.724,35.348 87.724,78.952l0,12.419c39.617,20.864 66.227,59.564 66.227,103.858l0,3.223c7.249,2.535 13.91,6.412 19.516,11.457c10.047,9.042 15.925,21.135 16.519,33.86c14.847,0.401 28.991,5.884 39.525,15.365c10.948,9.853 17.099,23.217 17.099,37.151c0,5.438 0,10.922 0,16.25c0,24.231 -21.826,43.874 -48.749,43.874l-6.621,0l0,10.833c0,19.916 -16.139,36.44 -37.289,39.555l0,23.51l10.231,0c26.924,0.001 48.749,19.643 48.749,43.874l0,2.476l4.79,0c7.981,0 15.635,2.853 21.279,7.932c5.643,5.079 8.813,11.967 8.813,19.15c0,2.512 0,5.062 0,7.583c0,15.556 -14.011,28.167 -31.295,28.167l-3.587,0l0,12.149c0,13.504 -5.96,26.454 -16.57,36.003c-10.609,9.548 -24.999,14.912 -40.003,14.912l-14.468,0l0,2.476c0,14.06 -12.665,25.458 -28.287,25.458c-9.321,0 -19.659,0 -28.888,0c-14.957,0 -27.083,-10.913 -27.083,-24.375l0,-3.559l-13.216,0c-8.938,0 -17.511,-3.195 -23.832,-8.884c-6.32,-5.688 -9.871,-13.404 -9.871,-21.448l0,-2.167l-77.035,0l0,1.083c0,14.958 -13.472,27.083 -30.092,27.083l-8.465,0c-0.454,11.907 -11.321,21.433 -24.661,21.433c-8.09,0 -17.1,0 -25.277,0c-6.864,0 -13.446,-2.453 -18.299,-6.821c-4.365,-3.928 -7.009,-9.115 -7.498,-14.612l-42.186,0l0,0c0,7.47 -3.298,14.634 -9.167,19.917c-5.869,5.282 -13.829,8.249 -22.129,8.249l-13.302,0c-0.361,6.416 -3.352,12.504 -8.424,17.068c-5.418,4.876 -12.765,7.615 -20.427,7.615l-63.193,0c-7.183,0 -14.072,-2.568 -19.151,-7.139c-5.079,-4.571 -7.932,-10.77 -7.932,-17.235l0,-0.309l-13.818,0c-17.616,0 -31.897,-12.853 -31.897,-28.707l0,-11.608l-0.025,0c-4.469,0 -8.755,-1.598 -11.916,-4.442c-3.16,-2.845 -4.935,-6.702 -4.935,-10.724c0,-2.821 0,-5.787 0,-8.667c0,-8.847 7.364,-16.145 16.876,-17.201l0,-23.732c0,-10.769 9.699,-19.499 21.666,-19.499l0,0l0,-37.221c-2.625,-1.471 -5.075,-3.217 -7.297,-5.216c-7.675,-6.908 -11.986,-16.276 -11.986,-26.045l0,-9.75l-8.426,0c-25.262,0 -45.74,-18.43 -45.74,-41.165c0,-15.69 0,-34.002 0,-51.458c0,-28.192 19.456,-52.294 46.943,-62.024l0,-45.223c0,-19.583 10.403,-36.979 26.506,-47.957l0,-28.726c0,-19.106 8.433,-37.429 23.444,-50.94c15.011,-13.51 35.371,-21.1 56.6,-21.1l12.639,0l0,-11.916c0,-9.481 4.185,-18.574 11.634,-25.279c7.449,-6.704 17.553,-10.47 28.087,-10.47c16.422,0 35.522,0 52.36,0c11.652,0 22.827,4.166 31.067,11.581c4.139,3.726 7.368,8.118 9.555,12.897c2.92,-3.938 6.282,-7.638 10.058,-11.036c15.124,-13.611 35.636,-21.258 57.025,-21.258l87.362,0Z" style="fill:#fff;"/><clipPath id="_clip1"><path d="M453.28,19.5c1.61,-4.06 4.209,-7.79 7.66,-10.896c6.121,-5.509 14.424,-8.604 23.081,-8.604c0,0 0.001,0 0.002,0c48.449,0 87.724,35.348 87.724,78.952l0,12.419c39.617,20.864 66.227,59.564 66.227,103.858l0,3.223c7.249,2.535 13.91,6.412 19.516,11.457c10.047,9.042 15.925,21.135 16.519,33.86c14.847,0.401 28.991,5.884 39.525,15.365c10.948,9.853 17.099,23.217 17.099,37.151c0,5.438 0,10.922 0,16.25c0,24.231 -21.826,43.874 -48.749,43.874l-6.621,0l0,10.833c0,19.916 -16.139,36.44 -37.289,39.555l0,23.51l10.231,0c26.924,0.001 48.749,19.643 48.749,43.874l0,2.476l4.79,0c7.981,0 15.635,2.853 21.279,7.932c5.643,5.079 8.813,11.967 8.813,19.15c0,2.512 0,5.062 0,7.583c0,15.556 -14.011,28.167 -31.295,28.167l-3.587,0l0,12.149c0,13.504 -5.96,26.454 -16.57,36.003c-10.609,9.548 -24.999,14.912 -40.003,14.912l-14.468,0l0,2.476c0,14.06 -12.665,25.458 -28.287,25.458c-9.321,0 -19.659,0 -28.888,0c-14.957,0 -27.083,-10.913 -27.083,-24.375l0,-3.559l-13.216,0c-8.938,0 -17.511,-3.195 -23.832,-8.884c-6.32,-5.688 -9.871,-13.404 -9.871,-21.448l0,-2.167l-77.035,0l0,1.083c0,14.958 -13.472,27.083 -30.092,27.083l-8.465,0c-0.454,11.907 -11.321,21.433 -24.661,21.433c-8.09,0 -17.1,0 -25.277,0c-6.864,0 -13.446,-2.453 -18.299,-6.821c-4.365,-3.928 -7.009,-9.115 -7.498,-14.612l-42.186,0l0,0c0,7.47 -3.298,14.634 -9.167,19.917c-5.869,5.282 -13.829,8.249 -22.129,8.249l-13.302,0c-0.361,6.416 -3.352,12.504 -8.424,17.068c-5.418,4.876 -12.765,7.615 -20.427,7.615l-63.193,0c-7.183,0 -14.072,-2.568 -19.151,-7.139c-5.079,-4.571 -7.932,-10.77 -7.932,-17.235l0,-0.309l-13.818,0c-17.616,0 -31.897,-12.853 -31.897,-28.707l0,-11.608l-0.025,0c-4.469,0 -8.755,-1.598 -11.916,-4.442c-3.16,-2.845 -4.935,-6.702 -4.935,-10.724c0,-2.821 0,-5.787 0,-8.667c0,-8.847 7.364,-16.145 16.876,-17.201l0,-23.732c0,-10.769 9.699,-19.499 21.666,-19.499l0,0l0,-37.221c-2.625,-1.471 -5.075,-3.217 -7.297,-5.216c-7.675,-6.908 -11.986,-16.276 -11.986,-26.045l0,-9.75l-8.426,0c-25.262,0 -45.74,-18.43 -45.74,-41.165c0,-15.69 0,-34.002 0,-51.458c0,-28.192 19.456,-52.294 46.943,-62.024l0,-45.223c0,-19.583 10.403,-36.979 26.506,-47.957l0,-28.726c0,-19.106 8.433,-37.429 23.444,-50.94c15.011,-13.51 35.371,-21.1 56.6,-21.1l12.639,0l0,-11.916c0,-9.481 4.185,-18.574 11.634,-25.279c7.449,-6.704 17.553,-10.47 28.087,-10.47c16.422,0 35.522,0 52.36,0c11.652,0 22.827,4.166 31.067,11.581c4.139,3.726 7.368,8.118 9.555,12.897c2.92,-3.938 6.282,-7.638 10.058,-11.036c15.124,-13.611 35.636,-21.258 57.025,-21.258l87.362,0Z"/></clipPath><g clip-path="url(#_clip1)"><path id="BackRightCloud11" d="M427.324,19.363c1.611,-4.059 4.209,-7.789 7.66,-10.895c6.122,-5.509 14.424,-8.604 23.081,-8.604c0.001,0 0.002,0 0.003,0c48.448,0 87.724,35.348 87.724,78.951l0,12.42c39.617,20.864 66.227,59.564 66.227,103.858l0,3.223c7.249,2.534 13.91,6.411 19.516,11.456c10.047,9.043 15.924,21.136 16.519,33.86c14.846,0.402 28.991,5.885 39.525,15.365c10.948,9.854 17.098,23.217 17.098,37.152c0,5.437 0,10.922 0,16.25c0,24.231 -21.825,43.874 -48.749,43.874l-6.62,0l0,10.833c0,19.916 -16.139,36.44 -37.289,39.554l0,23.511l10.231,0c26.924,0 48.749,19.643 48.749,43.874l0,2.475l4.79,0c7.981,0 15.635,2.854 21.278,7.933c5.644,5.079 8.814,11.967 8.814,19.15c0,2.512 0,5.062 0,7.583c0,15.556 -14.012,28.166 -31.296,28.166l-3.586,0l0,12.15c0,13.503 -5.961,26.454 -16.57,36.002c-10.609,9.549 -24.999,14.913 -40.003,14.913l-14.469,0l0,2.476c0,14.059 -12.664,25.457 -28.286,25.457c-9.321,0 -19.659,0 -28.888,0c-14.958,0 -27.083,-10.912 -27.083,-24.374l0,-3.559l-13.216,0c-8.939,0 -17.511,-3.196 -23.832,-8.884c-6.32,-5.689 -9.871,-13.404 -9.871,-21.449l0,-2.166l-77.036,0l0,1.083c0,14.957 -13.472,27.082 -30.092,27.083l-8.465,0c-0.453,11.906 -11.32,21.433 -24.66,21.433c-8.09,0 -17.101,0 -25.277,0c-6.864,0 -13.446,-2.454 -18.3,-6.822c-4.364,-3.928 -7.009,-9.114 -7.497,-14.611l-42.187,0l0,0c0,7.47 -3.297,14.634 -9.166,19.916c-5.869,5.283 -13.829,8.25 -22.129,8.25l-13.302,0c-0.361,6.416 -3.353,12.503 -8.424,17.068c-5.418,4.876 -12.766,7.615 -20.428,7.615l-63.193,0c-7.182,0 -14.071,-2.568 -19.15,-7.139c-5.079,-4.571 -7.932,-10.771 -7.932,-17.235l0,-0.309l-13.818,0c-17.617,0 -31.898,-12.853 -31.898,-28.708l0,-11.607l-0.024,0c-4.469,0 -8.756,-1.598 -11.916,-4.443c-3.16,-2.844 -4.936,-6.701 -4.936,-10.724c0,-2.82 0,-5.787 0,-8.666c0,-8.847 7.364,-16.145 16.876,-17.202l0,-23.731c0,-10.769 9.7,-19.499 21.666,-19.5l0,0l0,-37.22c-2.624,-1.471 -5.075,-3.217 -7.296,-5.217c-7.675,-6.907 -11.987,-16.276 -11.987,-26.044l0,-9.75l-8.426,0c-25.261,0 -45.739,-18.43 -45.739,-41.166c0,-15.69 0,-34.002 0,-51.457c0,-28.192 19.456,-52.294 46.943,-62.024l0,-45.224c0,-19.582 10.403,-36.978 26.505,-47.956l0,-28.726c0,-19.106 8.434,-37.43 23.445,-50.94c15.011,-13.51 35.371,-21.1 56.6,-21.1l12.639,0l0,-11.916c0,-9.482 4.185,-18.575 11.634,-25.279c7.449,-6.704 17.552,-10.471 28.087,-10.471c16.422,0 35.521,0 52.36,0c11.652,0 22.827,4.166 31.066,11.582c4.14,3.725 7.368,8.118 9.556,12.897c2.92,-3.939 6.282,-7.638 10.057,-11.036c15.124,-13.612 35.637,-21.259 57.026,-21.259l87.361,0Z" style="fill:#d1ffff;"/><rect x="236.3" y="25.46" width="70.598" height="35.299" style="fill:#d1ffff;"/></g></svg>