<?xml version="1.0" encoding="UTF-8" standalone="no"?><!DOCTYPE svg PUBLIC "-//W3C//DTD SVG 1.1//EN" "http://www.w3.org/Graphics/SVG/1.1/DTD/svg11.dtd"><svg width="100%" height="100%" viewBox="0 0 428 428" version="1.1" xmlns="http://www.w3.org/2000/svg" xmlns:xlink="http://www.w3.org/1999/xlink" xml:space="preserve" style="fill-rule:evenodd;clip-rule:evenodd;stroke-linejoin:round;stroke-miterlimit:1.41421;"><g id="BackLeftCloud2"><path id="BackLeftCloud21" d="M183.375,32.4l0,-8.1c0,-6.445 2.845,-12.626 7.908,-17.183c5.064,-4.557 11.931,-7.117 19.092,-7.117c16.972,0 38.866,0 56.25,0c16.154,0 29.25,11.786 29.25,26.325l0,6.177c5.141,0.464 9.974,2.512 13.66,5.829c4.219,3.798 6.59,8.948 6.59,14.319l0,35.438l7.313,0c14.601,-0.001 26.437,10.652 26.437,23.793c0,9.177 0,19.759 0,29.363c0,15.936 -14.355,28.856 -32.062,28.856l-1.688,0l0,30.375l19.125,0c13.048,0 23.625,9.52 23.625,21.263l0,11.137l40.5,0c15.533,0 28.125,11.333 28.125,25.313c0,22.511 0,55.552 0,79.987c0,17.894 -16.118,32.4 -36,32.4l-32.625,0l0,14.175c0,5.371 -2.371,10.521 -6.59,14.319c-4.22,3.798 -9.943,5.931 -15.91,5.931l-21.375,0l0,4.05c0,4.834 -2.133,9.469 -5.931,12.887c-3.798,3.418 -8.948,5.338 -14.319,5.338c-10.56,0 -23.592,0 -34.875,0c-13.913,0 -25.262,-9.883 -25.851,-22.275l-32.086,0c-10.593,0 -20.751,-3.787 -28.241,-10.528c-7.489,-6.74 -11.697,-15.883 -11.697,-25.416l0,-7.593l-40.5,0l0,4.556c0,3.625 -1.6,7.102 -4.448,9.665c-2.849,2.563 -6.712,4.004 -10.74,4.004c-8.102,0 -18.093,0 -26.437,0c-9.32,0 -16.875,-6.8 -16.875,-15.188l0,-3.037l-2.813,0c-15.222,0 -27.562,-11.107 -27.562,-24.807l0,-96.693l-8.437,0c-6.415,0 -12.568,-2.294 -17.104,-6.376c-4.536,-4.083 -7.084,-9.62 -7.084,-15.393c0,-23.973 0,-62.208 0,-85.556c0,-5.371 2.371,-10.522 6.59,-14.319c4.22,-3.798 9.942,-5.931 15.91,-5.931l10.125,0l0,-26.326c0,-14.232 6.282,-27.881 17.464,-37.945c11.182,-10.063 26.347,-15.717 42.161,-15.717l91.125,0Z" style="fill:#fff;"/><clipPath id="_clip1"><path id="BackLeftCloud22" d="M183.375,32.4l0,-8.1c0,-6.445 2.845,-12.626 7.908,-17.183c5.064,-4.557 11.931,-7.117 19.092,-7.117c16.972,0 38.866,0 56.25,0c16.154,0 29.25,11.786 29.25,26.325l0,6.177c5.141,0.464 9.974,2.512 13.66,5.829c4.219,3.798 6.59,8.948 6.59,14.319l0,35.438l7.313,0c14.601,-0.001 26.437,10.652 26.437,23.793c0,9.177 0,19.759 0,29.363c0,15.936 -14.355,28.856 -32.062,28.856l-1.688,0l0,30.375l19.125,0c13.048,0 23.625,9.52 23.625,21.263l0,11.137l40.5,0c15.533,0 28.125,11.333 28.125,25.313c0,22.511 0,55.552 0,79.987c0,17.894 -16.118,32.4 -36,32.4l-32.625,0l0,14.175c0,5.371 -2.371,10.521 -6.59,14.319c-4.22,3.798 -9.943,5.931 -15.91,5.931l-21.375,0l0,4.05c0,4.834 -2.133,9.469 -5.931,12.887c-3.798,3.418 -8.948,5.338 -14.319,5.338c-10.56,0 -23.592,0 -34.875,0c-13.913,0 -25.262,-9.883 -25.851,-22.275l-32.086,0c-10.593,0 -20.751,-3.787 -28.241,-10.528c-7.489,-6.74 -11.697,-15.883 -11.697,-25.416l0,-7.593l-40.5,0l0,4.556c0,3.625 -1.6,7.102 -4.448,9.665c-2.849,2.563 -6.712,4.004 -10.74,4.004c-8.102,0 -18.093,0 -26.437,0c-9.32,0 -16.875,-6.8 -16.875,-15.188l0,-3.037l-2.813,0c-15.222,0 -27.562,-11.107 -27.562,-24.807l0,-96.693l-8.437,0c-6.415,0 -12.568,-2.294 -17.104,-6.376c-4.536,-4.083 -7.084,-9.62 -7.084,-15.393c0,-23.973 0,-62.208 0,-85.556c0,-5.371 2.371,-10.522 6.59,-14.319c4.22,-3.798 9.942,-5.931 15.91,-5.931l10.125,0l0,-26.326c0,-14.232 6.282,-27.881 17.464,-37.945c11.182,-10.063 26.347,-15.717 42.161,-15.717l91.125,0Z"/></clipPath><g clip-path="url(#_clip1)"><path id="BackLeftCloud23" d="M130.5,32.4l0,-8.1c0,-6.445 2.845,-12.626 7.908,-17.183c5.064,-4.557 11.931,-7.117 19.092,-7.117c16.972,0 38.866,0 56.25,0c16.154,0 29.25,11.786 29.25,26.325l0,6.177c5.141,0.464 9.974,2.512 13.66,5.829c4.219,3.798 6.59,8.948 6.59,14.319l0,35.438l7.313,0c14.601,-0.001 26.437,10.652 26.437,23.793c0,9.177 0,19.759 0,29.363c0,15.936 -14.355,28.856 -32.062,28.856l-1.688,0l0,30.375l19.125,0c13.048,0 23.625,9.52 23.625,21.263l0,11.137l40.5,0c15.533,0 28.125,11.333 28.125,25.313c0,22.511 0,55.552 0,79.987c0,17.894 -16.118,32.4 -36,32.4l-32.625,0l0,14.175c0,5.371 -2.371,10.521 -6.59,14.319c-4.22,3.798 -9.943,5.931 -15.91,5.931l-21.375,0l0,4.05c0,4.834 -2.133,9.469 -5.931,12.887c-3.798,3.418 -8.948,5.338 -14.319,5.338c-10.56,0 -23.592,0 -34.875,0c-13.913,0 -25.262,-9.883 -25.851,-22.275l-32.086,0c-10.593,0 -20.751,-3.787 -28.241,-10.528c-7.489,-6.74 -11.697,-15.883 -11.697,-25.416l0,-7.593l-40.5,0l0,4.556c0,3.625 -1.6,7.102 -4.448,9.665c-2.849,2.563 -6.712,4.004 -10.74,4.004c-8.102,0 -18.093,0 -26.437,0c-9.32,0 -16.875,-6.8 -16.875,-15.188l0,-3.037l-2.813,0c-15.222,0 -27.562,-11.107 -27.562,-24.807l0,-96.693l-8.437,0c-6.415,0 -12.568,-2.294 -17.104,-6.376c-4.536,-4.083 -7.084,-9.62 -7.084,-15.393c0,-23.973 0,-62.208 0,-85.556c0,-5.371 2.371,-10.522 6.59,-14.319c4.22,-3.798 9.942,-5.931 15.91,-5.931l10.125,0l0,-26.326c0,-14.232 6.282,-27.881 17.464,-37.945c11.182,-10.063 26.347,-15.717 42.161,-15.717l91.125,0Z" style="fill:#d1ffff;"/><rect x="55.386" y="355.815" width="70.5" height="32.4" style="fill:#d1ffff;"/></g></g></svg>