<svg viewBox="0 0 428 428" xmlns="http://www.w3.org/2000/svg" fill-rule="evenodd" clip-rule="evenodd" stroke-linejoin="round" stroke-miterlimit="1.414">
  <path d="M183.375 32.4v-8.1c0-6.445 2.845-12.626 7.908-17.183C196.347 2.56 203.214 0 210.375 0h56.25c16.154 0 29.25 11.786 29.25 26.325v6.177c5.141.464 9.974 2.512 13.66 5.829 4.219 3.798 6.59 8.948 6.59 14.319v35.438h7.313c14.601-.001 26.437 10.652 26.437 23.793v29.363c0 15.936-14.355 28.856-32.062 28.856h-1.688v30.375h19.125c13.048 0 23.625 9.52 23.625 21.263v11.137h40.5c15.533 0 28.125 11.333 28.125 25.313v79.987c0 17.894-16.118 32.4-36 32.4h-32.625v14.175c0 5.371-2.371 10.521-6.59 14.319-4.22 3.798-9.943 5.931-15.91 5.931H315v4.05c0 4.834-2.133 9.469-5.931 12.887-3.798 3.418-8.948 5.338-14.319 5.338h-34.875c-13.913 0-25.262-9.883-25.851-22.275h-32.086c-10.593 0-20.751-3.787-28.241-10.528-7.489-6.74-11.697-15.883-11.697-25.416v-7.593h-40.5v4.556c0 3.625-1.6 7.102-4.448 9.665-2.849 2.563-6.712 4.004-10.74 4.004H79.875c-9.32 0-16.875-6.8-16.875-15.188v-3.037h-2.813c-15.222 0-27.562-11.107-27.562-24.807v-96.693h-8.437c-6.415 0-12.568-2.294-17.104-6.376C2.548 229.504 0 223.967 0 218.194v-85.556c0-5.371 2.371-10.522 6.59-14.319 4.22-3.798 9.942-5.931 15.91-5.931h10.125V86.062c0-14.232 6.282-27.881 17.464-37.945C61.271 38.054 76.436 32.4 92.25 32.4h91.125z" fill="#fff"/>
  <clipPath id="a">
    <path d="M183.375 32.4v-8.1c0-6.445 2.845-12.626 7.908-17.183C196.347 2.56 203.214 0 210.375 0h56.25c16.154 0 29.25 11.786 29.25 26.325v6.177c5.141.464 9.974 2.512 13.66 5.829 4.219 3.798 6.59 8.948 6.59 14.319v35.438h7.313c14.601-.001 26.437 10.652 26.437 23.793v29.363c0 15.936-14.355 28.856-32.062 28.856h-1.688v30.375h19.125c13.048 0 23.625 9.52 23.625 21.263v11.137h40.5c15.533 0 28.125 11.333 28.125 25.313v79.987c0 17.894-16.118 32.4-36 32.4h-32.625v14.175c0 5.371-2.371 10.521-6.59 14.319-4.22 3.798-9.943 5.931-15.91 5.931H315v4.05c0 4.834-2.133 9.469-5.931 12.887-3.798 3.418-8.948 5.338-14.319 5.338h-34.875c-13.913 0-25.262-9.883-25.851-22.275h-32.086c-10.593 0-20.751-3.787-28.241-10.528-7.489-6.74-11.697-15.883-11.697-25.416v-7.593h-40.5v4.556c0 3.625-1.6 7.102-4.448 9.665-2.849 2.563-6.712 4.004-10.74 4.004H79.875c-9.32 0-16.875-6.8-16.875-15.188v-3.037h-2.813c-15.222 0-27.562-11.107-27.562-24.807v-96.693h-8.437c-6.415 0-12.568-2.294-17.104-6.376C2.548 229.504 0 223.967 0 218.194v-85.556c0-5.371 2.371-10.522 6.59-14.319 4.22-3.798 9.942-5.931 15.91-5.931h10.125V86.062c0-14.232 6.282-27.881 17.464-37.945C61.271 38.054 76.436 32.4 92.25 32.4h91.125z"/>
  </clipPath>
  <g clip-path="url(#a)" fill="#d1ffff">
    <path d="M130.5 32.4v-8.1c0-6.445 2.845-12.626 7.908-17.183C143.472 2.56 150.339 0 157.5 0h56.25C229.904 0 243 11.786 243 26.325v6.177c5.141.464 9.974 2.512 13.66 5.829 4.219 3.798 6.59 8.948 6.59 14.319v35.438h7.313C285.164 88.087 297 98.74 297 111.881v29.363c0 15.936-14.355 28.856-32.062 28.856h-1.688v30.375h19.125c13.048 0 23.625 9.52 23.625 21.263v11.137h40.5c15.533 0 28.125 11.333 28.125 25.313v79.987c0 17.894-16.118 32.4-36 32.4H306v14.175c0 5.371-2.371 10.521-6.59 14.319-4.22 3.798-9.943 5.931-15.91 5.931h-21.375v4.05c0 4.834-2.133 9.469-5.931 12.887-3.798 3.418-8.948 5.338-14.319 5.338H207c-13.913 0-25.262-9.883-25.851-22.275h-32.086c-10.593 0-20.751-3.787-28.241-10.528-7.489-6.74-11.697-15.883-11.697-25.416v-7.593h-40.5v4.556c0 3.625-1.6 7.102-4.448 9.665-2.849 2.563-6.712 4.004-10.74 4.004H27c-9.32 0-16.875-6.8-16.875-15.188v-3.037H7.312c-15.222 0-27.562-11.107-27.562-24.807v-96.693h-8.437c-6.415 0-12.568-2.294-17.104-6.376-4.536-4.083-7.084-9.62-7.084-15.393v-85.556c0-5.371 2.371-10.522 6.59-14.319 4.22-3.798 9.942-5.931 15.91-5.931h10.125V86.062c0-14.232 6.282-27.881 17.464-37.945C8.396 38.054 23.561 32.4 39.375 32.4H130.5z"/>
    <path d="M55.386 355.815h70.5v32.4h-70.5z"/>
  </g>
</svg>
