<svg viewBox="0 0 440 273" xmlns="http://www.w3.org/2000/svg" fill-rule="evenodd" clip-rule="evenodd" stroke-linejoin="round" stroke-miterlimit="1.414">
  <path d="M163.778 76.568h23.1v-8.897c0-7.271 5.894-13.165 13.165-13.165h23.173v-9.738c0-6.09 4.936-11.026 11.025-11.026h43.502a21.733 21.733 0 0 1 21.708-20.764h23.945C324.729 5.598 331.186 0 338.95 0h37.547a36.195 36.195 0 0 1 36.113 33.793c5.868.551 10.461 5.491 10.461 11.504v39.341c9.577 1.615 16.871 9.947 16.871 19.983v58.897a19.468 19.468 0 0 1-16.871 19.293v40.633c0 8.475-6.87 15.345-15.344 15.345h-10.621a16.13 16.13 0 0 1-16.124 15.573h-19.353a22.651 22.651 0 0 1-22.201 18.169h-24.902c-10.685 0-19.527-7.894-21.012-18.169h-14.879a21.678 21.678 0 0 1-20.8-15.573h-19.472c-8.366 0-15.147-6.782-15.147-15.148v-5.617h-42.489a34.079 34.079 0 0 1-33.895-30.54 22.608 22.608 0 0 1-17.056-21.915v-14.25h-15.573v3.177a11.621 11.621 0 0 1-11.617 11.618H64.623a19.201 19.201 0 0 1-18.688-14.795h-6.483a15.832 15.832 0 0 1-15.833-15.832v-14.795h-2.424C9.489 120.692 0 111.203 0 99.497V79.351a22.25 22.25 0 0 1 22.249-22.249h1.37v-2.565c0-9.621 7.8-17.421 17.422-17.421H55.89a19.474 19.474 0 0 1 19.391-17.65h42.805c11.063 0 20.106 8.648 20.739 19.552a36.592 36.592 0 0 1 24.953 34.695v2.855z" fill="#fff"/>
  <clipPath id="a">
    <path d="M163.778 76.568h23.1v-8.897c0-7.271 5.894-13.165 13.165-13.165h23.173v-9.738c0-6.09 4.936-11.026 11.025-11.026h43.502a21.733 21.733 0 0 1 21.708-20.764h23.945C324.729 5.598 331.186 0 338.95 0h37.547a36.195 36.195 0 0 1 36.113 33.793c5.868.551 10.461 5.491 10.461 11.504v39.341c9.577 1.615 16.871 9.947 16.871 19.983v58.897a19.468 19.468 0 0 1-16.871 19.293v40.633c0 8.475-6.87 15.345-15.344 15.345h-10.621a16.13 16.13 0 0 1-16.124 15.573h-19.353a22.651 22.651 0 0 1-22.201 18.169h-24.902c-10.685 0-19.527-7.894-21.012-18.169h-14.879a21.678 21.678 0 0 1-20.8-15.573h-19.472c-8.366 0-15.147-6.782-15.147-15.148v-5.617h-42.489a34.079 34.079 0 0 1-33.895-30.54 22.608 22.608 0 0 1-17.056-21.915v-14.25h-15.573v3.177a11.621 11.621 0 0 1-11.617 11.618H64.623a19.201 19.201 0 0 1-18.688-14.795h-6.483a15.832 15.832 0 0 1-15.833-15.832v-14.795h-2.424C9.489 120.692 0 111.203 0 99.497V79.351a22.25 22.25 0 0 1 22.249-22.249h1.37v-2.565c0-9.621 7.8-17.421 17.422-17.421H55.89a19.474 19.474 0 0 1 19.391-17.65h42.805c11.063 0 20.106 8.648 20.739 19.552a36.592 36.592 0 0 1 24.953 34.695v2.855z"/>
  </clipPath>
  <g clip-path="url(#a)">
    <path d="M164.816 92.141h23.1v-8.897c0-7.271 5.894-13.165 13.165-13.165h23.173v-9.738c0-6.09 4.936-11.026 11.026-11.026h43.501a21.733 21.733 0 0 1 21.709-20.764h23.944c1.334-7.38 7.79-12.978 15.554-12.978h37.547a36.19 36.19 0 0 1 36.113 33.793c5.869.551 10.462 5.491 10.462 11.504v39.341c9.576 1.615 16.87 9.947 16.87 19.983v58.898a19.463 19.463 0 0 1-16.87 19.292v40.633c0 8.475-6.871 15.345-15.345 15.345h-10.621a16.135 16.135 0 0 1-16.124 15.573h-19.353a22.646 22.646 0 0 1-22.201 18.169h-24.902c-10.685 0-19.527-7.894-21.012-18.169h-14.878a21.678 21.678 0 0 1-20.801-15.573h-19.472c-8.365 0-15.147-6.782-15.147-15.148v-5.616h-42.489a34.081 34.081 0 0 1-33.895-30.541 22.606 22.606 0 0 1-17.055-21.915v-14.249h-15.573v3.176a11.618 11.618 0 0 1-11.618 11.618H65.662a19.202 19.202 0 0 1-18.689-14.794H40.49a15.833 15.833 0 0 1-15.832-15.833v-14.795h-2.425c-11.705 0-21.195-9.489-21.195-21.195V94.924a22.25 22.25 0 0 1 22.249-22.249h1.371V70.11c0-9.621 7.799-17.421 17.421-17.421h14.849A19.474 19.474 0 0 1 76.319 35.04h42.805c11.063 0 20.107 8.647 20.739 19.551a36.592 36.592 0 0 1 24.953 34.695v2.855z" fill="#d1ffff"/>
  </g>
</svg>
