<?xml version="1.0" encoding="UTF-8" standalone="no"?><!DOCTYPE svg PUBLIC "-//W3C//DTD SVG 1.1//EN" "http://www.w3.org/Graphics/SVG/1.1/DTD/svg11.dtd"><svg width="100%" height="100%" viewBox="0 0 556 573" version="1.1" xmlns="http://www.w3.org/2000/svg" xmlns:xlink="http://www.w3.org/1999/xlink" xml:space="preserve" style="fill-rule:evenodd;clip-rule:evenodd;stroke-linejoin:round;stroke-miterlimit:1.41421;"><path id="Cloud1" d="M425.59,384.532c-8.48,13.433 -24.522,22.493 -42.915,22.493c-29.261,0 -60.691,0 -60.691,0c-3.406,12.778 -16.184,22.275 -31.426,22.275l-109.523,0c-0.451,4.387 -2.59,8.518 -6.08,11.659c-3.951,3.556 -9.31,5.553 -14.897,5.554l-19.433,0l0,22.045c0,23.613 -21.268,42.754 -47.505,42.755l-17.745,0l0,29.747c0,17.122 -15.423,31.003 -34.447,31.003c-0.001,0 -0.002,0 -0.003,0c-22.602,0 -40.925,-16.491 -40.925,-36.833c0,-5.938 0,-11.969 0,-17.566c0,-6.786 2.996,-13.295 8.328,-18.094c5.332,-4.799 12.564,-7.495 20.105,-7.495l1.942,0l0,-48.323c0,-8.667 3.825,-16.978 10.634,-23.106c6.809,-6.128 16.044,-9.571 25.674,-9.571l5.317,0l0,-61.762l-4.192,0c-10.733,0 -19.433,-7.831 -19.433,-17.49l0,-26.048l-0.255,0c-8.558,0 -15.495,-6.244 -15.495,-13.946c0,-12.05 0,-29.863 0,-45.008c0,-7.727 3.41,-15.137 9.481,-20.601c6.07,-5.463 14.304,-8.532 22.889,-8.532l7.005,0l0,-37.692c0,-8.264 3.647,-16.189 10.14,-22.032c6.492,-5.844 15.298,-9.126 24.48,-9.126l5.211,0l0,-19.166c0,-40.861 36.804,-73.984 82.204,-73.984l42.215,0l0,-13.392c0,-11.218 4.951,-21.976 13.765,-29.908c8.813,-7.932 20.766,-12.388 33.23,-12.388c8.964,0 18.409,0 27.563,0c14.24,0 27.897,5.091 37.966,14.153c10.069,9.063 15.726,21.354 15.726,34.17l0,7.365c0,0 18.308,0 35.855,0c16.589,0 30.197,11.488 31.537,26.107l16.451,0c18.2,0 35.655,6.507 48.525,18.09c12.869,11.582 20.1,27.292 20.1,43.672l0,33.413l5.062,0c18.329,0 33.188,13.373 33.188,29.869c0,8.414 0,17.866 0,27.337c0,32.153 -28.962,58.219 -64.688,58.219l-7.715,0c1.701,3.222 2.653,6.827 2.653,10.631c0,1.351 0,2.706 0,4.05c0,4.683 -1.571,9.036 -4.263,12.656l0.687,0c8.109,0 15.886,2.899 21.62,8.06c5.734,5.161 8.956,12.16 8.956,19.458c0,0.001 0,0.001 0,0.002c0,9.887 -4.365,19.37 -12.133,26.361c-7.768,6.992 -18.304,10.919 -29.29,10.919l-45.455,0Z" style="fill:#fff;"/><clipPath id="_clip1"><path d="M425.59,384.532c-8.48,13.433 -24.522,22.493 -42.915,22.493c-29.261,0 -60.691,0 -60.691,0c-3.406,12.778 -16.184,22.275 -31.426,22.275l-109.523,0c-0.451,4.387 -2.59,8.518 -6.08,11.659c-3.951,3.556 -9.31,5.553 -14.897,5.554l-19.433,0l0,22.045c0,23.613 -21.268,42.754 -47.505,42.755l-17.745,0l0,29.747c0,17.122 -15.423,31.003 -34.447,31.003c-0.001,0 -0.002,0 -0.003,0c-22.602,0 -40.925,-16.491 -40.925,-36.833c0,-5.938 0,-11.969 0,-17.566c0,-6.786 2.996,-13.295 8.328,-18.094c5.332,-4.799 12.564,-7.495 20.105,-7.495l1.942,0l0,-48.323c0,-8.667 3.825,-16.978 10.634,-23.106c6.809,-6.128 16.044,-9.571 25.674,-9.571l5.317,0l0,-61.762l-4.192,0c-10.733,0 -19.433,-7.831 -19.433,-17.49l0,-26.048l-0.255,0c-8.558,0 -15.495,-6.244 -15.495,-13.946c0,-12.05 0,-29.863 0,-45.008c0,-7.727 3.41,-15.137 9.481,-20.601c6.07,-5.463 14.304,-8.532 22.889,-8.532l7.005,0l0,-37.692c0,-8.264 3.647,-16.189 10.14,-22.032c6.492,-5.844 15.298,-9.126 24.48,-9.126l5.211,0l0,-19.166c0,-40.861 36.804,-73.984 82.204,-73.984l42.215,0l0,-13.392c0,-11.218 4.951,-21.976 13.765,-29.908c8.813,-7.932 20.766,-12.388 33.23,-12.388c8.964,0 18.409,0 27.563,0c14.24,0 27.897,5.091 37.966,14.153c10.069,9.063 15.726,21.354 15.726,34.17l0,7.365c0,0 18.308,0 35.855,0c16.589,0 30.197,11.488 31.537,26.107l16.451,0c18.2,0 35.655,6.507 48.525,18.09c12.869,11.582 20.1,27.292 20.1,43.672l0,33.413l5.062,0c18.329,0 33.188,13.373 33.188,29.869c0,8.414 0,17.866 0,27.337c0,32.153 -28.962,58.219 -64.688,58.219l-7.715,0c1.701,3.222 2.653,6.827 2.653,10.631c0,1.351 0,2.706 0,4.05c0,4.683 -1.571,9.036 -4.263,12.656l0.687,0c8.109,0 15.886,2.899 21.62,8.06c5.734,5.161 8.956,12.16 8.956,19.458c0,0.001 0,0.001 0,0.002c0,9.887 -4.365,19.37 -12.133,26.361c-7.768,6.992 -18.304,10.919 -29.29,10.919l-45.455,0Z"/></clipPath><g clip-path="url(#_clip1)"><path id="MiddleRight1" d="M446.187,396.837c-8.48,13.432 -24.522,22.492 -42.915,22.492c-29.261,0 -60.691,0 -60.691,0c-3.406,12.778 -16.184,22.275 -31.426,22.275l-109.523,0c-0.451,4.388 -2.59,8.518 -6.08,11.659c-3.951,3.556 -9.31,5.554 -14.897,5.554l-19.433,0l0,22.045c0,23.613 -21.268,42.755 -47.505,42.755l-17.745,0l0,29.747c0,17.122 -15.423,31.003 -34.447,31.003c-0.001,0 -0.002,0 -0.003,0c-22.602,0 -40.925,-16.491 -40.925,-36.833c0,-5.938 0,-11.969 0,-17.565c0,-6.787 2.996,-13.296 8.328,-18.095c5.332,-4.799 12.564,-7.495 20.105,-7.495l1.942,0l0,-48.323c0,-8.666 3.825,-16.978 10.634,-23.106c6.809,-6.128 16.044,-9.571 25.674,-9.571l5.317,0l0,-61.762l-4.192,0c-10.733,0 -19.433,-7.831 -19.433,-17.49l0,-26.048l-0.255,0c-8.557,0 -15.495,-6.243 -15.495,-13.945c0,-12.051 0,-29.864 0,-45.009c0,-7.727 3.411,-15.137 9.481,-20.6c6.071,-5.464 14.304,-8.533 22.889,-8.533l7.005,0l0,-37.692c0,-8.264 3.648,-16.189 10.14,-22.032c6.493,-5.843 15.298,-9.126 24.48,-9.126l5.211,0l0,-19.166c0,-40.86 36.804,-73.984 82.205,-73.984l42.214,0l0,-13.392c0,-11.218 4.951,-21.976 13.765,-29.908c8.813,-7.932 20.766,-12.388 33.23,-12.388c8.964,0 18.409,0 27.563,0c14.24,0 27.897,5.091 37.966,14.154c10.069,9.062 15.726,21.353 15.726,34.169l0,7.365c0,0 18.308,0 35.855,0c16.589,0 30.197,11.488 31.537,26.107l16.451,0c18.2,0 35.655,6.507 48.525,18.09c12.87,11.583 20.1,27.292 20.1,43.673l0,33.412l5.062,0c18.329,0 33.188,13.373 33.188,29.869c0,8.414 0,17.867 0,27.337c0,32.154 -28.962,58.219 -64.688,58.219l-7.715,0c1.701,3.222 2.653,6.827 2.653,10.631c0,1.352 0,2.707 0,4.05c0,4.684 -1.57,9.037 -4.263,12.657l0.687,0c8.109,0 15.886,2.899 21.62,8.059c5.734,5.161 8.956,12.16 8.956,19.458c0,0.001 0,0.002 0,0.002c0,9.888 -4.364,19.37 -12.133,26.361c-7.768,6.992 -18.304,10.92 -29.29,10.92l-45.455,0Z" style="fill:#d1ffff;"/><rect x="369.035" y="-6.806" width="199.337" height="424.629" style="fill:#d1ffff;"/></g></svg>