<svg viewBox="0 0 305 233" xmlns="http://www.w3.org/2000/svg" fill-rule="evenodd" clip-rule="evenodd" stroke-linejoin="round" stroke-miterlimit="1.414">
  <path d="M88.877 25.53C89.049 11.404 101.826 0 117.563 0h48.374c11.786 0 23.089 4.214 31.423 11.714 4.429 3.986 7.826 8.727 10.038 13.887 10.679.575 20.792 4.648 28.399 11.495 4.321 3.889 7.648 8.505 9.832 13.529H256.5c13.048 0 23.625 9.52 23.625 21.262v7.088c13.678.046 24.75 10.039 24.75 22.36v.002c0 5.079-2.242 9.95-6.232 13.541-2.333 2.1-5.152 3.662-8.219 4.597h2.076v13.162c0 14.539-13.095 26.325-29.25 26.326h-14.602v2.748c0 6.042-2.667 11.837-7.414 16.109-4.435 3.991-10.346 6.349-16.578 6.641-2.431 14.91-16.703 26.357-33.946 26.357h-11.835v4.844c0 9.507-8.563 17.213-19.125 17.213h-1.688c-12.115 0-21.937-8.84-21.937-19.744v-2.313h-20.227c-16.641 0-30.267-11.613-31.42-26.325h-9.643c-23.299 0-42.187-16.999-42.187-37.969v-15.947C14.471 129.795 0 116.284 0 99.731v-7.593c0-9.131 4.03-17.887 11.203-24.343 6.261-5.634 14.468-9.114 23.199-9.908 2.23-7.293 6.532-14.014 12.579-19.457 9.178-8.26 21.625-12.9 34.604-12.9h7.292z" fill="#fff"/>
  <clipPath id="a">
    <path d="M88.877 25.53C89.049 11.404 101.826 0 117.563 0h48.374c11.786 0 23.089 4.214 31.423 11.714 4.429 3.986 7.826 8.727 10.038 13.887 10.679.575 20.792 4.648 28.399 11.495 4.321 3.889 7.648 8.505 9.832 13.529H256.5c13.048 0 23.625 9.52 23.625 21.262v7.088c13.678.046 24.75 10.039 24.75 22.36v.002c0 5.079-2.242 9.95-6.232 13.541-2.333 2.1-5.152 3.662-8.219 4.597h2.076v13.162c0 14.539-13.095 26.325-29.25 26.326h-14.602v2.748c0 6.042-2.667 11.837-7.414 16.109-4.435 3.991-10.346 6.349-16.578 6.641-2.431 14.91-16.703 26.357-33.946 26.357h-11.835v4.844c0 9.507-8.563 17.213-19.125 17.213h-1.688c-12.115 0-21.937-8.84-21.937-19.744v-2.313h-20.227c-16.641 0-30.267-11.613-31.42-26.325h-9.643c-23.299 0-42.187-16.999-42.187-37.969v-15.947C14.471 129.795 0 116.284 0 99.731v-7.593c0-9.131 4.03-17.887 11.203-24.343 6.261-5.634 14.468-9.114 23.199-9.908 2.23-7.293 6.532-14.014 12.579-19.457 9.178-8.26 21.625-12.9 34.604-12.9h7.292z"/>
  </clipPath>
  <g clip-path="url(#a)">
    <path d="M108.002 26.543c.172-14.127 12.949-25.531 28.686-25.53h48.374c11.786-.001 23.089 4.213 31.423 11.713 4.429 3.987 7.826 8.728 10.038 13.888 10.679.575 20.792 4.648 28.399 11.494 4.321 3.889 7.648 8.505 9.832 13.529h10.871c13.048.001 23.625 9.52 23.625 21.263v7.088c13.678.045 24.75 10.039 24.75 22.36v.002c0 5.079-2.242 9.95-6.232 13.541-2.333 2.1-5.152 3.661-8.219 4.597h2.076v13.162c0 14.539-13.095 26.325-29.25 26.325h-14.602v2.749c0 6.042-2.667 11.836-7.414 16.109-4.435 3.991-10.346 6.348-16.578 6.641-2.431 14.91-16.703 26.356-33.946 26.356H198v4.845c0 9.506-8.563 17.212-19.125 17.213h-1.688c-12.115-.001-21.937-8.84-21.937-19.744v-2.314h-20.227c-16.641 0-30.267-11.612-31.42-26.325H93.96c-23.299 0-42.187-16.999-42.187-37.969v-15.947c-18.177-.781-32.648-14.292-32.648-30.845V93.15c0-9.13 4.03-17.886 11.203-24.342 6.261-5.635 14.468-9.114 23.199-9.908 2.23-7.294 6.532-14.014 12.579-19.457 9.178-8.26 21.625-12.9 34.604-12.9h7.292z" fill="#d1ffff"/>
  </g>
</svg>
