<svg viewBox="0 0 608 601" xmlns="http://www.w3.org/2000/svg" fill-rule="evenodd" clip-rule="evenodd" stroke-linejoin="round" stroke-miterlimit="1.414">
  <path d="M376.579 18a27.117 27.117 0 0 1 25.539-18h.002C442.371 0 475 32.63 475 72.88v11.464c32.913 19.26 55.02 54.984 55.02 95.871v2.975a46.998 46.998 0 0 1 29.938 41.832 48.505 48.505 0 0 1 32.837 14.183A48.503 48.503 0 0 1 607 273.5v15c0 22.368-18.132 40.5-40.5 40.5H561v10c0 18.385-13.409 33.637-30.98 36.513v21.702h8.5c22.368 0 40.5 18.133 40.5 40.5V440H583c6.63 0 12.989 2.634 17.678 7.322A25.004 25.004 0 0 1 608 465v7c0 14.359-11.641 26-26 26h-2.98v11.215a46.997 46.997 0 0 1-47 47H520v2.285c0 12.979-10.521 23.5-23.5 23.5h-24c-12.426 0-22.5-10.074-22.5-22.5v-3.285h-10.98a28 28 0 0 1-28-28v-2h-64v1c0 13.807-11.192 25-25 25h-7.032C314.611 563.206 305.583 572 294.5 572h-21a21.5 21.5 0 0 1-21.432-19.785H217.02a26 26 0 0 1-26 26h-11.051a24.004 24.004 0 0 1-6.998 15.756A24.005 24.005 0 0 1 156 601h-52.5A22.504 22.504 0 0 1 81 578.5v-.285H69.52c-14.635 0-26.5-11.864-26.5-26.5V541H43a13.996 13.996 0 0 1-9.899-4.101A13.996 13.996 0 0 1 29 527v-8c0-8.166 6.118-14.904 14.02-15.879v-21.906c0-9.941 8.059-18 18-18v-34.358A34.003 34.003 0 0 1 45 400v-9h-7c-20.987 0-38-17.013-38-38v-47.5c0-26.024 16.164-48.273 39-57.254V206.5c0-18.077 8.642-34.135 22.02-44.268v-26.517a66.503 66.503 0 0 1 66.5-66.5h10.5v-11a33.001 33.001 0 0 1 33-33h43.5a36.5 36.5 0 0 1 33.748 22.596A67 67 0 0 1 304 18h72.579z" fill="#fff"/>
  <clipPath id="a">
    <path d="M376.579 18a27.117 27.117 0 0 1 25.539-18h.002C442.371 0 475 32.63 475 72.88v11.464c32.913 19.26 55.02 54.984 55.02 95.871v2.975a46.998 46.998 0 0 1 29.938 41.832 48.505 48.505 0 0 1 32.837 14.183A48.503 48.503 0 0 1 607 273.5v15c0 22.368-18.132 40.5-40.5 40.5H561v10c0 18.385-13.409 33.637-30.98 36.513v21.702h8.5c22.368 0 40.5 18.133 40.5 40.5V440H583c6.63 0 12.989 2.634 17.678 7.322A25.004 25.004 0 0 1 608 465v7c0 14.359-11.641 26-26 26h-2.98v11.215a46.997 46.997 0 0 1-47 47H520v2.285c0 12.979-10.521 23.5-23.5 23.5h-24c-12.426 0-22.5-10.074-22.5-22.5v-3.285h-10.98a28 28 0 0 1-28-28v-2h-64v1c0 13.807-11.192 25-25 25h-7.032C314.611 563.206 305.583 572 294.5 572h-21a21.5 21.5 0 0 1-21.432-19.785H217.02a26 26 0 0 1-26 26h-11.051a24.004 24.004 0 0 1-6.998 15.756A24.005 24.005 0 0 1 156 601h-52.5A22.504 22.504 0 0 1 81 578.5v-.285H69.52c-14.635 0-26.5-11.864-26.5-26.5V541H43a13.996 13.996 0 0 1-9.899-4.101A13.996 13.996 0 0 1 29 527v-8c0-8.166 6.118-14.904 14.02-15.879v-21.906c0-9.941 8.059-18 18-18v-34.358A34.003 34.003 0 0 1 45 400v-9h-7c-20.987 0-38-17.013-38-38v-47.5c0-26.024 16.164-48.273 39-57.254V206.5c0-18.077 8.642-34.135 22.02-44.268v-26.517a66.503 66.503 0 0 1 66.5-66.5h10.5v-11a33.001 33.001 0 0 1 33-33h43.5a36.5 36.5 0 0 1 33.748 22.596A67 67 0 0 1 304 18h72.579z"/>
  </clipPath>
  <g clip-path="url(#a)">
    <path d="M376.579 38a27.117 27.117 0 0 1 25.539-18h.002C442.371 20 475 52.63 475 92.88v11.464c32.913 19.26 55.02 54.984 55.02 95.871v2.975a46.998 46.998 0 0 1 29.938 41.832 48.505 48.505 0 0 1 32.837 14.183A48.503 48.503 0 0 1 607 293.5v15c0 22.368-18.132 40.5-40.5 40.5H561v10c0 18.385-13.409 33.637-30.98 36.513v21.702h8.5c22.368 0 40.5 18.133 40.5 40.5V460H583c6.63 0 12.989 2.634 17.678 7.322A25.004 25.004 0 0 1 608 485v7c0 14.359-11.641 26-26 26h-2.98v11.215a46.997 46.997 0 0 1-47 47H520v2.285c0 12.979-10.521 23.5-23.5 23.5h-24c-12.426 0-22.5-10.074-22.5-22.5v-3.285h-10.98a28 28 0 0 1-28-28v-2h-64v1c0 13.807-11.192 25-25 25h-7.032C314.611 583.206 305.583 592 294.5 592h-21a21.5 21.5 0 0 1-21.432-19.785H217.02a26 26 0 0 1-26 26h-11.051a24.004 24.004 0 0 1-6.998 15.756A24.005 24.005 0 0 1 156 621h-52.5A22.504 22.504 0 0 1 81 598.5v-.285H69.52c-14.635 0-26.5-11.864-26.5-26.5V561H43a13.996 13.996 0 0 1-9.899-4.101A13.996 13.996 0 0 1 29 547v-8c0-8.166 6.118-14.904 14.02-15.879v-21.906c0-9.941 8.059-18 18-18v-34.358A34.003 34.003 0 0 1 45 420v-9h-7c-20.987 0-38-17.013-38-38v-47.5c0-26.024 16.164-48.273 39-57.254V226.5c0-18.077 8.642-34.135 22.02-44.268v-26.517a66.503 66.503 0 0 1 66.5-66.5h10.5v-11a33.001 33.001 0 0 1 33-33h43.5a36.5 36.5 0 0 1 33.748 22.596A67 67 0 0 1 304 38h72.579z" fill="#d1ffff"/>
  </g>
</svg>
