<?xml version="1.0" encoding="UTF-8" standalone="no"?><!DOCTYPE svg PUBLIC "-//W3C//DTD SVG 1.1//EN" "http://www.w3.org/Graphics/SVG/1.1/DTD/svg11.dtd"><svg width="100%" height="100%" viewBox="0 0 608 601" version="1.1" xmlns="http://www.w3.org/2000/svg" xmlns:xlink="http://www.w3.org/1999/xlink" xml:space="preserve" style="fill-rule:evenodd;clip-rule:evenodd;stroke-linejoin:round;stroke-miterlimit:1.41421;"><path id="BackRightCloud1" d="M376.579,18c1.338,-3.747 3.497,-7.19 6.364,-10.057c5.085,-5.086 11.983,-7.943 19.175,-7.943c0.001,0 0.001,0 0.002,0c40.251,0 72.88,32.63 72.88,72.88l0,11.464c32.913,19.26 55.02,54.984 55.02,95.871l0,2.975c6.023,2.34 11.557,5.919 16.214,10.576c8.347,8.347 13.23,19.51 13.724,31.256c12.334,0.371 24.085,5.432 32.837,14.183c9.095,9.096 14.205,21.432 14.205,34.295c0,5.019 0,10.082 0,15c0,22.368 -18.132,40.5 -40.5,40.5l-5.5,0l0,10c0,18.385 -13.409,33.637 -30.98,36.513l0,21.702l8.5,0c22.368,0 40.5,18.133 40.5,40.5l0,2.285l3.98,0c6.63,0 12.989,2.634 17.678,7.322c4.688,4.689 7.322,11.048 7.322,17.678c0,2.319 0,4.672 0,7c0,14.359 -11.641,26 -26,26l-2.98,0l0,11.215c0,12.465 -4.951,24.42 -13.766,33.234c-8.814,8.814 -20.768,13.766 -33.234,13.766l-12.02,0l0,2.285c0,12.979 -10.521,23.5 -23.5,23.5c-7.744,0 -16.333,0 -24,0c-12.426,0 -22.5,-10.074 -22.5,-22.5l0,-3.285l-10.98,0c-7.426,0 -14.548,-2.95 -19.799,-8.201c-5.251,-5.251 -8.201,-12.373 -8.201,-19.799l0,-2l-64,0l0,1c0,13.807 -11.192,25 -25,25l-7.032,0c-0.377,10.991 -9.405,19.785 -20.488,19.785c-6.721,0 -14.207,0 -21,0c-5.702,0 -11.171,-2.265 -15.203,-6.297c-3.626,-3.626 -5.823,-8.414 -6.229,-13.488l-35.048,0l0,0c0,6.896 -2.739,13.509 -7.615,18.385c-4.876,4.876 -11.489,7.615 -18.385,7.615l-11.051,0c-0.3,5.923 -2.785,11.542 -6.998,15.756c-4.501,4.5 -10.606,7.029 -16.971,7.029l-52.5,0c-5.967,0 -11.69,-2.371 -15.91,-6.59c-4.219,-4.22 -6.59,-9.943 -6.59,-15.91l0,-0.285l-11.48,0c-14.635,0 -26.5,-11.864 -26.5,-26.5l0,-10.715l-0.02,0c-3.713,0 -7.274,-1.475 -9.899,-4.101c-2.626,-2.625 -4.101,-6.186 -4.101,-9.899c0,-2.604 0,-5.342 0,-8c0,-8.166 6.118,-14.904 14.02,-15.879l0,-21.906c0,-9.941 8.059,-18 18,-18l0,0l0,-34.358c-2.18,-1.358 -4.216,-2.97 -6.062,-4.815c-6.376,-6.377 -9.958,-15.025 -9.958,-24.042l0,-9l-7,0c-20.987,0 -38,-17.013 -38,-38c0,-14.483 0,-31.387 0,-47.5c0,-26.024 16.164,-48.273 39,-57.254l0,-41.746c0,-18.077 8.642,-34.135 22.02,-44.268l0,-26.517c0,-17.637 7.007,-34.551 19.478,-47.023c12.471,-12.471 29.385,-19.477 47.022,-19.477l10.5,0l0,-11c0,-8.752 3.477,-17.146 9.666,-23.335c6.188,-6.188 14.582,-9.665 23.334,-9.665c13.643,0 29.511,0 43.5,0c9.681,0 18.965,3.846 25.81,10.691c3.439,3.439 6.121,7.494 7.938,11.905c2.426,-3.636 5.22,-7.051 8.356,-10.187c12.565,-12.565 29.607,-19.624 47.376,-19.624l72.579,0Z" style="fill:#fff;"/><clipPath id="_clip1"><path d="M376.579,18c1.338,-3.747 3.497,-7.19 6.364,-10.057c5.085,-5.086 11.983,-7.943 19.175,-7.943c0.001,0 0.001,0 0.002,0c40.251,0 72.88,32.63 72.88,72.88l0,11.464c32.913,19.26 55.02,54.984 55.02,95.871l0,2.975c6.023,2.34 11.557,5.919 16.214,10.576c8.347,8.347 13.23,19.51 13.724,31.256c12.334,0.371 24.085,5.432 32.837,14.183c9.095,9.096 14.205,21.432 14.205,34.295c0,5.019 0,10.082 0,15c0,22.368 -18.132,40.5 -40.5,40.5l-5.5,0l0,10c0,18.385 -13.409,33.637 -30.98,36.513l0,21.702l8.5,0c22.368,0 40.5,18.133 40.5,40.5l0,2.285l3.98,0c6.63,0 12.989,2.634 17.678,7.322c4.688,4.689 7.322,11.048 7.322,17.678c0,2.319 0,4.672 0,7c0,14.359 -11.641,26 -26,26l-2.98,0l0,11.215c0,12.465 -4.951,24.42 -13.766,33.234c-8.814,8.814 -20.768,13.766 -33.234,13.766l-12.02,0l0,2.285c0,12.979 -10.521,23.5 -23.5,23.5c-7.744,0 -16.333,0 -24,0c-12.426,0 -22.5,-10.074 -22.5,-22.5l0,-3.285l-10.98,0c-7.426,0 -14.548,-2.95 -19.799,-8.201c-5.251,-5.251 -8.201,-12.373 -8.201,-19.799l0,-2l-64,0l0,1c0,13.807 -11.192,25 -25,25l-7.032,0c-0.377,10.991 -9.405,19.785 -20.488,19.785c-6.721,0 -14.207,0 -21,0c-5.702,0 -11.171,-2.265 -15.203,-6.297c-3.626,-3.626 -5.823,-8.414 -6.229,-13.488l-35.048,0l0,0c0,6.896 -2.739,13.509 -7.615,18.385c-4.876,4.876 -11.489,7.615 -18.385,7.615l-11.051,0c-0.3,5.923 -2.785,11.542 -6.998,15.756c-4.501,4.5 -10.606,7.029 -16.971,7.029l-52.5,0c-5.967,0 -11.69,-2.371 -15.91,-6.59c-4.219,-4.22 -6.59,-9.943 -6.59,-15.91l0,-0.285l-11.48,0c-14.635,0 -26.5,-11.864 -26.5,-26.5l0,-10.715l-0.02,0c-3.713,0 -7.274,-1.475 -9.899,-4.101c-2.626,-2.625 -4.101,-6.186 -4.101,-9.899c0,-2.604 0,-5.342 0,-8c0,-8.166 6.118,-14.904 14.02,-15.879l0,-21.906c0,-9.941 8.059,-18 18,-18l0,0l0,-34.358c-2.18,-1.358 -4.216,-2.97 -6.062,-4.815c-6.376,-6.377 -9.958,-15.025 -9.958,-24.042l0,-9l-7,0c-20.987,0 -38,-17.013 -38,-38c0,-14.483 0,-31.387 0,-47.5c0,-26.024 16.164,-48.273 39,-57.254l0,-41.746c0,-18.077 8.642,-34.135 22.02,-44.268l0,-26.517c0,-17.637 7.007,-34.551 19.478,-47.023c12.471,-12.471 29.385,-19.477 47.022,-19.477l10.5,0l0,-11c0,-8.752 3.477,-17.146 9.666,-23.335c6.188,-6.188 14.582,-9.665 23.334,-9.665c13.643,0 29.511,0 43.5,0c9.681,0 18.965,3.846 25.81,10.691c3.439,3.439 6.121,7.494 7.938,11.905c2.426,-3.636 5.22,-7.051 8.356,-10.187c12.565,-12.565 29.607,-19.624 47.376,-19.624l72.579,0Z"/></clipPath><g clip-path="url(#_clip1)"><path id="BackRightCloud11" d="M376.579,38c1.338,-3.747 3.497,-7.19 6.364,-10.057c5.085,-5.086 11.983,-7.943 19.175,-7.943c0.001,0 0.001,0 0.002,0c40.251,0 72.88,32.63 72.88,72.88l0,11.464c32.913,19.26 55.02,54.984 55.02,95.871l0,2.975c6.023,2.34 11.557,5.919 16.214,10.576c8.347,8.347 13.23,19.51 13.724,31.256c12.334,0.371 24.085,5.432 32.837,14.183c9.095,9.096 14.205,21.432 14.205,34.295c0,5.019 0,10.082 0,15c0,22.368 -18.132,40.5 -40.5,40.5l-5.5,0l0,10c0,18.385 -13.409,33.637 -30.98,36.513l0,21.702l8.5,0c22.368,0 40.5,18.133 40.5,40.5l0,2.285l3.98,0c6.63,0 12.989,2.634 17.678,7.322c4.688,4.689 7.322,11.048 7.322,17.678c0,2.319 0,4.672 0,7c0,14.359 -11.641,26 -26,26l-2.98,0l0,11.215c0,12.465 -4.951,24.42 -13.766,33.234c-8.814,8.814 -20.768,13.766 -33.234,13.766l-12.02,0l0,2.285c0,12.979 -10.521,23.5 -23.5,23.5c-7.744,0 -16.333,0 -24,0c-12.426,0 -22.5,-10.074 -22.5,-22.5l0,-3.285l-10.98,0c-7.426,0 -14.548,-2.95 -19.799,-8.201c-5.251,-5.251 -8.201,-12.373 -8.201,-19.799l0,-2l-64,0l0,1c0,13.807 -11.192,25 -25,25l-7.032,0c-0.377,10.991 -9.405,19.785 -20.488,19.785c-6.721,0 -14.207,0 -21,0c-5.702,0 -11.171,-2.265 -15.203,-6.297c-3.626,-3.626 -5.823,-8.414 -6.229,-13.488l-35.048,0l0,0c0,6.896 -2.739,13.509 -7.615,18.385c-4.876,4.876 -11.489,7.615 -18.385,7.615l-11.051,0c-0.3,5.923 -2.785,11.542 -6.998,15.756c-4.501,4.5 -10.606,7.029 -16.971,7.029l-52.5,0c-5.967,0 -11.69,-2.371 -15.91,-6.59c-4.219,-4.22 -6.59,-9.943 -6.59,-15.91l0,-0.285l-11.48,0c-14.635,0 -26.5,-11.864 -26.5,-26.5l0,-10.715l-0.02,0c-3.713,0 -7.274,-1.475 -9.899,-4.101c-2.626,-2.625 -4.101,-6.186 -4.101,-9.899c0,-2.604 0,-5.342 0,-8c0,-8.166 6.118,-14.904 14.02,-15.879l0,-21.906c0,-9.941 8.059,-18 18,-18l0,0l0,-34.358c-2.18,-1.358 -4.216,-2.97 -6.062,-4.815c-6.376,-6.377 -9.958,-15.025 -9.958,-24.042l0,-9l-7,0c-20.987,0 -38,-17.013 -38,-38c0,-14.483 0,-31.387 0,-47.5c0,-26.024 16.164,-48.273 39,-57.254l0,-41.746c0,-18.077 8.642,-34.135 22.02,-44.268l0,-26.517c0,-17.637 7.007,-34.551 19.478,-47.023c12.471,-12.471 29.385,-19.477 47.022,-19.477l10.5,0l0,-11c0,-8.752 3.477,-17.146 9.666,-23.335c6.188,-6.188 14.582,-9.665 23.334,-9.665c13.643,0 29.511,0 43.5,0c9.681,0 18.965,3.846 25.81,10.691c3.439,3.439 6.121,7.494 7.938,11.905c2.426,-3.636 5.22,-7.051 8.356,-10.187c12.565,-12.565 29.607,-19.624 47.376,-19.624l72.579,0Z" style="fill:#d1ffff;"/></g></svg>