<svg viewBox="0 0 556 573" xmlns="http://www.w3.org/2000/svg" fill-rule="evenodd" clip-rule="evenodd" stroke-linejoin="round" stroke-miterlimit="1.414">
  <path d="M425.59 384.532c-8.48 13.433-24.522 22.493-42.915 22.493h-60.691c-3.406 12.778-16.184 22.275-31.426 22.275H181.035c-.451 4.387-2.59 8.518-6.08 11.659-3.951 3.556-9.31 5.553-14.897 5.554h-19.433v22.045c0 23.613-21.268 42.754-47.505 42.755H75.375v29.747c0 17.122-15.423 31.003-34.447 31.003h-.003C18.323 572.063 0 555.572 0 535.23v-17.566c0-6.786 2.996-13.295 8.328-18.094 5.332-4.799 12.564-7.495 20.105-7.495h1.942v-48.323c0-8.667 3.825-16.978 10.634-23.106s16.044-9.571 25.674-9.571H72v-61.762h-4.192c-10.733 0-19.433-7.831-19.433-17.49v-26.048h-.255c-8.558 0-15.495-6.244-15.495-13.946v-45.008c0-7.727 3.41-15.137 9.481-20.601 6.07-5.463 14.304-8.532 22.889-8.532H72v-37.692c0-8.264 3.647-16.189 10.14-22.032 6.492-5.844 15.298-9.126 24.48-9.126h5.211v-19.166c0-40.861 36.804-73.984 82.204-73.984h42.215V42.296c0-11.218 4.951-21.976 13.765-29.908C258.828 4.456 270.781 0 283.245 0h27.563c14.24 0 27.897 5.091 37.966 14.153 10.069 9.063 15.726 21.354 15.726 34.17v7.365h35.855c16.589 0 30.197 11.488 31.537 26.107h16.451c18.2 0 35.655 6.507 48.525 18.09 12.869 11.582 20.1 27.292 20.1 43.672v33.413h5.062c18.329 0 33.188 13.373 33.188 29.869v27.337c0 32.153-28.962 58.219-64.688 58.219h-7.715a22.674 22.674 0 0 1 2.653 10.631v4.05c0 4.683-1.571 9.036-4.263 12.656h.687c8.109 0 15.886 2.899 21.62 8.06 5.734 5.161 8.956 12.16 8.956 19.458v.002c0 9.887-4.365 19.37-12.133 26.361-7.768 6.992-18.304 10.919-29.29 10.919H425.59z" fill="#fff"/>
  <clipPath id="a">
    <path d="M425.59 384.532c-8.48 13.433-24.522 22.493-42.915 22.493h-60.691c-3.406 12.778-16.184 22.275-31.426 22.275H181.035c-.451 4.387-2.59 8.518-6.08 11.659-3.951 3.556-9.31 5.553-14.897 5.554h-19.433v22.045c0 23.613-21.268 42.754-47.505 42.755H75.375v29.747c0 17.122-15.423 31.003-34.447 31.003h-.003C18.323 572.063 0 555.572 0 535.23v-17.566c0-6.786 2.996-13.295 8.328-18.094 5.332-4.799 12.564-7.495 20.105-7.495h1.942v-48.323c0-8.667 3.825-16.978 10.634-23.106s16.044-9.571 25.674-9.571H72v-61.762h-4.192c-10.733 0-19.433-7.831-19.433-17.49v-26.048h-.255c-8.558 0-15.495-6.244-15.495-13.946v-45.008c0-7.727 3.41-15.137 9.481-20.601 6.07-5.463 14.304-8.532 22.889-8.532H72v-37.692c0-8.264 3.647-16.189 10.14-22.032 6.492-5.844 15.298-9.126 24.48-9.126h5.211v-19.166c0-40.861 36.804-73.984 82.204-73.984h42.215V42.296c0-11.218 4.951-21.976 13.765-29.908C258.828 4.456 270.781 0 283.245 0h27.563c14.24 0 27.897 5.091 37.966 14.153 10.069 9.063 15.726 21.354 15.726 34.17v7.365h35.855c16.589 0 30.197 11.488 31.537 26.107h16.451c18.2 0 35.655 6.507 48.525 18.09 12.869 11.582 20.1 27.292 20.1 43.672v33.413h5.062c18.329 0 33.188 13.373 33.188 29.869v27.337c0 32.153-28.962 58.219-64.688 58.219h-7.715a22.674 22.674 0 0 1 2.653 10.631v4.05c0 4.683-1.571 9.036-4.263 12.656h.687c8.109 0 15.886 2.899 21.62 8.06 5.734 5.161 8.956 12.16 8.956 19.458v.002c0 9.887-4.365 19.37-12.133 26.361-7.768 6.992-18.304 10.919-29.29 10.919H425.59z"/>
  </clipPath>
  <g clip-path="url(#a)" fill="#d1ffff">
    <path d="M446.187 396.837c-8.48 13.432-24.522 22.492-42.915 22.492h-60.691c-3.406 12.778-16.184 22.275-31.426 22.275H201.632c-.451 4.388-2.59 8.518-6.08 11.659-3.951 3.556-9.31 5.554-14.897 5.554h-19.433v22.045c0 23.613-21.268 42.755-47.505 42.755H95.972v29.747c0 17.122-15.423 31.003-34.447 31.003h-.003c-22.602 0-40.925-16.491-40.925-36.833v-17.565c0-6.787 2.996-13.296 8.328-18.095 5.332-4.799 12.564-7.495 20.105-7.495h1.942v-48.323c0-8.666 3.825-16.978 10.634-23.106s16.044-9.571 25.674-9.571h5.317v-61.762h-4.192c-10.733 0-19.433-7.831-19.433-17.49v-26.048h-.255c-8.557 0-15.495-6.243-15.495-13.945v-45.009c0-7.727 3.411-15.137 9.481-20.6 6.071-5.464 14.304-8.533 22.889-8.533h7.005V192.3c0-8.264 3.648-16.189 10.14-22.032 6.493-5.843 15.298-9.126 24.48-9.126h5.211v-19.166c0-40.86 36.804-73.984 82.205-73.984h42.214V54.6c0-11.218 4.951-21.976 13.765-29.908 8.813-7.932 20.766-12.388 33.23-12.388h27.563c14.24 0 27.897 5.091 37.966 14.154 10.069 9.062 15.726 21.353 15.726 34.169v7.365h35.855c16.589 0 30.197 11.488 31.537 26.107h16.451c18.2 0 35.655 6.507 48.525 18.09 12.87 11.583 20.1 27.292 20.1 43.673v33.412h5.062c18.329 0 33.188 13.373 33.188 29.869v27.337c0 32.154-28.962 58.219-64.688 58.219h-7.715a22.674 22.674 0 0 1 2.653 10.631v4.05c0 4.684-1.57 9.037-4.263 12.657h.687c8.109 0 15.886 2.899 21.62 8.059 5.734 5.161 8.956 12.16 8.956 19.458v.002c0 9.888-4.364 19.37-12.133 26.361-7.768 6.992-18.304 10.92-29.29 10.92h-45.455z"/>
    <path d="M369.035-6.806h199.337v424.629H369.035z"/>
  </g>
</svg>
