<?xml version="1.0" encoding="UTF-8" standalone="no"?><!DOCTYPE svg PUBLIC "-//W3C//DTD SVG 1.1//EN" "http://www.w3.org/Graphics/SVG/1.1/DTD/svg11.dtd">
<svg width="100%" height="100%" viewBox="0 0 83 147" version="1.1" xmlns="http://www.w3.org/2000/svg" xmlns:xlink="http://www.w3.org/1999/xlink" xml:space="preserve" style="fill-rule:evenodd;clip-rule:evenodd;stroke-linejoin:round;stroke-miterlimit:1.41421;">
    <path id="device" d="M75.386,146.927l-68.242,0c-3.943,0 -7.144,-3.201 -7.144,-7.144l0,-132.639c0,-3.943 3.201,-7.144 7.144,-7.144l68.242,0c3.943,0 7.144,3.201 7.144,7.144l0,132.639c0,3.943 -3.201,7.143 -7.144,7.144Zm-34.121,-16.631c3.591,0 6.506,2.915 6.506,6.506c0,3.591 -2.915,6.506 -6.506,6.506c-3.591,0 -6.506,-2.915 -6.506,-6.506c0,-3.591 2.915,-6.506 6.506,-6.506Zm30.466,-118.938l-60.932,0c-1.534,0.001 -2.778,1.246 -2.778,2.779l0,111.08c0,1.533 1.244,2.778 2.778,2.778l60.932,0c1.534,0 2.778,-1.245 2.778,-2.778l0,-111.08c0,-1.533 -1.244,-2.778 -2.778,-2.779Zm-19.71,-6.635l-21.512,0c-0.904,0 -1.637,0.733 -1.637,1.637c0,0.904 0.733,1.638 1.637,1.638l21.512,0c0.904,0 1.637,-0.734 1.637,-1.638c0,-0.904 -0.733,-1.637 -1.637,-1.637Z" style="fill:#fff;"/>
</svg>