<svg viewBox="0 0 900 403" xmlns="http://www.w3.org/2000/svg" fill-rule="evenodd" clip-rule="evenodd" stroke-linejoin="round" stroke-miterlimit="1.414">
  <path d="M794.545 29.455v-6.546c0-6.076 2.682-11.903 7.456-16.199C806.775 2.414 813.249 0 820 0h47.273c6.268 0 12.28 2.241 16.713 6.231 4.433 3.989 6.923 9.4 6.923 15.042v35.182c0 4.99-2.203 9.777-6.124 13.306s-9.239 5.512-14.785 5.512h-2.727v30.272c0 13.671-6.034 26.782-16.775 36.449-10.741 9.666-25.308 15.097-40.498 15.097h-26.364V216h49.091C869.881 216 900 243.107 900 276.545v54c0 39.765-35.817 72-80 72H649.091c-40.166 0-72.727-29.305-72.727-65.454v-21.273H468.182c-19.53 0-38.259-6.982-52.069-19.411-13.809-12.428-21.568-29.285-21.568-46.862v-9h-10.909v4.091c0 10.393-9.361 18.819-20.909 18.819h-29.091c-6.992 0-13.697-2.5-18.642-6.95-4.729-4.257-7.476-9.964-7.705-15.96h-3.653c-4.822 0-9.446-1.724-12.856-4.792-2.54-2.286-4.25-5.178-4.958-8.298h-73.468c-1.183 7.734-5.139 14.963-11.342 20.546-7.502 6.752-17.676 10.544-28.285 10.544h-26.363c-17.119 0-33.536-6.12-45.641-17.014-12.105-10.894-18.905-25.67-18.905-41.076v-10.637H54.545c-14.466 0-28.34-5.172-38.569-14.378C5.747 166.233 0 153.747 0 140.727v-20.454c0-8.029 3.544-15.729 9.852-21.406 2.954-2.659 6.401-4.772 10.148-6.268V78.545c0-9.981 4.406-19.554 12.248-26.612 7.843-7.059 18.479-11.024 29.57-11.024V28.636c0-7.16 3.161-14.028 8.787-19.092 5.626-5.063 13.257-7.908 21.213-7.908h33.637c14.058 0 25.454 10.257 25.454 22.909V36h44.546c8.438 0 16.531 3.017 22.498 8.387 5.967 5.371 9.32 12.655 9.32 20.249v4.026A52.159 52.159 0 0 1 240 67.091h58.182v-.818c0-7.682 6.919-13.909 15.454-13.909h8.182c11.502 0 21.446 6.008 26.166 14.727H600v-3.273c0-8.133 7.326-14.727 16.364-14.727h25.454c11.818 0 21.609 7.805 23.358 18h33.006v-9.818c0-15.364 13.838-27.818 30.909-27.818h65.454z" fill="#fff"/>
  <clipPath id="a">
    <path d="M794.545 29.455v-6.546c0-6.076 2.682-11.903 7.456-16.199C806.775 2.414 813.249 0 820 0h47.273c6.268 0 12.28 2.241 16.713 6.231 4.433 3.989 6.923 9.4 6.923 15.042v35.182c0 4.99-2.203 9.777-6.124 13.306s-9.239 5.512-14.785 5.512h-2.727v30.272c0 13.671-6.034 26.782-16.775 36.449-10.741 9.666-25.308 15.097-40.498 15.097h-26.364V216h49.091C869.881 216 900 243.107 900 276.545v54c0 39.765-35.817 72-80 72H649.091c-40.166 0-72.727-29.305-72.727-65.454v-21.273H468.182c-19.53 0-38.259-6.982-52.069-19.411-13.809-12.428-21.568-29.285-21.568-46.862v-9h-10.909v4.091c0 10.393-9.361 18.819-20.909 18.819h-29.091c-6.992 0-13.697-2.5-18.642-6.95-4.729-4.257-7.476-9.964-7.705-15.96h-3.653c-4.822 0-9.446-1.724-12.856-4.792-2.54-2.286-4.25-5.178-4.958-8.298h-73.468c-1.183 7.734-5.139 14.963-11.342 20.546-7.502 6.752-17.676 10.544-28.285 10.544h-26.363c-17.119 0-33.536-6.12-45.641-17.014-12.105-10.894-18.905-25.67-18.905-41.076v-10.637H54.545c-14.466 0-28.34-5.172-38.569-14.378C5.747 166.233 0 153.747 0 140.727v-20.454c0-8.029 3.544-15.729 9.852-21.406 2.954-2.659 6.401-4.772 10.148-6.268V78.545c0-9.981 4.406-19.554 12.248-26.612 7.843-7.059 18.479-11.024 29.57-11.024V28.636c0-7.16 3.161-14.028 8.787-19.092 5.626-5.063 13.257-7.908 21.213-7.908h33.637c14.058 0 25.454 10.257 25.454 22.909V36h44.546c8.438 0 16.531 3.017 22.498 8.387 5.967 5.371 9.32 12.655 9.32 20.249v4.026A52.159 52.159 0 0 1 240 67.091h58.182v-.818c0-7.682 6.919-13.909 15.454-13.909h8.182c11.502 0 21.446 6.008 26.166 14.727H600v-3.273c0-8.133 7.326-14.727 16.364-14.727h25.454c11.818 0 21.609 7.805 23.358 18h33.006v-9.818c0-15.364 13.838-27.818 30.909-27.818h65.454z"/>
  </clipPath>
  <g clip-path="url(#a)">
    <path d="M794.545 52.364v-6.546c0-6.076 2.682-11.903 7.456-16.199 4.774-4.296 11.248-6.71 17.999-6.71h47.273c6.268 0 12.28 2.241 16.713 6.231 4.433 3.989 6.923 9.4 6.923 15.042v35.182c0 4.991-2.203 9.777-6.124 13.306s-9.239 5.512-14.785 5.512h-2.727v30.273c0 13.67-6.034 26.781-16.775 36.448C839.757 174.569 825.19 180 810 180h-26.364v58.909h49.091c37.154 0 67.273 27.107 67.273 60.546v54c0 39.764-35.817 72-80 72H649.091c-40.166 0-72.727-29.305-72.727-65.455v-21.273H468.182c-19.53 0-38.259-6.982-52.069-19.411-13.809-12.428-21.568-29.285-21.568-46.861v-9h-10.909v4.09c0 10.393-9.361 18.819-20.909 18.819h-29.091c-6.992 0-13.697-2.5-18.642-6.95-4.729-4.256-7.476-9.964-7.705-15.959h-3.653c-4.822 0-9.446-1.724-12.856-4.793-2.54-2.286-4.25-5.178-4.958-8.298h-73.468c-1.183 7.734-5.139 14.963-11.342 20.546-7.502 6.752-17.676 10.545-28.285 10.545h-26.363c-17.119 0-33.536-6.121-45.641-17.015-12.105-10.894-18.905-25.67-18.905-41.076v-10.637H54.545c-14.466 0-28.34-5.172-38.569-14.378C5.747 189.143 0 176.656 0 163.636v-20.454c0-8.029 3.544-15.729 9.852-21.406 2.954-2.659 6.401-4.772 10.148-6.268v-14.053c0-9.982 4.406-19.555 12.248-26.613 7.843-7.059 18.479-11.024 29.57-11.024V51.545c0-7.16 3.161-14.028 8.787-19.091 5.626-5.064 13.257-7.909 21.213-7.909h33.637c14.058 0 25.454 10.257 25.454 22.91v11.454h44.546c8.438 0 16.531 3.017 22.498 8.387 5.967 5.371 9.32 12.655 9.32 20.249v4.026A52.159 52.159 0 0 1 240 90h58.182v-.818c0-7.682 6.919-13.909 15.454-13.909h8.182c11.502 0 21.446 6.008 26.166 14.727H600v-3.273C600 78.594 607.326 72 616.364 72h25.454c11.818 0 21.609 7.805 23.358 18h33.006v-9.818c0-15.364 13.838-27.818 30.909-27.818h65.454z" fill="#d1ffff"/>
  </g>
</svg>
