<svg viewBox="0 0 211 169" xmlns="http://www.w3.org/2000/svg" fill-rule="evenodd" clip-rule="evenodd" stroke-linejoin="round" stroke-miterlimit="1.414">
  <path d="M64.75 104.585h-40c-6.564 0-12.859-2.347-17.501-6.525C2.608 93.883 0 88.217 0 82.31V40.291c0-7.653 3.378-14.993 9.391-20.405 6.013-5.411 14.168-8.451 22.671-8.451h63c6.415 0 12.568 2.293 17.104 6.376 4.536 4.082 7.084 9.619 7.084 15.392V49.91h16.875v-2.532c0-3.625 1.6-7.102 4.448-9.665 2.849-2.563 6.712-4.003 10.74-4.003h9.562c9.941 0 18 7.253 18 16.2v1.518c0 8.109-7.303 14.682-16.312 14.682h-7.313v35.437h16.875c5.669 0 11.106 2.027 15.114 5.635 4.009 3.607 6.261 8.501 6.261 13.603v13.162h.562c9.01 0 16.313 6.573 16.313 14.681v5.569c0 7.829-7.052 14.175-15.75 14.175h-6.75c-9.941 0-18-7.253-18-16.2H148.5c-13.669 0-24.75-9.973-24.75-22.275V118.76H84.937c-5.519 0-10.813-1.974-14.716-5.487-2.686-2.417-4.562-5.427-5.471-8.688z" fill="#c1dae3"/>
  <path d="M64.75 93.15h-40c-6.564 0-12.859-2.347-17.501-6.524C2.608 82.448 0 76.783 0 70.875V28.856c0-7.653 3.378-14.993 9.391-20.404C15.404 3.04 23.559 0 32.062 0h63c6.415 0 12.568 2.293 17.104 6.376 4.536 4.082 7.084 9.619 7.084 15.393v16.706h16.875v-2.531c0-3.625 1.6-7.102 4.448-9.666 2.849-2.563 6.712-4.003 10.74-4.003h9.562c9.941 0 18 7.253 18 16.2v1.519c0 8.108-7.303 14.681-16.312 14.681h-7.313v35.437h16.875c5.669.001 11.106 2.027 15.114 5.635 4.009 3.608 6.261 8.501 6.261 13.603v13.162h.562c9.01 0 16.313 6.574 16.313 14.682v5.569c0 7.828-7.052 14.174-15.75 14.175h-6.75c-9.941 0-18-7.253-18-16.2H148.5c-13.669-.001-24.75-9.973-24.75-22.275v-11.138H84.937c-5.519 0-10.813-1.973-14.716-5.486-2.686-2.418-4.562-5.428-5.471-8.689z" fill="#fff"/>
  <clipPath id="a">
    <path d="M64.75 93.15h-40c-6.564 0-12.859-2.347-17.501-6.524C2.608 82.448 0 76.783 0 70.875V28.856c0-7.653 3.378-14.993 9.391-20.404C15.404 3.04 23.559 0 32.062 0h63c6.415 0 12.568 2.293 17.104 6.376 4.536 4.082 7.084 9.619 7.084 15.393v16.706h16.875v-2.531c0-3.625 1.6-7.102 4.448-9.666 2.849-2.563 6.712-4.003 10.74-4.003h9.562c9.941 0 18 7.253 18 16.2v1.519c0 8.108-7.303 14.681-16.312 14.681h-7.313v35.437h16.875c5.669.001 11.106 2.027 15.114 5.635 4.009 3.608 6.261 8.501 6.261 13.603v13.162h.562c9.01 0 16.313 6.574 16.313 14.682v5.569c0 7.828-7.052 14.174-15.75 14.175h-6.75c-9.941 0-18-7.253-18-16.2H148.5c-13.669-.001-24.75-9.973-24.75-22.275v-11.138H84.937c-5.519 0-10.813-1.973-14.716-5.486-2.686-2.418-4.562-5.428-5.471-8.689z"/>
  </clipPath>
  <g clip-path="url(#a)">
    <path d="M63.625 103.275h-40c-6.564 0-12.859-2.347-17.501-6.524C1.483 92.573-1.125 86.908-1.125 81V38.981c0-7.653 3.378-14.993 9.391-20.404 6.013-5.412 14.168-8.452 22.671-8.452h63c6.415 0 12.568 2.293 17.104 6.376 4.536 4.082 7.084 9.619 7.084 15.393V48.6H135v-2.531c0-3.625 1.6-7.102 4.448-9.666 2.849-2.563 6.712-4.003 10.74-4.003h9.562c9.941 0 18 7.253 18 16.2v1.519c0 8.108-7.303 14.681-16.312 14.681h-7.313v35.437H171c5.669.001 11.106 2.027 15.114 5.635 4.009 3.608 6.261 8.501 6.261 13.603v13.162h.562c9.01 0 16.313 6.574 16.313 14.682v5.569c0 7.828-7.052 14.174-15.75 14.175h-6.75c-9.941 0-18-7.253-18-16.2h-21.375c-13.669-.001-24.75-9.973-24.75-22.275V117.45H83.812c-5.519 0-10.813-1.973-14.716-5.486-2.686-2.418-4.562-5.428-5.471-8.689z" fill="#d1ffff"/>
  </g>
</svg>
