<?xml version="1.0" encoding="UTF-8" standalone="no"?><!DOCTYPE svg PUBLIC "-//W3C//DTD SVG 1.1//EN" "http://www.w3.org/Graphics/SVG/1.1/DTD/svg11.dtd"><svg width="100%" height="100%" viewBox="0 0 900 403" version="1.1" xmlns="http://www.w3.org/2000/svg" xmlns:xlink="http://www.w3.org/1999/xlink" xml:space="preserve" style="fill-rule:evenodd;clip-rule:evenodd;stroke-linejoin:round;stroke-miterlimit:1.41421;"><path id="Main-Cloud" d="M794.545,29.455l0,-6.546c0,-6.076 2.682,-11.903 7.456,-16.199c4.774,-4.296 11.248,-6.71 17.999,-6.71c14.651,0 32.939,0 47.273,0c6.268,0 12.28,2.241 16.713,6.231c4.433,3.989 6.923,9.4 6.923,15.042c0,11.072 0,24.491 0,35.182c0,4.99 -2.203,9.777 -6.124,13.306c-3.921,3.529 -9.239,5.512 -14.785,5.512l-2.727,0l0,30.272c0,13.671 -6.034,26.782 -16.775,36.449c-10.741,9.666 -25.308,15.097 -40.498,15.097l-26.364,0l0,58.909l49.091,0c37.154,0 67.273,27.107 67.273,60.545c0,17.229 0,36.163 0,54c0,39.765 -35.817,72 -80,72c-52.318,0 -120.119,0 -170.909,0c-40.166,0 -72.727,-29.305 -72.727,-65.454l0,-21.273l-108.182,0c-19.53,0 -38.259,-6.982 -52.069,-19.411c-13.809,-12.428 -21.568,-29.285 -21.568,-46.862l0,-9l-10.909,0l0,4.091c0,10.393 -9.361,18.819 -20.909,18.819c-8.981,0 -19.579,0 -29.091,0c-6.992,0 -13.697,-2.5 -18.642,-6.95c-4.729,-4.257 -7.476,-9.964 -7.705,-15.96l-3.653,0c-4.822,0 -9.446,-1.724 -12.856,-4.792c-2.54,-2.286 -4.25,-5.178 -4.958,-8.298l-73.468,0c-1.183,7.734 -5.139,14.963 -11.342,20.546c-7.502,6.752 -17.676,10.544 -28.285,10.544c-8.358,0 -17.372,0 -26.363,0c-17.119,0 -33.536,-6.12 -45.641,-17.014c-12.105,-10.894 -18.905,-25.67 -18.905,-41.076l0,-10.637l-27.273,0c-14.466,0 -28.34,-5.172 -38.569,-14.378c-10.229,-9.207 -15.976,-21.693 -15.976,-34.713c0,-6.979 0,-13.979 0,-20.454c0,-8.029 3.544,-15.729 9.852,-21.406c2.954,-2.659 6.401,-4.772 10.148,-6.268l0,-14.054c0,-9.981 4.406,-19.554 12.248,-26.612c7.843,-7.059 18.479,-11.024 29.57,-11.024l0,-12.273c0,-7.16 3.161,-14.028 8.787,-19.092c5.626,-5.063 13.257,-7.908 21.213,-7.908c10.92,0 23.149,0 33.637,0c14.058,0 25.454,10.257 25.454,22.909l0,11.455l44.546,0c8.438,0 16.531,3.017 22.498,8.387c5.967,5.371 9.32,12.655 9.32,20.249l0,4.026c4.107,-1.034 8.386,-1.571 12.727,-1.571l58.182,0l0,-0.818c0,-7.682 6.919,-13.909 15.454,-13.909c2.599,0 5.37,0 8.182,0c11.502,0 21.446,6.008 26.166,14.727l252.016,0l0,-3.273c0,-8.133 7.326,-14.727 16.364,-14.727c7.694,0 17.012,0 25.454,0c11.818,0 21.609,7.805 23.358,18l33.006,0l0,-9.818c0,-15.364 13.838,-27.818 30.909,-27.818l65.454,0Z" style="fill:#fff;"/><clipPath id="_clip1"><path d="M794.545,29.455l0,-6.546c0,-6.076 2.682,-11.903 7.456,-16.199c4.774,-4.296 11.248,-6.71 17.999,-6.71c14.651,0 32.939,0 47.273,0c6.268,0 12.28,2.241 16.713,6.231c4.433,3.989 6.923,9.4 6.923,15.042c0,11.072 0,24.491 0,35.182c0,4.99 -2.203,9.777 -6.124,13.306c-3.921,3.529 -9.239,5.512 -14.785,5.512l-2.727,0l0,30.272c0,13.671 -6.034,26.782 -16.775,36.449c-10.741,9.666 -25.308,15.097 -40.498,15.097l-26.364,0l0,58.909l49.091,0c37.154,0 67.273,27.107 67.273,60.545c0,17.229 0,36.163 0,54c0,39.765 -35.817,72 -80,72c-52.318,0 -120.119,0 -170.909,0c-40.166,0 -72.727,-29.305 -72.727,-65.454l0,-21.273l-108.182,0c-19.53,0 -38.259,-6.982 -52.069,-19.411c-13.809,-12.428 -21.568,-29.285 -21.568,-46.862l0,-9l-10.909,0l0,4.091c0,10.393 -9.361,18.819 -20.909,18.819c-8.981,0 -19.579,0 -29.091,0c-6.992,0 -13.697,-2.5 -18.642,-6.95c-4.729,-4.257 -7.476,-9.964 -7.705,-15.96l-3.653,0c-4.822,0 -9.446,-1.724 -12.856,-4.792c-2.54,-2.286 -4.25,-5.178 -4.958,-8.298l-73.468,0c-1.183,7.734 -5.139,14.963 -11.342,20.546c-7.502,6.752 -17.676,10.544 -28.285,10.544c-8.358,0 -17.372,0 -26.363,0c-17.119,0 -33.536,-6.12 -45.641,-17.014c-12.105,-10.894 -18.905,-25.67 -18.905,-41.076l0,-10.637l-27.273,0c-14.466,0 -28.34,-5.172 -38.569,-14.378c-10.229,-9.207 -15.976,-21.693 -15.976,-34.713c0,-6.979 0,-13.979 0,-20.454c0,-8.029 3.544,-15.729 9.852,-21.406c2.954,-2.659 6.401,-4.772 10.148,-6.268l0,-14.054c0,-9.981 4.406,-19.554 12.248,-26.612c7.843,-7.059 18.479,-11.024 29.57,-11.024l0,-12.273c0,-7.16 3.161,-14.028 8.787,-19.092c5.626,-5.063 13.257,-7.908 21.213,-7.908c10.92,0 23.149,0 33.637,0c14.058,0 25.454,10.257 25.454,22.909l0,11.455l44.546,0c8.438,0 16.531,3.017 22.498,8.387c5.967,5.371 9.32,12.655 9.32,20.249l0,4.026c4.107,-1.034 8.386,-1.571 12.727,-1.571l58.182,0l0,-0.818c0,-7.682 6.919,-13.909 15.454,-13.909c2.599,0 5.37,0 8.182,0c11.502,0 21.446,6.008 26.166,14.727l252.016,0l0,-3.273c0,-8.133 7.326,-14.727 16.364,-14.727c7.694,0 17.012,0 25.454,0c11.818,0 21.609,7.805 23.358,18l33.006,0l0,-9.818c0,-15.364 13.838,-27.818 30.909,-27.818l65.454,0Z"/></clipPath><g clip-path="url(#_clip1)"><path id="Main-Cloud1" d="M794.545,52.364l0,-6.546c0,-6.076 2.682,-11.903 7.456,-16.199c4.774,-4.296 11.248,-6.71 17.999,-6.71c14.651,0 32.939,0 47.273,0c6.268,0 12.28,2.241 16.713,6.231c4.433,3.989 6.923,9.4 6.923,15.042c0,11.072 0,24.491 0,35.182c0,4.991 -2.203,9.777 -6.124,13.306c-3.921,3.529 -9.239,5.512 -14.785,5.512l-2.727,0l0,30.273c0,13.67 -6.034,26.781 -16.775,36.448c-10.741,9.666 -25.308,15.097 -40.498,15.097l-26.364,0l0,58.909l49.091,0c37.154,0 67.273,27.107 67.273,60.546c0,17.228 0,36.162 0,54c0,39.764 -35.817,72 -80,72c-52.318,0 -120.119,0 -170.909,0c-40.166,0 -72.727,-29.305 -72.727,-65.455l0,-21.273l-108.182,0c-19.53,0 -38.259,-6.982 -52.069,-19.411c-13.809,-12.428 -21.568,-29.285 -21.568,-46.861l0,-9l-10.909,0l0,4.09c0,10.393 -9.361,18.819 -20.909,18.819c-8.981,0 -19.579,0 -29.091,0c-6.992,0 -13.697,-2.5 -18.642,-6.95c-4.729,-4.256 -7.476,-9.964 -7.705,-15.959l-3.653,0c-4.822,0 -9.446,-1.724 -12.856,-4.793c-2.54,-2.286 -4.25,-5.178 -4.958,-8.298l-73.468,0c-1.183,7.734 -5.139,14.963 -11.342,20.546c-7.502,6.752 -17.676,10.545 -28.285,10.545c-8.358,0 -17.372,0 -26.363,0c-17.119,0 -33.536,-6.121 -45.641,-17.015c-12.105,-10.894 -18.905,-25.67 -18.905,-41.076l0,-10.637l-27.273,0c-14.466,0 -28.34,-5.172 -38.569,-14.378c-10.229,-9.206 -15.976,-21.693 -15.976,-34.713c0,-6.978 0,-13.979 0,-20.454c0,-8.029 3.544,-15.729 9.852,-21.406c2.954,-2.659 6.401,-4.772 10.148,-6.268l0,-14.053c0,-9.982 4.406,-19.555 12.248,-26.613c7.843,-7.059 18.479,-11.024 29.57,-11.024l0,-12.273c0,-7.16 3.161,-14.028 8.787,-19.091c5.626,-5.064 13.257,-7.909 21.213,-7.909c10.92,0 23.149,0 33.637,0c14.058,0 25.454,10.257 25.454,22.91l0,11.454l44.546,0c8.438,0 16.531,3.017 22.498,8.387c5.967,5.371 9.32,12.655 9.32,20.249l0,4.026c4.107,-1.034 8.386,-1.571 12.727,-1.571l58.182,0l0,-0.818c0,-7.682 6.919,-13.909 15.454,-13.909c2.599,0 5.37,0 8.182,0c11.502,0 21.446,6.008 26.166,14.727l252.016,0l0,-3.273c0,-8.133 7.326,-14.727 16.364,-14.727c7.694,0 17.012,0 25.454,0c11.818,0 21.609,7.805 23.358,18l33.006,0l0,-9.818c0,-15.364 13.838,-27.818 30.909,-27.818l65.454,0Z" style="fill:#d1ffff;"/></g></svg>