<svg viewBox="0 0 499 808" xmlns="http://www.w3.org/2000/svg" fill-rule="evenodd" clip-rule="evenodd" stroke-linecap="round" stroke-miterlimit="1.5">
  <path d="M242.548 794.096s-13.9 30.592-36.642-.52c-26.944-321.553 48.341-622.537 48.341-622.537 1.33-5.089 17.94-42.37 18.729 1.211 0 0-66.253 299.773-30.327 621.326" fill="#9a8059"/>
  <clipPath id="a">
    <path d="M242.548 794.096s-13.9 30.592-36.642-.52c-26.944-321.553 48.341-622.537 48.341-622.537 1.33-5.089 17.94-42.37 18.729 1.211 0 0-66.253 299.773-30.327 621.326"/>
  </clipPath>
  <g clip-path="url(#a)">
    <path d="M265.477 245.133l-3.039-9.876-4.938 7.217-3.072-7.217-7.184 4.178-1.519-6.837-3.848 4.178-1.647-6.869-4.381 4.461M260.103 267.861l-3.89 5.445-2.028-6.223-5.284 5.095-1.556-7.779-4.356 6.224-2.023-7.002-6.067 4.668.311-7.313-4.357 3.89M252.917 310.189l-2.8-5.912-5.29 4.512-3.734-6.379-6.379 5.601-2.178-7.779-2.956 3.89-2.956-5.913M221.227 332.671l2.489 6.846 3.267-4.357 2.645 4.979 5.29-4.512.311 4.979 4.668-4.512 1.089 4.512 4.823-3.423 3.578 5.601M245.459 378.422l-3.734-4.356-4.512 3.267-4.356-4.823-3.423 2.334-4.045-3.267-4.823 2.489-3.268-4.201M213.029 404.862l1.401 6.69 4.045-3.268 1.711 4.512 5.601-3.889 4.045 5.601 4.046-4.201 3.734 3.267 3.578-4.512M237.66 456.71l-3.734 4.512-3.423-3.423-7.312 2.956-2.334-6.223-5.756 4.511-4.046-3.267-.622 2.645-3.111-5.29M234.617 513.76l-3.112 2.801-3.734-2.957-4.668 4.046-7.001-5.757-7.312 4.668-1.712-6.224-3.422 1.4M233.084 580.033l-4.045 4.357-4.356-3.268-3.423 5.135-5.757-5.913-6.845 2.49-2.023-3.579-3.889 2.645-.778-3.889-3.423 1.711M234.305 642.544l-4.2 4.201-6.068-4.201-3.423 4.668-7.623-5.445-4.046 4.045-4.823-6.69-6.223 2.645M236.484 704.406l-5.29-5.757-3.112 6.846-4.045-7.001-2.645 7.779-3.578-6.379-4.046 3.578-2.956-2.956-3.578 4.668-3.112-5.912-3.423 1.867-1.711-2.645M240.612 755.115l-2.489 3.734-6.223-5.913-8.713 4.357-4.979-5.912-5.445 4.356-4.823-4.201-3.423.934-2.334-2.49" fill="none" stroke="#605340" stroke-width="1.17"/>
    <path d="M273.922 148.674c-13.994-14.611-103.25 472.716-46.228 667.875 53.879 184.401 25.966-455.327 25.966-455.327 1.975-8.562 33.637-6.068 20.262-212.548z" fill-opacity=".152"/>
  </g>
  <path d="M268.133 122.077C261.895 85.218 233.588 33.901 133.605 0c0 0-1.708 24.953 31.36 40.601 0 0-8.508 17.245-23.402 9.028 0 0 26.793 24.521 51.174 14.023 0 0 6.322 17.741-2 23.252-37.191-19.059-85.253-29.075-139.636-11.032 0 0 28.292 21.94 55.437 17.004 0 0-20.042 11.969-17.516 29.026 0 0 47.065 3.79 50.54-7.581 0 0 22.814 5.013 16.033 23.821C91.307 133.113 18.407 154.876 0 270.645c0 0 33.664-16.771 50.445-50.826 0 0 24.184-16.78 22.21 36.523h.114s16.666-10.365 25.057-59.226c0 0 24.184-.987 24.677 29.613.494 30.6 17.274-2.961 20.729-44.419 0 0 29.613-.075 28.132 35.004l.054 2.505s17.221-14.806 16.234-43.432h.04s25.13-4.426 25.624 34.063c0 0 16.287-3.957 19.248-28.14 0 0 18.262-1.465 18.755 28.14 0 0 3.639-2.495 7.431-6.861 5.813 14.011 18.837 19.522 18.837 19.522 2.961-21.222 21.565-18.261 21.565-18.261h.151c-12.833 33.068 4.442 70.577 4.442 70.577 4.442-34.548 44.334-38.496 44.334-38.496h.579c-14.807 28.132 4.442 65.642 4.442 65.642 5.922-28.133 36.37-22.21 36.37-22.21h.646c-4.929 53.228 19.96 74.958 20.03 75.019h1.686c-8.884-47.874 20.235-52.809 20.235-52.809 9.378 43.925 49.849 71.071 50.07 70.859-12.188-116.348-62.937-167.906-112.776-189.993 2.88-7.629 7.643-13.932 7.643-13.932 14.807 24.524 56.265 17.428 56.265 17.428-10.858-4.442-7.404-35.042-7.404-35.042 48.862 19.742 72.295-6.865 72.295-6.865-51.014-27.555-93.732-35.011-128.377-32.21-29.429-6.486-24.978-29.358-24.978-29.358l.35-1.332c20.49 10.843 42.732-6.136 42.732-6.136-17.968-3.154-13.776-22.98-13.776-22.98 27.759 6.757 36.699-19.361 36.699-19.361-64.435-30.761-119.268 37.523-142.677 88.426zm-97.241 17.761c2.826-1.592 5.774-4.132 8.627-8.065 0 0 8.369 3.476 10.146 11.415a278.067 278.067 0 0 0-18.773-3.35zm144.783-12.837c1.535-4.666 3.271-8.036 3.271-8.036a50.904 50.904 0 0 0 9.087 2.916 156.426 156.426 0 0 0-12.358 5.12zM194.696 88.989l28.706 8.984s-.826 3.408-3.333 7.203a210.537 210.537 0 0 0-25.373-16.187z" fill="#006b14"/>
  <clipPath id="b">
    <path d="M268.133 122.077C261.895 85.218 233.588 33.901 133.605 0c0 0-1.708 24.953 31.36 40.601 0 0-8.508 17.245-23.402 9.028 0 0 26.793 24.521 51.174 14.023 0 0 6.322 17.741-2 23.252-37.191-19.059-85.253-29.075-139.636-11.032 0 0 28.292 21.94 55.437 17.004 0 0-20.042 11.969-17.516 29.026 0 0 47.065 3.79 50.54-7.581 0 0 22.814 5.013 16.033 23.821C91.307 133.113 18.407 154.876 0 270.645c0 0 33.664-16.771 50.445-50.826 0 0 24.184-16.78 22.21 36.523h.114s16.666-10.365 25.057-59.226c0 0 24.184-.987 24.677 29.613.494 30.6 17.274-2.961 20.729-44.419 0 0 29.613-.075 28.132 35.004l.054 2.505s17.221-14.806 16.234-43.432h.04s25.13-4.426 25.624 34.063c0 0 16.287-3.957 19.248-28.14 0 0 18.262-1.465 18.755 28.14 0 0 3.639-2.495 7.431-6.861 5.813 14.011 18.837 19.522 18.837 19.522 2.961-21.222 21.565-18.261 21.565-18.261h.151c-12.833 33.068 4.442 70.577 4.442 70.577 4.442-34.548 44.334-38.496 44.334-38.496h.579c-14.807 28.132 4.442 65.642 4.442 65.642 5.922-28.133 36.37-22.21 36.37-22.21h.646c-4.929 53.228 19.96 74.958 20.03 75.019h1.686c-8.884-47.874 20.235-52.809 20.235-52.809 9.378 43.925 49.849 71.071 50.07 70.859-12.188-116.348-62.937-167.906-112.776-189.993 2.88-7.629 7.643-13.932 7.643-13.932 14.807 24.524 56.265 17.428 56.265 17.428-10.858-4.442-7.404-35.042-7.404-35.042 48.862 19.742 72.295-6.865 72.295-6.865-51.014-27.555-93.732-35.011-128.377-32.21-29.429-6.486-24.978-29.358-24.978-29.358l.35-1.332c20.49 10.843 42.732-6.136 42.732-6.136-17.968-3.154-13.776-22.98-13.776-22.98 27.759 6.757 36.699-19.361 36.699-19.361-64.435-30.761-119.268 37.523-142.677 88.426zm-97.241 17.761c2.826-1.592 5.774-4.132 8.627-8.065 0 0 8.369 3.476 10.146 11.415a278.067 278.067 0 0 0-18.773-3.35zm144.783-12.837c1.535-4.666 3.271-8.036 3.271-8.036a50.904 50.904 0 0 0 9.087 2.916 156.426 156.426 0 0 0-12.358 5.12zM194.696 88.989l28.706 8.984s-.826 3.408-3.333 7.203a210.537 210.537 0 0 0-25.373-16.187z"/>
  </clipPath>
  <g clip-path="url(#b)">
    <path d="M268.011 121.786c7.945-3.644-20.269-97.381-134.832-122.486l-.009-.103S243.989 55.08 255.463 120.425l.028-.172c-4.48 7.593-35.472-15.309-35.472-15.309l.262-.189s-50.875-39.207-112.175-39.051h-.155s84.145 33.916 111.797 83.144l-.017-.105c-25.081-2.604-83.931 2.783-129.389 18.361-27.74 9.507-71.499 61.918-91.286 104.966l.062-.203s299.444-5.774 306.433-83.261l-.374-.138s146.377 17.786 124.498 128.395l-.043-.161 48.774 70.9 28.108-25.449-7.778-217.272.073.103-88.235-111.292s-37.411-28.936-142.247 88.435" fill-opacity=".275"/>
  </g>
  <circle cx="224.409" cy="192.079" r="24.896" fill="#543e1d"/>
  <clipPath id="c">
    <circle cx="224.409" cy="192.079" r="24.896"/>
  </clipPath>
  <g clip-path="url(#c)">
    <path d="M200.888 203.761s32.734-8.77 22.638-43.135c-10.095-34.366 31 14.174 31 14.174l-4.996 45.685-22.843 2.447-16.417-4.793-9.382-14.378z" fill-opacity=".063"/>
    <circle cx="219.861" cy="172.824" r="1.402" fill="#675437"/>
    <circle cx="214.571" cy="180.281" r=".829" fill="#675437"/>
  </g>
  <circle cx="261.455" cy="208.212" r="24.896" fill="#44341a"/>
  <clipPath id="d">
    <circle cx="261.455" cy="208.212" r="24.896"/>
  </clipPath>
  <g clip-path="url(#d)">
    <circle cx="252.811" cy="194.812" r="2.358" fill="#534025"/>
    <circle cx="248.605" cy="203.735" r="1.338" fill="#675437"/>
  </g>
</svg>
