<?xml version="1.0" encoding="UTF-8" standalone="no"?><!DOCTYPE svg PUBLIC "-//W3C//DTD SVG 1.1//EN" "http://www.w3.org/Graphics/SVG/1.1/DTD/svg11.dtd"><svg width="100%" height="100%" viewBox="0 0 593 184" version="1.1" xmlns="http://www.w3.org/2000/svg" xmlns:xlink="http://www.w3.org/1999/xlink" xml:space="preserve" style="fill-rule:evenodd;clip-rule:evenodd;stroke-linejoin:round;stroke-miterlimit:1.41421;"><g id="PeterLuisaSign"><g id="Sides"><clipPath id="_clip1"><rect x="0" y="33.019" width="72.997" height="78.27"/></clipPath><g clip-path="url(#_clip1)"><path d="M51.472,33.019l19.634,48.559l-43.778,29.712l16.812,-48.376l-44.14,-29.854l51.472,-0.041Zm64.088,78.2l-1.127,-0.762l0.754,-0.304l0.373,1.066Z" style="fill:#9b7b2e;"/></g><clipPath id="_clip2"><rect x="519.653" y="33.019" width="72.997" height="78.27"/></clipPath><g clip-path="url(#_clip2)"><path d="M541.178,33.019l-19.635,48.559l43.778,29.712l-16.812,-48.376l44.14,-29.854l-51.471,-0.041Zm-64.089,78.2l1.127,-0.762l-0.754,-0.304l-0.373,1.066Z" style="fill:#9b7b2e;"/></g><path d="M541.195,29.21c0,-5.008 -4.066,-9.074 -9.074,-9.074l-18.149,0c-5.008,0 -9.074,4.066 -9.074,9.074l0,72.595c0,5.008 4.066,9.074 9.074,9.074l18.149,0c5.008,0 9.074,-4.066 9.074,-9.074l0,-72.595Z" style="fill:#a67d1c;"/><path d="M87.479,29.21c0,-5.008 -4.066,-9.074 -9.075,-9.074l-18.148,0c-5.009,0 -9.075,4.066 -9.075,9.074l0,72.595c0,5.008 4.066,9.074 9.075,9.074l18.148,0c5.009,0 9.075,-4.066 9.075,-9.074l0,-72.595Z" style="fill:#a67d1c;"/><path d="M541.195,21.416c0,-5.008 -4.066,-9.075 -9.074,-9.075l-18.149,0c-5.008,0 -9.074,4.067 -9.074,9.075l0,72.594c0,5.009 4.066,9.075 9.074,9.075l18.149,0c5.008,0 9.074,-4.066 9.074,-9.075l0,-72.594Z" style="fill:#cc9f33;"/><path d="M87.479,21.416c0,-5.008 -4.066,-9.075 -9.075,-9.075l-18.148,0c-5.009,0 -9.075,4.067 -9.075,9.075l0,72.594c0,5.009 4.066,9.075 9.075,9.075l18.148,0c5.009,0 9.075,-4.066 9.075,-9.075l0,-72.594Z" style="fill:#cc9f33;"/></g><path d="M199.206,75.103c0,-1.627 -1.321,-2.949 -2.949,-2.949l-5.897,0c-1.628,0 -2.949,1.322 -2.949,2.949l0,47.404c0,1.627 1.321,2.948 2.949,2.948l5.897,0c1.628,0 2.949,-1.321 2.949,-2.948l0,-47.404Z" style="fill:#b48c2c;"/><path d="M396.007,80.247c0,-1.627 -1.321,-2.949 -2.948,-2.949l-5.898,0c-1.627,0 -2.948,1.322 -2.948,2.949l0,47.403c0,1.628 1.321,2.949 2.948,2.949l5.898,0c1.627,0 2.948,-1.321 2.948,-2.949l0,-47.403Z" style="fill:#b48c2c;"/><g id="Date"><path d="M438.629,122.692c0,-6.099 -4.952,-11.051 -11.051,-11.051l-271.738,0c-6.099,0 -11.051,4.952 -11.051,11.051l0,50.011c0,6.099 4.952,11.051 11.051,11.051l271.738,0c6.099,0 11.051,-4.952 11.051,-11.051l0,-50.011Z" style="fill:#b48c2c;"/><path d="M438.629,115c0,-6.1 -4.952,-11.051 -11.051,-11.051l-271.738,0c-6.099,0 -11.051,4.951 -11.051,11.051l0,50.011c0,6.099 4.952,11.051 11.051,11.051l271.738,0c6.099,0 11.051,-4.952 11.051,-11.051l0,-50.011Z" style="fill:#ffcd56;"/><text x="187.298px" y="154.154px" style="font-family:'PoorRichard-Regular', 'Poor Richard', serif;font-size:38.717px;">July 21st, 2018</text></g><g id="Names"><path d="M523.913,18.653c0,-7.125 -5.785,-12.91 -12.909,-12.91l-427.899,0c-7.125,0 -12.909,5.785 -12.909,12.91l0,64.925c0,7.124 5.784,12.909 12.909,12.909l427.899,0c7.124,0 12.909,-5.785 12.909,-12.909l0,-64.925Z" style="fill:#dcb864;"/><path d="M523.913,12.909c0,-7.125 -5.785,-12.909 -12.909,-12.909l-427.899,0c-7.125,0 -12.909,5.784 -12.909,12.909l0,64.925c0,7.125 5.784,12.909 12.909,12.909l427.899,0c7.124,0 12.909,-5.784 12.909,-12.909l0,-64.925Z" style="fill:#f7d279;"/><text x="110.184px" y="68.747px" style="font-family:'PoorRichard-Regular', 'Poor Richard', serif;font-size:71.61px;">Peter &amp; Luisa</text></g></g></svg>