<svg xmlns="http://www.w3.org/2000/svg" viewBox="0 0 1090 293" fill-rule="evenodd" clip-rule="evenodd" stroke-linejoin="round" stroke-miterlimit="1.5">
  <path d="M262.76 159.366l-104.559-45.803-.125 54.367 104.684-8.564z" fill="#e2e1dd"/>
  <path d="M212.854 162.976L76.488.167 34.991 0l36.461 167.93 141.402-4.954z" fill="#7f1322"/>
  <clipPath id="a">
    <path d="M212.854 162.976L76.488.167 34.991 0l36.461 167.93 141.402-4.954z"/>
  </clipPath>
  <g clip-path="url(#a)">
    <path d="M129.475 108.052c-4.999-9.01-14.998-9.011-19.998-4.506-5 4.504-5.001 13.514-.002 22.525 3.499 6.758 12.498 13.516 19.997 18.022 7.5-4.505 16.5-11.261 20-18.019 5-9.009 5.001-18.019.002-22.525-4.999-4.505-14.999-4.506-19.999 4.503zM109.213 78.692c-1.086-1.957-3.259-1.958-4.345-.979-1.087.979-1.087 2.936-.001 4.894.761 1.468 2.716 2.937 4.345 3.916 1.63-.979 3.585-2.447 4.346-3.915 1.086-1.958 1.086-3.915 0-4.894-1.086-.979-3.259-.979-4.345.978zM104.053 91.886c-1.511-2.724-4.535-2.724-6.047-1.362-1.512 1.362-1.512 4.086 0 6.811 1.058 2.043 3.779 4.087 6.046 5.449 2.268-1.362 4.989-3.405 6.048-5.448 1.512-2.724 1.512-5.449 0-6.811-1.512-1.363-4.535-1.363-6.047 1.361zM85.224 71.358c-.722-1.428-2.165-1.428-2.887-.714-.721.714-.721 2.142 0 3.57.505 1.071 1.804 2.142 2.887 2.856 1.082-.714 2.381-1.784 2.887-2.855.721-1.428.721-2.856 0-3.57-.722-.714-2.165-.714-2.887.713zM94.324 57.431c-.536-.967-1.609-.967-2.146-.484-.536.483-.536 1.45 0 2.417.376.725 1.341 1.45 2.146 1.934.804-.484 1.77-1.209 2.146-1.934.536-.967.536-1.933 0-2.417-.537-.483-1.609-.483-2.146.484zM86.68 59.765c-.537-.967-1.61-.967-2.146-.484-.537.483-.537 1.45 0 2.417.375.725 1.341 1.45 2.145 1.934.805-.484 1.771-1.209 2.146-1.934.537-.967.537-1.933 0-2.417-.536-.483-1.609-.483-2.145.484zM89.228 51.458c-.537-.967-1.609-.967-2.146-.484-.536.484-.537 1.45 0 2.417.375.725 1.341 1.45 2.145 1.934.805-.483 1.771-1.208 2.146-1.933.537-.967.537-1.934.001-2.417-.537-.484-1.61-.484-2.146.483zM74.197 39.798c-.329-.593-.987-.593-1.316-.296-.329.296-.329.889 0 1.482.23.445.823.89 1.316 1.187.494-.297 1.086-.742 1.317-1.186.329-.593.329-1.186 0-1.483-.329-.297-.987-.297-1.317.296zM69.605 42.825c-.329-.593-.987-.593-1.316-.297-.329.297-.329.89 0 1.483.23.445.822.89 1.316 1.186.494-.296 1.086-.741 1.316-1.186.329-.593.33-1.186 0-1.482-.329-.297-.987-.297-1.316.296zM65.437 34.126c-.262-.472-.785-.472-1.047-.236-.262.236-.262.707 0 1.179.183.354.654.708 1.047.944.392-.236.864-.59 1.047-.944.262-.471.262-.943 0-1.179-.262-.236-.785-.236-1.047.236zM63.192 20.716c-.211-.38-.633-.381-.844-.19-.211.19-.211.57 0 .95.148.285.527.57.844.76.316-.19.696-.475.843-.76.211-.38.211-.76 0-.95-.211-.19-.632-.19-.843.19z" fill="#bd7873"/>
    <path d="M48.252-7.17L98.004 167l-30.96-.902L28.823-4.622 48.252-7.17z" fill="#59101a"/>
  </g>
  <path d="M973.845 164.502c-238.795-7.899-480.595-8.084-721.911-9.511l-179.916 6.8-13.278 29.62c83.891 22.464 167.935 42.355 252.255 57.583 150.707 9.597 300.094 9.54 449.519 9.764h223.23c10.199.957 62.881-.963 64.878-1.37 4.733-.966 21.122-.132 39.076-13.527 0 0 5.177-2.755 0-8.016 0 0-4.263-11.97-76.345-57.632 0 0-21.363-14.188-37.508-13.699" fill="#f7f6f2"/>
  <clipPath id="b">
    <path d="M973.845 164.502c-238.795-7.899-480.595-8.084-721.911-9.511l-179.916 6.8-13.278 29.62c83.891 22.464 167.935 42.355 252.255 57.583 150.707 9.597 300.094 9.54 449.519 9.764h223.23c10.199.957 62.881-.963 64.878-1.37 4.733-.966 21.122-.132 39.076-13.527 0 0 5.177-2.755 0-8.016 0 0-4.263-11.97-76.345-57.632 0 0-21.363-14.188-37.508-13.699"/>
  </clipPath>
  <g clip-path="url(#b)">
    <path d="M1097.14 241.495l-49.363 27.186-847.925-2.211-95.646-35.77c-347.589 2.777 773.48-5.783 992.934 10.795z" fill="#b1b1b1"/>
    <path d="M1011.82 182.747l14.838.171 27.446 17.658-28.99-.086-13.294-17.743z" fill="#82accd"/>
    <path d="M1012.27 182.955l14.445.167 26.719 17.2-28.222-.083-12.942-17.284z" fill="#89afcd"/>
    <clipPath id="c">
      <path d="M1012.27 182.955l14.445.167 26.719 17.2-28.222-.083-12.942-17.284z"/>
    </clipPath>
    <g clip-path="url(#c)" fill="#fff">
      <path d="M1037.22 196.42l.159.001.16.002.16.003.159.004.129.003.03.001.159.008.159.008.242.013.073.005.312.025.119.01.19.021.266.03.039.005.299.042.113.016.181.03.569.097.129.022.413.084.258.051.162.032.087.019.24.052.231.048.111.023.098.019.011.003.105.023.103.023.1.021.097.02.095.018.091.017.088.015.085.013.081.012.078.011.075.008.071.007.067.005.064.003.048.001.011.001.057.001h.026l.025-.001.025-.001.023-.002.024-.002-.003.001.023-.003.022-.004-.003.001.021-.004.02-.005-.003.002.018-.005.018-.006-.003.002.018-.007-.003.002.017-.008-.003.002.016-.008-.003.003.015-.01-.003.003.014-.01-.003.004.013-.011-.003.004.012-.012-.002.004.011-.012-.003.004.01-.013-.001.004.008-.013-.001.004.008-.014-.001.004.006-.015-.001.004.006-.016v.003l.004-.016v.003l.003-.017v.003l.002-.018.001.002.001-.018v.002-.02.002l-.001-.02v.001l-.002-.021v.001l-.004-.021h.001l-.005-.022-.006-.023-.007-.023-.001-.004-.007-.021.014.017.002.003.016.02.013.021.013.02.011.02.01.019.008.02.007.02.006.02.004.02.003.02.001.02v.02l-.003.02-.003.02-.006.02-.007.019-.009.019-.01.018-.012.018-.013.018-.015.017-.016.016-.017.016-.018.015-.019.015-.021.014-.021.014-.023.014-.023.013-.025.012-.025.013-.027.012-.028.011-.028.012-.03.011-.062.021-.013.004-.053.015-.07.018-.073.016-.077.016-.081.014-.084.014-.088.013-.09.013-.094.011-.098.011-.1.011-.103.009-.107.01-.109.008-.112.009h-.011l-.103.004-.117.004-.241.007-.251.005-.091.002-.167-.002-.267-.004-.422-.007-.131-.007-.576-.028-.182-.009-.113-.008-.299-.022-.038-.002-.263-.024-.187-.016-.117-.013-.305-.033-.071-.007-.236-.028-.153-.017-.154-.017-.03-.003-.124-.016-.154-.018-.153-.018-.154-.017-.154-.016-.153-.016-.153-.014-.152-.014-.123-.01-.029-.003-.152-.014-.15-.012-.151-.012-.149-.011-.148-.009-.148-.008-.147-.007-.145-.005-.145-.004-.088-.002-.055-.001-.142-.003h-.28l-.138.003-.136.004-.135.006-.133.007-.131.009-.129.012-.128.013-.046.005-.016.002-.063.007-.062.008-.061.008-.061.009-.061.009-.059.01-.06.01-.058.011-.059.011-.057.012-.057.013-.057.013-.056.013-.055.015-.054.014-.054.016-.054.015-.052.017-.052.017-.052.018-.05.018-.051.019-.049.019-.049.021-.048.02-.047.022-.047.022-.046.022-.045.024-.044.024-.044.024-.043.026-.042.026-.042.027-.041.027-.04.028-.039.029-.039.03-.037.03-.037.032-.037.032-.035.032-.035.034-.034.034-.033.035-.032.036-.032.037-.031.037-.03.039-.029.039-.028.04-.027.041-.027.042-.025.043-.025.044-.024.045-.023.046-.022.047-.021.048-.02.049-.018.05-.018.051-.017.052-.016.053-.004.014-.011.04.004-.042.001-.014.007-.055.008-.055.009-.054.011-.053.011-.053.013-.052.015-.052.015-.051.016-.05.018-.05.019-.049.02-.049.022-.047.022-.048.024-.046.024-.047.026-.045.027-.045.029-.044.014-.022.015-.022.031-.043.031-.042.033-.041.034-.041.035-.041.036-.039.037-.04.038-.038.038-.038.04-.037.041-.037.042-.035.043-.036.043-.035.045-.034.046-.033.046-.033.047-.032.048-.032.049-.031.05-.03.05-.03.052-.03.052-.028.053-.028.054-.028.054-.027.055-.027.056-.025.057-.026.057-.025.058-.024.059-.024.059-.023.06-.023.061-.022.061-.022.062-.021.063-.02.063-.021.064-.019.064-.02.065-.018.065-.019.018-.004.049-.013.133-.034.136-.031.137-.03.14-.028.141-.026.143-.025.145-.023.146-.022.148-.02.149-.019.057-.007.093-.01.152-.014.152-.014.154-.012.155-.011.155-.009.157-.009.157-.007.157-.007.158-.005.031-.001.128-.002.159-.001h.319z"/>
      <path d="M1033.19 195.746l.01.008.014.013.013.014.011.014.01.015.009.016.007.016.006.017.004.018.003.018.001.018v.019l-.001.019-.003.019-.004.02-.003.011-.003.009-.008.019-.008.02-.009.019-.011.02-.012.02-.012.02-.014.02-.014.021-.031.04-.035.041-.037.042-.041.043-.03.031-.013.012-.047.043-.048.043-.052.045-.033.027-.075.06-.115.09-.022.017-.1.072-.125.091-.001.001-.064.045-.049.034-.017.011-.066.044-.032.023-.035.022-.067.044-.025.018-.042.027-.068.045-.037.025-.03.02-.066.046-.066.047-.065.048-.063.05-.034.028-.029.023-.03.025-.031.026-.03.026-.029.026-.029.027-.029.027-.027.028-.028.028-.027.029-.026.029-.005.005-.021.024-.026.029-.024.03-.025.031-.023.031-.023.031-.022.032-.022.033-.02.033-.02.033-.02.034-.008.016-.01.019-.018.035-.017.036-.017.036-.015.037-.015.038-.013.038-.013.039-.012.04-.011.041-.01.041-.008.042-.008.043-.006.043-.006.045-.004.045-.003.046-.002.047v.02l-.001.028v.048l.002.05.003.05.004.051.006.052.006.041.001.012-.004-.012-.014-.038-.016-.05-.015-.05-.014-.05-.012-.049-.01-.049-.006-.028-.003-.021-.008-.048-.006-.048-.004-.048-.004-.047-.002-.048-.001-.046.001-.047.002-.046.003-.046.004-.046.006-.045.007-.045.008-.044.009-.044.01-.044.011-.044.013-.043.007-.023.006-.019.015-.042.016-.042.017-.041.018-.041.019-.041.019-.04.021-.04.021-.039.022-.039.023-.038.019-.032.005-.006.024-.037.026-.037.026-.037.026-.036.028-.035.027-.036.029-.034.029-.035.029-.034.03-.033.028-.03.033-.035.064-.063.065-.062.065-.06.067-.059.03-.025.038-.031.069-.054.043-.033.027-.019.07-.05.035-.024.035-.023.071-.045.018-.011.054-.032.07-.041h.001l.139-.074.11-.056.026-.012.13-.062.084-.04.039-.017.058-.027.055-.026.053-.026.015-.007.035-.017.048-.023.044-.023.04-.023.037-.023.017-.011.016-.011.015-.012.014-.011.013-.011.011-.011.011-.011.011-.013-.002.003.005-.006.005-.006.009-.013-.001.003.008-.012.007-.013-.001.003.006-.013.005-.013-.001.003.004-.014.002-.014.001.003.001-.015v-.015.002l-.001-.015-.003-.016.001.001-.004-.016-.006-.017-.007-.017-.005-.011-.003-.007.005.005z"/>
    </g>
    <path d="M996.952 183.314h14.266l12.661 17.476h-26.837l-.09-17.476z" fill="#95c0e3"/>
    <path d="M997.993 183.957h13.359l11.857 16.365h-25.132l-.084-16.365z" fill="#89afcd"/>
    <clipPath id="d">
      <path d="M997.993 183.957h13.359l11.857 16.365h-25.132l-.084-16.365z"/>
    </clipPath>
    <g clip-path="url(#d)">
      <path d="M1006.72 184.482l.131.002.13.003.128.003.124.005h.003l.125.006.124.006.122.007.12.008.118.009.117.009.114.009.113.011.11.01.108.011.106.011.104.012.2.024.19.025.18.025.169.025.156.024.145.024.132.023.118.022.104.02.09.018.075.015.087.018.015.004.035.008-.035-.004-.016-.001-.088-.007-.076-.006-.092-.006-.105-.007-.12-.006-.133-.006-.146-.005-.157-.005-.169-.003-.18-.002-.19-.001-.2.002-.103.001-.106.003-.107.002-.109.004-.112.004-.113.005-.115.006-.116.006-.118.008-.12.008-.121.009-.125.01-.121.01-.125.011-.125.013-.127.013-.128.015-.129.015-.13.017-.13.018-.131.019-.131.021-.132.021-.132.023-.132.025-.133.026-.133.027-.133.028-.133.03-.132.032-.133.033-.132.034-.131.036-.132.038-.13.039-.131.041-.129.042-.128.045-.112.04-.016.006-.127.046-.126.049-.125.05-.124.053-.061.026-.061.028-.06.027-.061.028-.06.029-.059.029-.059.03-.059.03-.058.03-.058.031-.058.032-.057.032-.057.032-.056.033-.056.033-.055.034-.055.034-.035.023-.019.012-.055.035-.053.035-.053.036-.053.036-.052.037-.051.038-.051.038-.051.038-.05.039-.049.039-.049.04-.048.04-.048.041-.047.042-.047.042-.045.042-.046.043-.044.044-.045.044-.043.044-.043.045-.042.046-.042.046-.041.048-.04.046-.04.047-.04.048-.039.048-.038.049-.038.05-.037.05-.036.051-.036.051-.035.052-.034.053-.033.053-.033.054-.033.054-.031.056-.031.055-.03.057-.029.057-.029.058-.028.058-.018.039-.01.02-.027.06-.027.06-.026.061-.025.062-.024.062-.024.064-.023.064-.045.13-.021.066-.021.067-.02.068-.02.069-.018.07-.014.055-.004.015-.02.071-.019.072-.018.073-.004.018-.016.055-.021.074-.02.076-.01.044-.011.032-.023.077-.023.078-.021.079-.022.081-.02.082-.015.067-.005.017-.025.084-.025.086-.023.087-.023.089-.021.09-.007.028-.018.064-.026.094-.024.095-.024.096-.024.099-.029.1-.028.103-.027.104-.026.105-.026.108-.024.109-.015.068-.012.044-.03.114-.026.105-.003.011-.005-.009-.053-.096-.055-.105-.022-.041-.028-.065-.046-.105-.044-.106-.043-.104-.041-.105-.04-.105-.038-.104v-.001l-.03-.103-.029-.104-.027-.104-.025-.103-.017-.071-.006-.032-.017-.102-.016-.102-.014-.101-.014-.101-.011-.101-.002-.019-.004-.08-.002-.099-.002-.098v-.098l.001-.097.003-.096.001-.041.005-.055.011-.094.011-.094.009-.07.004-.023.018-.091.019-.09.02-.09.005-.02.018-.068.025-.087.026-.087.027-.085.028-.084.029-.084.03-.083.002-.003.03-.078.033-.081.034-.079.035-.079.036-.078.037-.076.038-.076.039-.075.014-.026.026-.048.042-.073.042-.071.043-.071.044-.07.045-.069.046-.068.046-.067.047-.066.048-.065.049-.064.049-.063.051-.062.051-.062.051-.06.053-.059.052-.059.054-.058.054-.056.055-.056.055-.054.001-.001.056-.054.058-.052.057-.052.059-.051.059-.05.059-.049.06-.048.06-.048.061-.046.061-.046.062-.045.062-.043.063-.044.063-.042.064-.042.063-.04.065-.04.064-.039.065-.039.066-.037.065-.037.066-.036.067-.036.066-.034.024-.012.043-.022.068-.033.068-.032.068-.031.068-.031.068-.03.069-.029.069-.028.069-.028.07-.028.069-.026.07-.026.07-.026.07-.024.07-.024.071-.024.07-.023.072-.022.141-.043.142-.04.143-.038.143-.036.019-.005.124-.029.144-.031.144-.029.144-.027.143-.025.144-.023.144-.021.143-.02.143-.018.143-.016.142-.015.142-.013.141-.012.141-.01.14-.009.139-.007.138-.007.138-.005.136-.003.136-.003.135-.001h.265z" fill="#fff"/>
    </g>
    <path d="M262.25 186.268a.593.593 0 0 1 .6-.584l1.183.016a.59.59 0 0 1 .583.599l-.065 4.989a.592.592 0 0 1-.599.584l-1.183-.016a.592.592 0 0 1-.584-.599l.065-4.989z" fill="#c7c7c7"/>
    <circle cx="256.189" cy="173.232" r=".615" fill="#4b4e57"/>
    <path d="M245.083 166.901a5.706 5.706 0 0 1 5.76-5.647l11.408.114a5.706 5.706 0 0 1 5.647 5.76c-.84 14.747-.973 29.545-.441 44.391a5.707 5.707 0 0 1-5.761 5.647l-11.408-.113a5.707 5.707 0 0 1-5.647-5.761c-1.33-14.817-1.037-29.595.442-44.391z" fill="none" stroke="#c7c7c7" stroke-width="1.59"/>
    <path d="M622.677 185.421c.013-1.641 1.743-2.959 3.86-2.942l7.673.063c2.117.018 3.825 1.364 3.812 3.005-.114 7.683-.098 15.395-.19 23.136-.014 1.64-1.744 2.958-3.861 2.941l-7.673-.063c-2.117-.017-3.825-1.364-3.811-3.004-.146-7.731.032-15.433.19-23.136z" fill="none" stroke="#c5c4c2" stroke-width="1.83"/>
    <path d="M929.943 192.456a.591.591 0 0 1 .599-.584l1.183.015a.593.593 0 0 1 .584.6l-.065 4.988a.592.592 0 0 1-.599.584l-1.184-.015a.592.592 0 0 1-.583-.6l.065-4.988z" fill="#c7c7c7"/>
    <circle cx="940.584" cy="181.084" r=".615" fill="#4b4e57"/>
    <path d="M927.727 174.362c0-3.157 2.878-5.721 6.422-5.721h12.844c3.544 0 6.422 2.564 6.422 5.721.203 14.594.575 29.363 0 44.523 0 3.157-2.878 5.721-6.422 5.721h-12.844c-3.544 0-6.422-2.564-6.422-5.721-.465-14.617-.238-29.428 0-44.523z" fill="none" stroke="#c7c7c7" stroke-width="1.69"/>
    <g fill="#4b4e57">
      <path d="M893.055 195.617a1.923 1.923 0 0 1 1.947-1.896l3.843.05c1.06.014 1.91.887 1.896 1.947l-.069 5.305a1.923 1.923 0 0 1-1.947 1.897l-3.843-.051a1.922 1.922 0 0 1-1.897-1.946l.07-5.306zM868.825 195.3a1.923 1.923 0 0 1 1.947-1.896l3.843.05c1.06.014 1.91.886 1.896 1.947l-.069 5.305a1.923 1.923 0 0 1-1.947 1.897l-3.843-.051a1.923 1.923 0 0 1-1.897-1.946l.07-5.306zM844.595 194.983a1.923 1.923 0 0 1 1.947-1.896l3.843.05c1.06.014 1.91.886 1.896 1.947l-.069 5.305a1.922 1.922 0 0 1-1.947 1.896l-3.843-.05a1.923 1.923 0 0 1-1.897-1.947l.07-5.305zM820.365 194.666a1.923 1.923 0 0 1 1.947-1.897l3.843.051c1.06.014 1.91.886 1.896 1.947l-.069 5.305a1.923 1.923 0 0 1-1.947 1.896l-3.843-.05a1.923 1.923 0 0 1-1.897-1.947l.07-5.305zM796.135 194.349a1.923 1.923 0 0 1 1.947-1.897l3.843.051c1.06.013 1.91.886 1.896 1.946l-.069 5.306a1.923 1.923 0 0 1-1.947 1.896l-3.843-.05a1.923 1.923 0 0 1-1.897-1.947l.07-5.305zM771.905 194.032a1.923 1.923 0 0 1 1.947-1.897l3.843.05c1.06.014 1.91.887 1.896 1.947l-.069 5.305a1.923 1.923 0 0 1-1.947 1.897l-3.843-.05a1.923 1.923 0 0 1-1.897-1.947l.07-5.305zM747.675 193.714a1.923 1.923 0 0 1 1.947-1.896l3.843.05c1.06.014 1.91.886 1.896 1.947l-.069 5.305a1.923 1.923 0 0 1-1.947 1.897l-3.843-.051a1.923 1.923 0 0 1-1.897-1.946l.07-5.306zM723.445 193.397a1.923 1.923 0 0 1 1.947-1.896l3.843.05c1.06.014 1.91.886 1.896 1.947l-.069 5.305a1.922 1.922 0 0 1-1.947 1.896l-3.843-.05a1.923 1.923 0 0 1-1.897-1.947l.07-5.305zM699.215 193.08a1.922 1.922 0 0 1 1.947-1.896l3.843.05c1.06.014 1.91.886 1.896 1.947l-.069 5.305a1.923 1.923 0 0 1-1.947 1.896l-3.843-.05a1.923 1.923 0 0 1-1.897-1.947l.07-5.305zM674.985 192.763a1.923 1.923 0 0 1 1.947-1.897l3.843.051c1.06.014 1.91.886 1.896 1.946l-.069 5.306a1.923 1.923 0 0 1-1.947 1.896l-3.843-.05a1.923 1.923 0 0 1-1.897-1.947l.07-5.305zM650.755 192.446a1.923 1.923 0 0 1 1.947-1.897l3.843.05c1.06.014 1.91.887 1.896 1.947l-.069 5.305a1.923 1.923 0 0 1-1.947 1.897l-3.843-.05a1.924 1.924 0 0 1-1.897-1.947l.07-5.305zM626.525 192.128a1.923 1.923 0 0 1 1.947-1.896l3.843.05c1.06.014 1.91.886 1.896 1.947l-.069 5.305a1.923 1.923 0 0 1-1.947 1.897l-3.843-.051a1.923 1.923 0 0 1-1.897-1.946l.07-5.306zM602.295 191.811a1.923 1.923 0 0 1 1.947-1.896l3.843.05c1.06.014 1.91.886 1.896 1.947l-.069 5.305a1.923 1.923 0 0 1-1.947 1.897l-3.843-.051a1.923 1.923 0 0 1-1.897-1.947l.07-5.305zM578.065 191.494a1.922 1.922 0 0 1 1.947-1.896l3.843.05c1.06.014 1.91.886 1.896 1.947l-.069 5.305a1.923 1.923 0 0 1-1.947 1.896l-3.843-.05a1.923 1.923 0 0 1-1.897-1.947l.07-5.305zM553.835 191.177a1.923 1.923 0 0 1 1.947-1.897l3.843.051c1.06.014 1.91.886 1.896 1.946l-.069 5.306a1.923 1.923 0 0 1-1.947 1.896l-3.843-.05a1.923 1.923 0 0 1-1.897-1.947l.07-5.305zM529.605 190.86a1.923 1.923 0 0 1 1.947-1.897l3.843.051c1.06.013 1.91.886 1.896 1.946l-.069 5.306a1.923 1.923 0 0 1-1.947 1.896l-3.843-.05a1.924 1.924 0 0 1-1.897-1.947l.07-5.305zM505.375 190.542a1.923 1.923 0 0 1 1.947-1.896l3.843.05c1.06.014 1.91.887 1.896 1.947l-.069 5.305a1.923 1.923 0 0 1-1.947 1.897l-3.843-.051a1.923 1.923 0 0 1-1.897-1.946l.07-5.306zM481.145 190.225a1.923 1.923 0 0 1 1.947-1.896l3.843.05c1.06.014 1.91.886 1.896 1.947l-.069 5.305a1.923 1.923 0 0 1-1.947 1.897l-3.843-.051a1.923 1.923 0 0 1-1.897-1.946l.07-5.306zM456.915 189.908a1.923 1.923 0 0 1 1.947-1.896l3.843.05c1.06.014 1.91.886 1.896 1.947l-.069 5.305a1.922 1.922 0 0 1-1.947 1.896l-3.843-.05a1.923 1.923 0 0 1-1.897-1.947l.07-5.305zM432.685 189.591a1.923 1.923 0 0 1 1.947-1.897l3.843.051c1.06.014 1.91.886 1.896 1.947l-.069 5.305a1.923 1.923 0 0 1-1.947 1.896l-3.843-.05a1.922 1.922 0 0 1-1.896-1.947l.069-5.305zM408.455 189.274a1.923 1.923 0 0 1 1.947-1.897l3.843.051c1.06.013 1.91.886 1.896 1.946l-.069 5.306a1.923 1.923 0 0 1-1.947 1.896l-3.843-.05a1.922 1.922 0 0 1-1.896-1.947l.069-5.305zM384.225 188.957a1.923 1.923 0 0 1 1.947-1.897l3.843.05c1.06.014 1.91.887 1.896 1.947l-.069 5.305a1.923 1.923 0 0 1-1.947 1.897l-3.843-.05a1.923 1.923 0 0 1-1.896-1.947l.069-5.305zM359.995 188.639a1.923 1.923 0 0 1 1.947-1.896l3.843.05c1.06.014 1.91.886 1.896 1.947l-.069 5.305a1.923 1.923 0 0 1-1.947 1.897l-3.843-.051a1.922 1.922 0 0 1-1.896-1.946l.069-5.306zM335.765 188.322a1.923 1.923 0 0 1 1.947-1.896l3.843.05c1.06.014 1.91.886 1.896 1.947l-.069 5.305a1.922 1.922 0 0 1-1.947 1.896l-3.843-.05a1.922 1.922 0 0 1-1.896-1.947l.069-5.305zM311.535 188.005a1.922 1.922 0 0 1 1.947-1.896l3.843.05c1.06.014 1.91.886 1.896 1.947l-.069 5.305a1.923 1.923 0 0 1-1.947 1.896l-3.843-.05a1.922 1.922 0 0 1-1.896-1.947l.069-5.305zM287.305 187.688a1.923 1.923 0 0 1 1.947-1.897l3.843.051c1.06.014 1.91.886 1.896 1.946l-.069 5.306a1.923 1.923 0 0 1-1.947 1.896l-3.843-.05a1.922 1.922 0 0 1-1.896-1.947l.069-5.305z"/>
    </g>
    <path d="M1107.32 228.638c-199.745-.704-398.051-4.781-597.591-6.582-139.964-1.263-280.729-2.099-420.47-3.851" fill="none" stroke="#bd7873" stroke-width="2.74"/>
    <path d="M154.087 182.86l-82.434-3.914-7.095 15.982 40.372 11.089 49.157-23.157z" fill="#d3d3d3"/>
    <g>
      <text x="732.814" y="172.072" font-family="'Magneto-Bold','Magneto',fantasy" font-weight="700" font-stretch="semi-expanded" font-size="21.944" fill="#7f1322" transform="rotate(.931 -59.446 -440.419)">
        Willis Airlines
      </text>
    </g>
    <g>
      <path fill="#fff" d="M284.679 168.366h6.645v4.014h-6.645z"/>
      <path fill="#e86b71" d="M291.324 168.366h6.645v4.014h-6.645z"/>
      <path fill="#fff" d="M291.324 172.379h6.645v4.014h-6.645z"/>
      <path fill="#616683" d="M284.679 172.379h6.645v4.014h-6.645zM288.001 169.445l.23.708h.746l-.603.438.23.709-.603-.438-.603.438.231-.709-.603-.438h.745l.23-.708z"/>
      <path d="M294.646 173.458l.23.709h.746l-.603.438.23.709-.603-.438-.603.438.231-.709-.603-.438h.745l.23-.709z" fill="#e86b71"/>
    </g>
    <g>
      <text x="344.544" y="199.545" font-family="'Arial-BoldMT','Arial',sans-serif" font-weight="700" font-size="10.368" fill="#7f1322" transform="rotate(.706 -1037.41 -3129.51) skewX(-5)">
        P <tspan x="353.082px 364.908px" y="199.545px 199.545px">W-</tspan>
      </text>
    </g>
    <g>
      <text x="371.23" y="199.495" font-family="'Arial-BoldMT','Arial',sans-serif" font-weight="700" font-size="10.368" fill="#7f1322" transform="rotate(.706 -992.079 -3129.91) skewX(-5)">
        4 <tspan x="378.349px 385.468px 392.587px 399.706px 406.825px 413.944px 421.057px" y="199.495px 199.495px 199.495px 199.495px 199.495px 199.495px 199.495px">79507LW</tspan>
      </text>
    </g>
  </g>
  <g>
    <path d="M61.187 192.067c-15.191-1.678-29.853-5.88-43.238-13.873.629-2.672.553-5.937-.48-8.635 16.935-5.689 38.687-7.792 56.1-7.827l-12.382 30.335z" fill="#7b7b7b"/>
    <clipPath id="e">
      <path d="M61.187 192.067c-15.191-1.678-29.853-5.88-43.238-13.873.629-2.672.553-5.937-.48-8.635 16.935-5.689 38.687-7.792 56.1-7.827l-12.382 30.335z"/>
    </clipPath>
    <g clip-path="url(#e)">
      <path d="M53.597 207.727c-14.427-5.043-27.773-12.428-39.023-23.22 1.212-2.463 1.871-5.662 1.469-8.523 17.78-1.744 39.45 1.087 56.426 4.959l-18.872 26.784z" fill="#4f4e4c"/>
    </g>
    <path d="M155.089 182.846a.365.365 0 0 0-.02-.708 4997353.16 4997353.16 0 0 1-110.261-23.301l-43.23-3.461a.277.277 0 0 0-.137.529l66.938 30.452 68.921 1.304 17.789-4.815z" fill="#787878"/>
    <clipPath id="f">
      <path d="M155.089 182.846a.365.365 0 0 0-.02-.708 4997353.16 4997353.16 0 0 1-110.261-23.301l-43.23-3.461a.277.277 0 0 0-.137.529l66.938 30.452 68.921 1.304 17.789-4.815z"/>
    </clipPath>
    <g clip-path="url(#f)">
      <path d="M156.882 188.065a.364.364 0 0 0-.019-.709l-110.261-23.3-43.23-3.462a.277.277 0 1 0-.137.529l66.937 30.452 68.922 1.305 17.788-4.815z" fill="#353535"/>
    </g>
  </g>
  <g>
    <path d="M586.62 220.3c-98.794-.223-177.535 5.64-167.696 19.361 5.101 7.113 75.142 19.361 167.696 19.361s166.997-8.731 167.696-19.361c.729-11.061-72.075-19.145-167.696-19.361z" fill="#989898" fill-opacity=".297"/>
    <path d="M632.61 258.4a6.131 6.131 0 0 1 6.131-6.131h21.795v27.778h-21.795a6.131 6.131 0 0 1-6.131-6.131V258.4z" fill="#9d8c64"/>
    <path d="M706.34 248.93h24.715a2.397 2.397 0 0 1 2.397 2.397v30.064a2.397 2.397 0 0 1-2.397 2.397H706.34V248.93z" fill="#989898"/>
    <path d="M732.461 251.395c.322-1.517 3.184 5.427 3.184 14.964 0 9.536-2.862 16.48-3.184 14.964v-29.928z" fill="#616161"/>
    <clipPath id="g">
      <path d="M652.522 239.658h75.114v53h-75.114z"/>
    </clipPath>
    <g clip-path="url(#g)">
      <path d="M646.941 253.726a13.986 13.986 0 0 1 13.984-14.067l64.314-.001a2.397 2.397 0 0 1 2.396 2.397v48.207a2.396 2.396 0 0 1-2.396 2.396h-64.456a13.984 13.984 0 0 1-13.983-14.164c.111-8.307.172-16.571.141-24.768z" fill="#cfcbc8"/>
      <clipPath id="h">
        <path d="M646.941 253.726a13.986 13.986 0 0 1 13.984-14.067l64.314-.001a2.397 2.397 0 0 1 2.396 2.397v48.207a2.396 2.396 0 0 1-2.396 2.396h-64.456a13.984 13.984 0 0 1-13.983-14.164c.111-8.307.172-16.571.141-24.768z"/>
      </clipPath>
      <g clip-path="url(#h)">
        <path class="planeLight" d="M698.368 277.319a.53.53 0 0 1 .531-.531h3.087c.293 0 .531.238.531.531v2.991a.53.53 0 0 1-.531.531h-3.087a.53.53 0 0 1-.531-.531v-2.991z" fill="#ac001e"/>
        <path d="M706.34 234.347v64.023M672.272 235.699v64.022M659.302 235.699v64.022" fill="none" stroke="#989898" stroke-width="1.92" stroke-linecap="round"/>
        <path d="M678.953 253.568c-1.186-.337 4.244-3.326 11.701-3.326 7.456 0 12.886 2.989 11.7 3.326h-23.401z"/>
      </g>
    </g>
    <path d="M416.892 157.536a.672.672 0 0 0-.49-.211h-9.692a.62.62 0 0 0-.526.948l34.691 55.673c.144.23.357.407.609.506l79.21 31.073 127.098-9.498 69.457-1.256a.464.464 0 0 0 .029-.927l-112.694-9.116-64.474-8.282-41.028-2.866-14.204-1.557c-11.614-3.076-21.686-7.867-30.166-14.429l-37.82-40.058z" fill="#bdc2c6"/>
    <clipPath id="i">
      <path d="M416.892 157.536a.672.672 0 0 0-.49-.211h-9.692a.62.62 0 0 0-.526.948l34.691 55.673c.144.23.357.407.609.506l79.21 31.073 127.098-9.498 69.457-1.256a.464.464 0 0 0 .029-.927l-112.694-9.116-64.474-8.282-41.028-2.866-14.204-1.557c-11.614-3.076-21.686-7.867-30.166-14.429l-37.82-40.058z"/>
    </clipPath>
    <g clip-path="url(#i)">
      <path fill="#7f1322" d="M407.624 149.331h60.196v47.782h-60.196z"/>
      <path fill="#bd7873" d="M402.243 197.112h72.588v3.388h-72.588z"/>
      <path d="M469.038 200.165l-49.004.522 45.295 27.527 35.29 21.229 117.034-9.659 31.723-3.433-137.691-15.696-32.434-10.407-10.213-10.083z" fill="#353536"/>
      <path class="planeLight" d="M507.218 219.323c0-.141.056-.276.155-.376a.535.535 0 0 1 .376-.155h3.429c.141 0 .276.056.376.155.099.1.155.235.155.376v2.991a.53.53 0 0 1-.531.531h-3.429a.531.531 0 0 1-.531-.531v-2.991z" fill="#ac001e"/>
    </g>
    <path d="M569.265 236.723l-68.646-1.252.133 16.165 68.513-14.913z" fill="#202128"/>
    <path d="M542.749 228.641l-68.647-1.252.134 16.165 68.513-14.913z" fill="#202128"/>
  </g>
</svg>
