<?xml version="1.0" encoding="UTF-8"?>
<!DOCTYPE svg PUBLIC "-//W3C//DTD SVG 1.1//EN" "http://www.w3.org/Graphics/SVG/1.1/DTD/svg11.dtd">
<svg
    xmlns="http://www.w3.org/2000/svg"
    xmlns:xlink="http://www.w3.org/1999/xlink" width="100%" height="100%" viewBox="0 0 1090 293" version="1.1" xml:space="preserve" style="fill-rule:evenodd;clip-rule:evenodd;stroke-linejoin:round;stroke-miterlimit:1.5;">
        <g id="TailWing">
            <path d="M262.76,159.366l-104.559,-45.803l-0.125,54.367l104.684,-8.564Z" style="fill:#e2e1dd;" />
            <path d="M212.854,162.976l-136.366,-162.809l-41.497,-0.167l36.461,167.93l141.402,-4.954Z" style="fill:#7f1322;" />
            <clipPath id="_clip1">
                <path d="M212.854,162.976l-136.366,-162.809l-41.497,-0.167l36.461,167.93l141.402,-4.954Z" />
            </clipPath>
            <g clip-path="url(#_clip1)">
                <path d="M129.475,108.052c-4.999,-9.01 -14.998,-9.011 -19.998,-4.506c-5,4.504 -5.001,13.514 -0.002,22.525c3.499,6.758 12.498,13.516 19.997,18.022c7.5,-4.505 16.5,-11.261 20,-18.019c5,-9.009 5.001,-18.019 0.002,-22.525c-4.999,-4.505 -14.999,-4.506 -19.999,4.503Z" style="fill:#bd7873;" />
                <path d="M109.213,78.692c-1.086,-1.957 -3.259,-1.958 -4.345,-0.979c-1.087,0.979 -1.087,2.936 -0.001,4.894c0.761,1.468 2.716,2.937 4.345,3.916c1.63,-0.979 3.585,-2.447 4.346,-3.915c1.086,-1.958 1.086,-3.915 0,-4.894c-1.086,-0.979 -3.259,-0.979 -4.345,0.978Z" style="fill:#bd7873;" />
                <path d="M104.053,91.886c-1.511,-2.724 -4.535,-2.724 -6.047,-1.362c-1.512,1.362 -1.512,4.086 0,6.811c1.058,2.043 3.779,4.087 6.046,5.449c2.268,-1.362 4.989,-3.405 6.048,-5.448c1.512,-2.724 1.512,-5.449 0,-6.811c-1.512,-1.363 -4.535,-1.363 -6.047,1.361Z" style="fill:#bd7873;" />
                <path d="M85.224,71.358c-0.722,-1.428 -2.165,-1.428 -2.887,-0.714c-0.721,0.714 -0.721,2.142 0,3.57c0.505,1.071 1.804,2.142 2.887,2.856c1.082,-0.714 2.381,-1.784 2.887,-2.855c0.721,-1.428 0.721,-2.856 0,-3.57c-0.722,-0.714 -2.165,-0.714 -2.887,0.713Z" style="fill:#bd7873;" />
                <path d="M94.324,57.431c-0.536,-0.967 -1.609,-0.967 -2.146,-0.484c-0.536,0.483 -0.536,1.45 0,2.417c0.376,0.725 1.341,1.45 2.146,1.934c0.804,-0.484 1.77,-1.209 2.146,-1.934c0.536,-0.967 0.536,-1.933 0,-2.417c-0.537,-0.483 -1.609,-0.483 -2.146,0.484Z" style="fill:#bd7873;" />
                <path d="M86.68,59.765c-0.537,-0.967 -1.61,-0.967 -2.146,-0.484c-0.537,0.483 -0.537,1.45 0,2.417c0.375,0.725 1.341,1.45 2.145,1.934c0.805,-0.484 1.771,-1.209 2.146,-1.934c0.537,-0.967 0.537,-1.933 0,-2.417c-0.536,-0.483 -1.609,-0.483 -2.145,0.484Z" style="fill:#bd7873;" />
                <path d="M89.228,51.458c-0.537,-0.967 -1.609,-0.967 -2.146,-0.484c-0.536,0.484 -0.537,1.45 0,2.417c0.375,0.725 1.341,1.45 2.145,1.934c0.805,-0.483 1.771,-1.208 2.146,-1.933c0.537,-0.967 0.537,-1.934 0.001,-2.417c-0.537,-0.484 -1.61,-0.484 -2.146,0.483Z" style="fill:#bd7873;" />
                <path d="M74.197,39.798c-0.329,-0.593 -0.987,-0.593 -1.316,-0.296c-0.329,0.296 -0.329,0.889 0,1.482c0.23,0.445 0.823,0.89 1.316,1.187c0.494,-0.297 1.086,-0.742 1.317,-1.186c0.329,-0.593 0.329,-1.186 0,-1.483c-0.329,-0.297 -0.987,-0.297 -1.317,0.296Z" style="fill:#bd7873;" />
                <path d="M69.605,42.825c-0.329,-0.593 -0.987,-0.593 -1.316,-0.297c-0.329,0.297 -0.329,0.89 0,1.483c0.23,0.445 0.822,0.89 1.316,1.186c0.494,-0.296 1.086,-0.741 1.316,-1.186c0.329,-0.593 0.33,-1.186 0,-1.482c-0.329,-0.297 -0.987,-0.297 -1.316,0.296Z" style="fill:#bd7873;" />
                <path d="M65.437,34.126c-0.262,-0.472 -0.785,-0.472 -1.047,-0.236c-0.262,0.236 -0.262,0.707 0,1.179c0.183,0.354 0.654,0.708 1.047,0.944c0.392,-0.236 0.864,-0.59 1.047,-0.944c0.262,-0.471 0.262,-0.943 0,-1.179c-0.262,-0.236 -0.785,-0.236 -1.047,0.236Z" style="fill:#bd7873;" />
                <path d="M63.192,20.716c-0.211,-0.38 -0.633,-0.381 -0.844,-0.19c-0.211,0.19 -0.211,0.57 0,0.95c0.148,0.285 0.527,0.57 0.844,0.76c0.316,-0.19 0.696,-0.475 0.843,-0.76c0.211,-0.38 0.211,-0.76 0,-0.95c-0.211,-0.19 -0.632,-0.19 -0.843,0.19Z" style="fill:#bd7873;" />
                <path d="M48.252,-7.17l49.752,174.17l-30.96,-0.902l-38.221,-170.72l19.429,-2.548Z" style="fill:#59101a;" />
            </g>
        </g>
        <path id="PlaneBody" d="M973.845,164.502c-238.795,-7.899 -480.595,-8.084 -721.911,-9.511l-179.916,6.8l-13.278,29.62c83.891,22.464 167.935,42.355 252.255,57.583c150.707,9.597 300.094,9.54 449.519,9.764l223.23,0c10.199,0.957 62.881,-0.963 64.878,-1.37c4.733,-0.966 21.122,-0.132 39.076,-13.527c0,0 5.177,-2.755 0,-8.016c0,0 -4.263,-11.97 -76.345,-57.632c0,0 -21.363,-14.188 -37.508,-13.699" style="fill:#f7f6f2;" />
        <clipPath id="_clip2">
            <path d="M973.845,164.502c-238.795,-7.899 -480.595,-8.084 -721.911,-9.511l-179.916,6.8l-13.278,29.62c83.891,22.464 167.935,42.355 252.255,57.583c150.707,9.597 300.094,9.54 449.519,9.764l223.23,0c10.199,0.957 62.881,-0.963 64.878,-1.37c4.733,-0.966 21.122,-0.132 39.076,-13.527c0,0 5.177,-2.755 0,-8.016c0,0 -4.263,-11.97 -76.345,-57.632c0,0 -21.363,-14.188 -37.508,-13.699" />
        </clipPath>
        <g clip-path="url(#_clip2)">
            <path d="M1097.14,241.495l-49.363,27.186l-847.925,-2.211l-95.646,-35.77c-347.589,2.777 773.48,-5.783 992.934,10.795Z" style="fill:#b1b1b1;" />
            <path d="M1011.82,182.747l14.838,0.171l27.446,17.658l-28.99,-0.086l-13.294,-17.743Z" style="fill:#82accd;" />
            <path d="M1012.27,182.955l14.445,0.167l26.719,17.2l-28.222,-0.083l-12.942,-17.284Z" style="fill:#89afcd;" />
            <clipPath id="_clip3">
                <path d="M1012.27,182.955l14.445,0.167l26.719,17.2l-28.222,-0.083l-12.942,-17.284Z" />
            </clipPath>
            <g clip-path="url(#_clip3)">
                <path d="M1037.22,196.42l0.159,0.001l0.16,0.002l0.16,0.003l0.159,0.004l0.129,0.003l0.03,0.001l0.159,0.008l0.159,0.008l0.242,0.013l0.073,0.005l0.312,0.025l0.119,0.01l0.19,0.021l0.266,0.03l0.039,0.005l0.299,0.042l0.113,0.016l0.181,0.03l0.569,0.097l0.129,0.022l0.413,0.084l0.258,0.051l0.162,0.032l0.087,0.019l0.24,0.052l0.231,0.048l0.111,0.023l0.098,0.019l0.011,0.003l0.105,0.023l0.103,0.023l0.1,0.021l0.097,0.02l0.095,0.018l0.091,0.017l0.088,0.015l0.085,0.013l0.081,0.012l0.078,0.011l0.075,0.008l0.071,0.007l0.067,0.005l0.064,0.003l0.048,0.001l0.011,0.001l0.057,0.001l0.026,0l0.025,-0.001l0.025,-0.001l0.023,-0.002l0.024,-0.002l-0.003,0.001l0.023,-0.003l0.022,-0.004l-0.003,0.001l0.021,-0.004l0.02,-0.005l-0.003,0.002l0.018,-0.005l0.018,-0.006l-0.003,0.002l0.018,-0.007l-0.003,0.002l0.017,-0.008l-0.003,0.002l0.016,-0.008l-0.003,0.003l0.015,-0.01l-0.003,0.003l0.014,-0.01l-0.003,0.004l0.013,-0.011l-0.003,0.004l0.012,-0.012l-0.002,0.004l0.011,-0.012l-0.003,0.004l0.01,-0.013l-0.001,0.004l0.008,-0.013l-0.001,0.004l0.008,-0.014l-0.001,0.004l0.006,-0.015l-0.001,0.004l0.006,-0.016l0,0.003l0.004,-0.016l0,0.003l0.003,-0.017l0,0.003l0.002,-0.018l0.001,0.002l0.001,-0.018l0,0.002l0,-0.02l0,0.002l-0.001,-0.02l0,0.001l-0.002,-0.021l0,0.001l-0.004,-0.021l0.001,0l-0.005,-0.022l-0.006,-0.023l0,0l-0.007,-0.023l-0.001,-0.004l-0.007,-0.021l0.014,0.017l0.002,0.003l0.016,0.02l0.013,0.021l0.013,0.02l0.011,0.02l0.01,0.019l0.008,0.02l0.007,0.02l0.006,0.02l0.004,0.02l0.003,0.02l0.001,0.02l0,0.02l-0.003,0.02l-0.003,0.02l-0.006,0.02l-0.007,0.019l-0.009,0.019l-0.01,0.018l-0.012,0.018l-0.013,0.018l-0.015,0.017l-0.016,0.016l-0.017,0.016l-0.018,0.015l-0.019,0.015l-0.021,0.014l-0.021,0.014l-0.023,0.014l-0.023,0.013l-0.025,0.012l-0.025,0.013l-0.027,0.012l-0.028,0.011l-0.028,0.012l-0.03,0.011l-0.062,0.021l-0.013,0.004l-0.053,0.015l-0.07,0.018l-0.073,0.016l-0.077,0.016l-0.081,0.014l-0.084,0.014l-0.088,0.013l-0.09,0.013l-0.094,0.011l-0.098,0.011l-0.1,0.011l-0.103,0.009l-0.107,0.01l-0.109,0.008l-0.112,0.009l-0.011,0l-0.103,0.004l-0.117,0.004l-0.241,0.007l-0.251,0.005l-0.091,0.002l-0.167,-0.002l-0.267,-0.004l-0.422,-0.007l-0.131,-0.007l-0.576,-0.028l-0.182,-0.009l-0.113,-0.008l-0.299,-0.022l-0.038,-0.002l-0.263,-0.024l-0.187,-0.016l-0.117,-0.013l-0.305,-0.033l-0.071,-0.007l-0.236,-0.028l-0.153,-0.017l-0.154,-0.017l-0.03,-0.003l-0.124,-0.016l-0.154,-0.018l-0.153,-0.018l-0.154,-0.017l-0.154,-0.016l-0.153,-0.016l-0.153,-0.014l-0.152,-0.014l-0.123,-0.01l-0.029,-0.003l-0.152,-0.014l-0.15,-0.012l-0.151,-0.012l-0.149,-0.011l-0.148,-0.009l-0.148,-0.008l-0.147,-0.007l-0.145,-0.005l-0.145,-0.004l-0.088,-0.002l-0.055,-0.001l-0.142,-0.003l-0.141,0l-0.139,0l-0.138,0.003l-0.136,0.004l-0.135,0.006l-0.133,0.007l-0.131,0.009l-0.129,0.012l-0.128,0.013l-0.046,0.005l-0.016,0.002l-0.063,0.007l-0.062,0.008l-0.061,0.008l-0.061,0.009l-0.061,0.009l-0.059,0.01l-0.06,0.01l-0.058,0.011l-0.059,0.011l-0.057,0.012l-0.057,0.013l-0.057,0.013l-0.056,0.013l-0.055,0.015l-0.054,0.014l-0.054,0.016l-0.054,0.015l-0.052,0.017l-0.052,0.017l-0.052,0.018l-0.05,0.018l-0.051,0.019l-0.049,0.019l-0.049,0.021l-0.048,0.02l-0.047,0.022l-0.047,0.022l-0.046,0.022l-0.045,0.024l-0.044,0.024l-0.044,0.024l-0.043,0.026l-0.042,0.026l-0.042,0.027l-0.041,0.027l-0.04,0.028l-0.039,0.029l-0.039,0.03l-0.037,0.03l-0.037,0.032l-0.037,0.032l-0.035,0.032l-0.035,0.034l-0.034,0.034l-0.033,0.035l-0.032,0.036l-0.032,0.037l-0.031,0.037l-0.03,0.039l-0.029,0.039l-0.028,0.04l-0.027,0.041l-0.027,0.042l-0.025,0.043l-0.025,0.044l-0.024,0.045l-0.023,0.046l-0.022,0.047l-0.021,0.048l-0.02,0.049l-0.018,0.05l-0.018,0.051l-0.017,0.052l-0.016,0.053l-0.004,0.014l-0.011,0.04l0.004,-0.042l0.001,-0.014l0.007,-0.055l0.008,-0.055l0.009,-0.054l0.011,-0.053l0.011,-0.053l0.013,-0.052l0.015,-0.052l0.015,-0.051l0.016,-0.05l0.018,-0.05l0.019,-0.049l0.02,-0.049l0.022,-0.047l0.022,-0.048l0.024,-0.046l0.024,-0.047l0.026,-0.045l0.027,-0.045l0.029,-0.044l0.014,-0.022l0.015,-0.022l0.031,-0.043l0.031,-0.042l0.033,-0.041l0.034,-0.041l0.035,-0.041l0.036,-0.039l0.037,-0.04l0.038,-0.038l0.038,-0.038l0.04,-0.037l0.041,-0.037l0.042,-0.035l0.043,-0.036l0.043,-0.035l0.045,-0.034l0.046,-0.033l0.046,-0.033l0.047,-0.032l0.048,-0.032l0.049,-0.031l0.05,-0.03l0.05,-0.03l0.052,-0.03l0.052,-0.028l0.053,-0.028l0.054,-0.028l0.054,-0.027l0.055,-0.027l0.056,-0.025l0.057,-0.026l0.057,-0.025l0.058,-0.024l0.059,-0.024l0.059,-0.023l0.06,-0.023l0.061,-0.022l0.061,-0.022l0.062,-0.021l0.063,-0.02l0.063,-0.021l0.064,-0.019l0.064,-0.02l0.065,-0.018l0.065,-0.019l0.018,-0.004l0.049,-0.013l0.133,-0.034l0.136,-0.031l0.137,-0.03l0.14,-0.028l0.141,-0.026l0.143,-0.025l0.145,-0.023l0.146,-0.022l0.148,-0.02l0.149,-0.019l0.057,-0.007l0.093,-0.01l0.152,-0.014l0.152,-0.014l0.154,-0.012l0.155,-0.011l0.155,-0.009l0.157,-0.009l0.157,-0.007l0.157,-0.007l0.158,-0.005l0.031,-0.001l0.128,-0.002l0.159,-0.001l0.159,0l0.16,0Z" style="fill:#fff;" />
                <path d="M1033.19,195.746l0.01,0.008l0.014,0.013l0.013,0.014l0.011,0.014l0.01,0.015l0.009,0.016l0.007,0.016l0.006,0.017l0.004,0.018l0.003,0.018l0.001,0.018l0,0.019l-0.001,0.019l-0.003,0.019l-0.004,0.02l-0.003,0.011l-0.003,0.009l-0.008,0.019l-0.008,0.02l-0.009,0.019l-0.011,0.02l-0.012,0.02l-0.012,0.02l-0.014,0.02l-0.014,0.021l-0.031,0.04l-0.035,0.041l-0.037,0.042l-0.041,0.043l-0.03,0.031l-0.013,0.012l-0.047,0.043l-0.048,0.043l-0.052,0.045l-0.033,0.027l-0.075,0.06l-0.115,0.09l-0.022,0.017l-0.1,0.072l-0.125,0.091l-0.001,0.001l-0.064,0.045l-0.049,0.034l-0.017,0.011l-0.066,0.044l-0.032,0.023l-0.035,0.022l-0.067,0.044l-0.025,0.018l-0.042,0.027l-0.068,0.045l-0.037,0.025l-0.03,0.02l-0.066,0.046l-0.066,0.047l-0.065,0.048l-0.063,0.05l-0.034,0.028l-0.029,0.023l-0.03,0.025l-0.031,0.026l-0.03,0.026l-0.029,0.026l-0.029,0.027l-0.029,0.027l-0.027,0.028l-0.028,0.028l-0.027,0.029l-0.026,0.029l-0.005,0.005l-0.021,0.024l-0.026,0.029l-0.024,0.03l-0.025,0.031l-0.023,0.031l-0.023,0.031l-0.022,0.032l-0.022,0.033l-0.02,0.033l-0.02,0.033l-0.02,0.034l-0.008,0.016l-0.01,0.019l-0.018,0.035l-0.017,0.036l-0.017,0.036l-0.015,0.037l-0.015,0.038l-0.013,0.038l-0.013,0.039l-0.012,0.04l-0.011,0.041l-0.01,0.041l-0.008,0.042l-0.008,0.043l-0.006,0.043l-0.006,0.045l-0.004,0.045l-0.003,0.046l-0.002,0.047l0,0.02l-0.001,0.028l0,0.048l0.002,0.05l0.003,0.05l0.004,0.051l0.006,0.052l0.006,0.041l0.001,0.012l-0.004,-0.012l-0.014,-0.038l-0.016,-0.05l-0.015,-0.05l-0.014,-0.05l-0.012,-0.049l-0.01,-0.049l-0.006,-0.028l-0.003,-0.021l-0.008,-0.048l-0.006,-0.048l-0.004,-0.048l-0.004,-0.047l-0.002,-0.048l-0.001,-0.046l0.001,-0.047l0.002,-0.046l0.003,-0.046l0.004,-0.046l0.006,-0.045l0.007,-0.045l0.008,-0.044l0.009,-0.044l0.01,-0.044l0.011,-0.044l0.013,-0.043l0.007,-0.023l0.006,-0.019l0.015,-0.042l0.016,-0.042l0.017,-0.041l0.018,-0.041l0.019,-0.041l0.019,-0.04l0.021,-0.04l0.021,-0.039l0.022,-0.039l0.023,-0.038l0.019,-0.032l0.005,-0.006l0.024,-0.037l0.026,-0.037l0.026,-0.037l0.026,-0.036l0.028,-0.035l0.027,-0.036l0.029,-0.034l0.029,-0.035l0.029,-0.034l0.03,-0.033l0.028,-0.03l0.033,-0.035l0.064,-0.063l0.065,-0.062l0.065,-0.06l0.067,-0.059l0.03,-0.025l0.038,-0.031l0.069,-0.054l0.043,-0.033l0.027,-0.019l0.07,-0.05l0.035,-0.024l0.035,-0.023l0.071,-0.045l0.018,-0.011l0.054,-0.032l0.07,-0.041l0.001,0l0.139,-0.074l0.11,-0.056l0.026,-0.012l0.13,-0.062l0.084,-0.04l0.039,-0.017l0.058,-0.027l0.055,-0.026l0.053,-0.026l0.015,-0.007l0.035,-0.017l0.048,-0.023l0.044,-0.023l0.04,-0.023l0.037,-0.023l0.017,-0.011l0.016,-0.011l0.015,-0.012l0.014,-0.011l0.013,-0.011l0.011,-0.011l0.011,-0.011l0.011,-0.013l-0.002,0.003l0.005,-0.006l0.005,-0.006l0.009,-0.013l-0.001,0.003l0.008,-0.012l0.007,-0.013l-0.001,0.003l0.006,-0.013l0.005,-0.013l-0.001,0.003l0.004,-0.014l0.002,-0.014l0.001,0.003l0.001,-0.015l0,-0.015l0,0.002l-0.001,-0.015l-0.003,-0.016l0.001,0.001l-0.004,-0.016l-0.006,-0.017l0,0l-0.007,-0.017l-0.005,-0.011l-0.003,-0.007l0.005,0.005Z" style="fill:#fff;" />
            </g>
            <path d="M996.952,183.314l14.266,0l12.661,17.476l-26.837,0l-0.09,-17.476Z" style="fill:#95c0e3;" />
            <path d="M997.993,183.957l13.359,0l11.857,16.365l-25.132,0l-0.084,-16.365Z" style="fill:#89afcd;" />
            <clipPath id="_clip4">
                <path d="M997.993,183.957l13.359,0l11.857,16.365l-25.132,0l-0.084,-16.365Z" />
            </clipPath>
            <g clip-path="url(#_clip4)">
                <path d="M1006.72,184.482l0.131,0.002l0.13,0.003l0.128,0.003l0.124,0.005l0.003,0l0.125,0.006l0.124,0.006l0.122,0.007l0.12,0.008l0.118,0.009l0.117,0.009l0.114,0.009l0.113,0.011l0.11,0.01l0.108,0.011l0.106,0.011l0.104,0.012l0.2,0.024l0.19,0.025l0.18,0.025l0.169,0.025l0.156,0.024l0.145,0.024l0.132,0.023l0.118,0.022l0.104,0.02l0.09,0.018l0.075,0.015l0.087,0.018l0.015,0.004l0.035,0.008l-0.035,-0.004l-0.016,-0.001l-0.088,-0.007l-0.076,-0.006l-0.092,-0.006l-0.105,-0.007l-0.12,-0.006l-0.133,-0.006l-0.146,-0.005l-0.157,-0.005l-0.169,-0.003l-0.18,-0.002l-0.19,-0.001l-0.2,0.002l-0.103,0.001l-0.106,0.003l-0.107,0.002l-0.109,0.004l-0.112,0.004l-0.113,0.005l-0.115,0.006l-0.116,0.006l-0.118,0.008l-0.12,0.008l-0.121,0.009l-0.125,0.01l-0.121,0.01l-0.125,0.011l-0.125,0.013l-0.127,0.013l-0.128,0.015l-0.129,0.015l-0.13,0.017l-0.13,0.018l-0.131,0.019l-0.131,0.021l-0.132,0.021l-0.132,0.023l-0.132,0.025l-0.133,0.026l-0.133,0.027l-0.133,0.028l-0.133,0.03l-0.132,0.032l-0.133,0.033l-0.132,0.034l-0.131,0.036l-0.132,0.038l-0.13,0.039l-0.131,0.041l-0.129,0.042l-0.128,0.045l-0.112,0.04l-0.016,0.006l-0.127,0.046l-0.126,0.049l-0.125,0.05l-0.124,0.053l-0.061,0.026l-0.061,0.028l-0.06,0.027l-0.061,0.028l-0.06,0.029l-0.059,0.029l-0.059,0.03l-0.059,0.03l-0.058,0.03l-0.058,0.031l-0.058,0.032l-0.057,0.032l-0.057,0.032l-0.056,0.033l-0.056,0.033l-0.055,0.034l-0.055,0.034l-0.035,0.023l-0.019,0.012l-0.055,0.035l-0.053,0.035l-0.053,0.036l-0.053,0.036l-0.052,0.037l-0.051,0.038l-0.051,0.038l-0.051,0.038l-0.05,0.039l-0.049,0.039l-0.049,0.04l-0.048,0.04l-0.048,0.041l-0.047,0.042l-0.047,0.042l-0.045,0.042l-0.046,0.043l-0.044,0.044l-0.045,0.044l-0.043,0.044l-0.043,0.045l-0.042,0.046l-0.042,0.046l-0.041,0.048l-0.04,0.046l-0.04,0.047l-0.04,0.048l-0.039,0.048l-0.038,0.049l-0.038,0.05l-0.037,0.05l-0.036,0.051l-0.036,0.051l-0.035,0.052l-0.034,0.053l-0.033,0.053l-0.033,0.054l-0.033,0.054l-0.031,0.056l-0.031,0.055l-0.03,0.057l-0.029,0.057l-0.029,0.058l-0.028,0.058l-0.018,0.039l-0.01,0.02l-0.027,0.06l-0.027,0.06l-0.026,0.061l-0.025,0.062l-0.024,0.062l-0.024,0.064l-0.023,0.064l-0.045,0.13l-0.021,0.066l-0.021,0.067l-0.02,0.068l-0.02,0.069l-0.018,0.07l-0.014,0.055l-0.004,0.015l-0.02,0.071l-0.019,0.072l-0.018,0.073l-0.004,0.018l-0.016,0.055l-0.021,0.074l-0.02,0.076l-0.01,0.044l-0.011,0.032l-0.023,0.077l-0.023,0.078l-0.021,0.079l-0.022,0.081l-0.02,0.082l-0.015,0.067l-0.005,0.017l-0.025,0.084l-0.025,0.086l-0.023,0.087l-0.023,0.089l-0.021,0.09l-0.007,0.028l-0.018,0.064l-0.026,0.094l-0.024,0.095l-0.024,0.096l-0.024,0.099l-0.029,0.1l-0.028,0.103l-0.027,0.104l-0.026,0.105l-0.026,0.108l-0.024,0.109l-0.015,0.068l-0.012,0.044l-0.03,0.114l-0.026,0.105l-0.003,0.011l-0.005,-0.009l-0.053,-0.096l-0.055,-0.105l-0.022,-0.041l-0.028,-0.065l-0.046,-0.105l-0.044,-0.106l-0.043,-0.104l-0.041,-0.105l-0.04,-0.105l-0.038,-0.104l0,-0.001l-0.03,-0.103l-0.029,-0.104l-0.027,-0.104l-0.025,-0.103l-0.017,-0.071l-0.006,-0.032l-0.017,-0.102l-0.016,-0.102l-0.014,-0.101l-0.014,-0.101l-0.011,-0.101l-0.002,-0.019l-0.004,-0.08l-0.002,-0.099l-0.002,-0.098l0,-0.098l0.001,-0.097l0.003,-0.096l0.001,-0.041l0.005,-0.055l0.011,-0.094l0.011,-0.094l0.009,-0.07l0.004,-0.023l0.018,-0.091l0.019,-0.09l0.02,-0.09l0.005,-0.02l0.018,-0.068l0.025,-0.087l0.026,-0.087l0.027,-0.085l0.028,-0.084l0.029,-0.084l0.03,-0.083l0.002,-0.003l0.03,-0.078l0.033,-0.081l0.034,-0.079l0.035,-0.079l0.036,-0.078l0.037,-0.076l0.038,-0.076l0.039,-0.075l0.014,-0.026l0.026,-0.048l0.042,-0.073l0.042,-0.071l0.043,-0.071l0.044,-0.07l0.045,-0.069l0.046,-0.068l0.046,-0.067l0.047,-0.066l0.048,-0.065l0.049,-0.064l0.049,-0.063l0.051,-0.062l0.051,-0.062l0.051,-0.06l0.053,-0.059l0.052,-0.059l0.054,-0.058l0.054,-0.056l0.055,-0.056l0.055,-0.054l0.001,-0.001l0.056,-0.054l0.058,-0.052l0.057,-0.052l0.059,-0.051l0.059,-0.05l0.059,-0.049l0.06,-0.048l0.06,-0.048l0.061,-0.046l0.061,-0.046l0.062,-0.045l0.062,-0.043l0.063,-0.044l0.063,-0.042l0.064,-0.042l0.063,-0.04l0.065,-0.04l0.064,-0.039l0.065,-0.039l0.066,-0.037l0.065,-0.037l0.066,-0.036l0.067,-0.036l0.066,-0.034l0.024,-0.012l0.043,-0.022l0.068,-0.033l0.068,-0.032l0.068,-0.031l0.068,-0.031l0.068,-0.03l0.069,-0.029l0.069,-0.028l0.069,-0.028l0.07,-0.028l0.069,-0.026l0.07,-0.026l0.07,-0.026l0.07,-0.024l0.07,-0.024l0.071,-0.024l0.07,-0.023l0.072,-0.022l0.141,-0.043l0.142,-0.04l0.143,-0.038l0.143,-0.036l0.019,-0.005l0.124,-0.029l0.144,-0.031l0.144,-0.029l0.144,-0.027l0.143,-0.025l0.144,-0.023l0.144,-0.021l0.143,-0.02l0.143,-0.018l0.143,-0.016l0.142,-0.015l0.142,-0.013l0.141,-0.012l0.141,-0.01l0.14,-0.009l0.139,-0.007l0.138,-0.007l0.138,-0.005l0.136,-0.003l0.136,-0.003l0.135,-0.001l0.133,0l0.132,0Z" style="fill:#fff;" />
            </g>
            <g id="BackDoor">
                <path d="M262.25,186.268c0.005,-0.326 0.273,-0.588 0.6,-0.584l1.183,0.016c0.326,0.004 0.588,0.273 0.583,0.599l-0.065,4.989c-0.004,0.326 -0.273,0.588 -0.599,0.584l-1.183,-0.016c-0.327,-0.004 -0.588,-0.273 -0.584,-0.599l0.065,-4.989Z" style="fill:#c7c7c7;" />
                <circle cx="256.189" cy="173.232" r="0.615" style="fill:#4b4e57;" />
                <path d="M245.083,166.901c0.031,-3.148 2.612,-5.678 5.76,-5.647l11.408,0.114c3.148,0.031 5.678,2.612 5.647,5.76c-0.84,14.747 -0.973,29.545 -0.441,44.391c-0.032,3.148 -2.613,5.679 -5.761,5.647l-11.408,-0.113c-3.148,-0.031 -5.678,-2.613 -5.647,-5.761c-1.33,-14.817 -1.037,-29.595 0.442,-44.391Z" style="fill:none;stroke:#c7c7c7;stroke-width:1.59px;" />
            </g>
            <path d="M622.677,185.421c0.013,-1.641 1.743,-2.959 3.86,-2.942l7.673,0.063c2.117,0.018 3.825,1.364 3.812,3.005c-0.114,7.683 -0.098,15.395 -0.19,23.136c-0.014,1.64 -1.744,2.958 -3.861,2.941l-7.673,-0.063c-2.117,-0.017 -3.825,-1.364 -3.811,-3.004c-0.146,-7.731 0.032,-15.433 0.19,-23.136Z" style="fill:none;stroke:#c5c4c2;stroke-width:1.83px;" />
            <g id="FrontDoor">
                <path d="M929.943,192.456c0.004,-0.327 0.273,-0.589 0.599,-0.584l1.183,0.015c0.327,0.005 0.588,0.273 0.584,0.6l-0.065,4.988c-0.004,0.327 -0.273,0.588 -0.599,0.584l-1.184,-0.015c-0.326,-0.005 -0.588,-0.273 -0.583,-0.6l0.065,-4.988Z" style="fill:#c7c7c7;" />
                <circle cx="940.584" cy="181.084" r="0.615" style="fill:#4b4e57;" />
                <path d="M927.727,174.362c0,-3.157 2.878,-5.721 6.422,-5.721l12.844,0c3.544,0 6.422,2.564 6.422,5.721c0.203,14.594 0.575,29.363 0,44.523c0,3.157 -2.878,5.721 -6.422,5.721l-12.844,0c-3.544,0 -6.422,-2.564 -6.422,-5.721c-0.465,-14.617 -0.238,-29.428 0,-44.523Z" style="fill:none;stroke:#c7c7c7;stroke-width:1.69px;" />
            </g>
            <g id="Windows">
                <path d="M893.055,195.617c0.014,-1.06 0.886,-1.91 1.947,-1.896l3.843,0.05c1.06,0.014 1.91,0.887 1.896,1.947l-0.069,5.305c-0.014,1.061 -0.886,1.911 -1.947,1.897l-3.843,-0.051c-1.061,-0.013 -1.911,-0.886 -1.897,-1.946l0.07,-5.306Z" style="fill:#4b4e57;" />
                <path d="M868.825,195.3c0.014,-1.06 0.886,-1.91 1.947,-1.896l3.843,0.05c1.06,0.014 1.91,0.886 1.896,1.947l-0.069,5.305c-0.014,1.061 -0.886,1.91 -1.947,1.897l-3.843,-0.051c-1.061,-0.014 -1.911,-0.886 -1.897,-1.946l0.07,-5.306Z" style="fill:#4b4e57;" />
                <path d="M844.595,194.983c0.014,-1.06 0.886,-1.91 1.947,-1.896l3.843,0.05c1.06,0.014 1.91,0.886 1.896,1.947l-0.069,5.305c-0.014,1.061 -0.886,1.91 -1.947,1.896l-3.843,-0.05c-1.061,-0.014 -1.911,-0.886 -1.897,-1.947l0.07,-5.305Z" style="fill:#4b4e57;" />
                <path d="M820.365,194.666c0.014,-1.061 0.886,-1.91 1.947,-1.897l3.843,0.051c1.06,0.014 1.91,0.886 1.896,1.947l-0.069,5.305c-0.014,1.06 -0.886,1.91 -1.947,1.896l-3.843,-0.05c-1.061,-0.014 -1.911,-0.886 -1.897,-1.947l0.07,-5.305Z" style="fill:#4b4e57;" />
                <path d="M796.135,194.349c0.014,-1.061 0.886,-1.911 1.947,-1.897l3.843,0.051c1.06,0.013 1.91,0.886 1.896,1.946l-0.069,5.306c-0.014,1.06 -0.886,1.91 -1.947,1.896l-3.843,-0.05c-1.061,-0.014 -1.911,-0.886 -1.897,-1.947l0.07,-5.305Z" style="fill:#4b4e57;" />
                <path d="M771.905,194.032c0.014,-1.061 0.886,-1.911 1.947,-1.897l3.843,0.05c1.06,0.014 1.91,0.887 1.896,1.947l-0.069,5.305c-0.014,1.061 -0.886,1.911 -1.947,1.897l-3.843,-0.05c-1.061,-0.014 -1.911,-0.887 -1.897,-1.947l0.07,-5.305Z" style="fill:#4b4e57;" />
                <path d="M747.675,193.714c0.014,-1.06 0.886,-1.91 1.947,-1.896l3.843,0.05c1.06,0.014 1.91,0.886 1.896,1.947l-0.069,5.305c-0.014,1.061 -0.886,1.911 -1.947,1.897l-3.843,-0.051c-1.061,-0.014 -1.91,-0.886 -1.897,-1.946l0.07,-5.306Z" style="fill:#4b4e57;" />
                <path d="M723.445,193.397c0.014,-1.06 0.886,-1.91 1.947,-1.896l3.843,0.05c1.06,0.014 1.91,0.886 1.896,1.947l-0.069,5.305c-0.014,1.061 -0.886,1.91 -1.947,1.896l-3.843,-0.05c-1.061,-0.014 -1.91,-0.886 -1.897,-1.947l0.07,-5.305Z" style="fill:#4b4e57;" />
                <path d="M699.215,193.08c0.014,-1.061 0.886,-1.91 1.947,-1.896l3.843,0.05c1.06,0.014 1.91,0.886 1.896,1.947l-0.069,5.305c-0.014,1.06 -0.886,1.91 -1.947,1.896l-3.843,-0.05c-1.061,-0.014 -1.91,-0.886 -1.897,-1.947l0.07,-5.305Z" style="fill:#4b4e57;" />
                <path d="M674.985,192.763c0.014,-1.061 0.886,-1.911 1.947,-1.897l3.843,0.051c1.06,0.014 1.91,0.886 1.896,1.946l-0.069,5.306c-0.014,1.06 -0.886,1.91 -1.947,1.896l-3.843,-0.05c-1.061,-0.014 -1.91,-0.886 -1.897,-1.947l0.07,-5.305Z" style="fill:#4b4e57;" />
                <path d="M650.755,192.446c0.014,-1.061 0.886,-1.911 1.947,-1.897l3.843,0.05c1.06,0.014 1.91,0.887 1.896,1.947l-0.069,5.305c-0.014,1.061 -0.886,1.911 -1.947,1.897l-3.843,-0.05c-1.061,-0.014 -1.91,-0.887 -1.897,-1.947l0.07,-5.305Z" style="fill:#4b4e57;" />
                <path d="M626.525,192.128c0.014,-1.06 0.886,-1.91 1.947,-1.896l3.843,0.05c1.06,0.014 1.91,0.886 1.896,1.947l-0.069,5.305c-0.014,1.061 -0.886,1.911 -1.947,1.897l-3.843,-0.051c-1.061,-0.013 -1.91,-0.886 -1.897,-1.946l0.07,-5.306Z" style="fill:#4b4e57;" />
                <path d="M602.295,191.811c0.014,-1.06 0.886,-1.91 1.947,-1.896l3.843,0.05c1.06,0.014 1.91,0.886 1.896,1.947l-0.069,5.305c-0.014,1.061 -0.886,1.91 -1.947,1.897l-3.843,-0.051c-1.061,-0.014 -1.91,-0.886 -1.897,-1.947l0.07,-5.305Z" style="fill:#4b4e57;" />
                <path d="M578.065,191.494c0.014,-1.061 0.886,-1.91 1.947,-1.896l3.843,0.05c1.06,0.014 1.91,0.886 1.896,1.947l-0.069,5.305c-0.014,1.06 -0.886,1.91 -1.947,1.896l-3.843,-0.05c-1.061,-0.014 -1.91,-0.886 -1.897,-1.947l0.07,-5.305Z" style="fill:#4b4e57;" />
                <path d="M553.835,191.177c0.014,-1.061 0.886,-1.91 1.947,-1.897l3.843,0.051c1.06,0.014 1.91,0.886 1.896,1.946l-0.069,5.306c-0.014,1.06 -0.886,1.91 -1.947,1.896l-3.843,-0.05c-1.061,-0.014 -1.91,-0.886 -1.897,-1.947l0.07,-5.305Z" style="fill:#4b4e57;" />
                <path d="M529.605,190.86c0.014,-1.061 0.886,-1.911 1.947,-1.897l3.843,0.051c1.06,0.013 1.91,0.886 1.896,1.946l-0.069,5.306c-0.014,1.06 -0.886,1.91 -1.947,1.896l-3.843,-0.05c-1.061,-0.014 -1.91,-0.887 -1.897,-1.947l0.07,-5.305Z" style="fill:#4b4e57;" />
                <path d="M505.375,190.542c0.014,-1.06 0.886,-1.91 1.947,-1.896l3.843,0.05c1.06,0.014 1.91,0.887 1.896,1.947l-0.069,5.305c-0.014,1.061 -0.886,1.911 -1.947,1.897l-3.843,-0.051c-1.061,-0.013 -1.91,-0.886 -1.897,-1.946l0.07,-5.306Z" style="fill:#4b4e57;" />
                <path d="M481.145,190.225c0.014,-1.06 0.886,-1.91 1.947,-1.896l3.843,0.05c1.06,0.014 1.91,0.886 1.896,1.947l-0.069,5.305c-0.014,1.061 -0.886,1.91 -1.947,1.897l-3.843,-0.051c-1.061,-0.014 -1.91,-0.886 -1.897,-1.946l0.07,-5.306Z" style="fill:#4b4e57;" />
                <path d="M456.915,189.908c0.014,-1.06 0.886,-1.91 1.947,-1.896l3.843,0.05c1.06,0.014 1.91,0.886 1.896,1.947l-0.069,5.305c-0.014,1.061 -0.886,1.91 -1.947,1.896l-3.843,-0.05c-1.061,-0.014 -1.91,-0.886 -1.897,-1.947l0.07,-5.305Z" style="fill:#4b4e57;" />
                <path d="M432.685,189.591c0.014,-1.061 0.886,-1.91 1.947,-1.897l3.843,0.051c1.06,0.014 1.91,0.886 1.896,1.947l-0.069,5.305c-0.014,1.06 -0.886,1.91 -1.947,1.896l-3.843,-0.05c-1.061,-0.014 -1.91,-0.886 -1.896,-1.947l0.069,-5.305Z" style="fill:#4b4e57;" />
                <path d="M408.455,189.274c0.014,-1.061 0.886,-1.911 1.947,-1.897l3.843,0.051c1.06,0.013 1.91,0.886 1.896,1.946l-0.069,5.306c-0.014,1.06 -0.886,1.91 -1.947,1.896l-3.843,-0.05c-1.061,-0.014 -1.91,-0.886 -1.896,-1.947l0.069,-5.305Z" style="fill:#4b4e57;" />
                <path d="M384.225,188.957c0.014,-1.061 0.886,-1.911 1.947,-1.897l3.843,0.05c1.06,0.014 1.91,0.887 1.896,1.947l-0.069,5.305c-0.014,1.061 -0.886,1.911 -1.947,1.897l-3.843,-0.05c-1.061,-0.014 -1.91,-0.887 -1.896,-1.947l0.069,-5.305Z" style="fill:#4b4e57;" />
                <path d="M359.995,188.639c0.014,-1.06 0.886,-1.91 1.947,-1.896l3.843,0.05c1.06,0.014 1.91,0.886 1.896,1.947l-0.069,5.305c-0.014,1.061 -0.886,1.911 -1.947,1.897l-3.843,-0.051c-1.061,-0.014 -1.91,-0.886 -1.896,-1.946l0.069,-5.306Z" style="fill:#4b4e57;" />
                <path d="M335.765,188.322c0.014,-1.06 0.886,-1.91 1.947,-1.896l3.843,0.05c1.06,0.014 1.91,0.886 1.896,1.947l-0.069,5.305c-0.014,1.061 -0.886,1.91 -1.947,1.896l-3.843,-0.05c-1.061,-0.014 -1.91,-0.886 -1.896,-1.947l0.069,-5.305Z" style="fill:#4b4e57;" />
                <path d="M311.535,188.005c0.014,-1.061 0.886,-1.91 1.947,-1.896l3.843,0.05c1.06,0.014 1.91,0.886 1.896,1.947l-0.069,5.305c-0.014,1.06 -0.886,1.91 -1.947,1.896l-3.843,-0.05c-1.061,-0.014 -1.91,-0.886 -1.896,-1.947l0.069,-5.305Z" style="fill:#4b4e57;" />
                <path d="M287.305,187.688c0.014,-1.061 0.886,-1.911 1.947,-1.897l3.843,0.051c1.06,0.014 1.91,0.886 1.896,1.946l-0.069,5.306c-0.014,1.06 -0.886,1.91 -1.947,1.896l-3.843,-0.05c-1.061,-0.014 -1.91,-0.886 -1.896,-1.947l0.069,-5.305Z" style="fill:#4b4e57;" />
            </g>
            <path d="M1107.32,228.638c-199.745,-0.704 -398.051,-4.781 -597.591,-6.582c-139.964,-1.263 -280.729,-2.099 -420.47,-3.851" style="fill:none;stroke:#bd7873;stroke-width:2.74px;" />
            <path d="M154.087,182.86l-82.434,-3.914l-7.095,15.982l40.372,11.089l49.157,-23.157Z" style="fill:#d3d3d3;" />
            <g transform="matrix(0.999868,0.016242,-0.016242,0.999868,-7.16113,0.907382)">
                <text x="732.814px" y="172.072px" style="font-family:'Magneto-Bold', 'Magneto', fantasy;font-weight:700;font-stretch:semi-expanded;font-size:21.944px;fill:#7f1322;">Willis Airlines</text>
            </g>
            <g id="PanamaFlag">
                <rect x="284.679" y="168.366" width="6.645" height="4.014" style="fill:#fff;" />
                <rect x="291.324" y="168.366" width="6.645" height="4.014" style="fill:#e86b71;" />
                <rect x="291.324" y="172.379" width="6.645" height="4.014" style="fill:#fff;" />
                <rect x="284.679" y="172.379" width="6.645" height="4.014" style="fill:#616683;" />
                <path d="M288.001,169.445l0.23,0.708l0.746,0l-0.603,0.438l0.23,0.709l-0.603,-0.438l-0.603,0.438l0.231,-0.709l-0.603,-0.438l0.745,0l0.23,-0.708Z" style="fill:#616683;" />
                <path d="M294.646,173.458l0.23,0.709l0.746,0l-0.603,0.438l0.23,0.709l-0.603,-0.438l-0.603,0.438l0.231,-0.709l-0.603,-0.438l0.745,0l0.23,-0.709Z" style="fill:#e86b71;" />
            </g>
            <g transform="matrix(0.999924,0.0123377,-0.0998197,0.998844,-38.6898,12.5614)">
                <text x="344.544px" y="199.545px" style="font-family:'Arial-BoldMT', 'Arial', sans-serif;font-weight:700;font-size:10.368px;fill:#7f1322;">P
                    <tspan x="353.082px 364.908px " y="199.545px 199.545px ">W-</tspan>
                </text>
            </g>
            <g transform="matrix(0.999924,0.0123377,-0.0998197,0.998844,-38.6913,12.0021)">
                <text x="371.23px" y="199.495px" style="font-family:'Arial-BoldMT', 'Arial', sans-serif;font-weight:700;font-size:10.368px;fill:#7f1322;">4
                    <tspan x="378.349px 385.468px 392.587px 399.706px 406.825px 413.944px 421.057px " y="199.495px 199.495px 199.495px 199.495px 199.495px 199.495px 199.495px ">79507LW</tspan>
                </text>
            </g>
        </g>
        <g id="BackWing">
            <path d="M61.187,192.067c-15.191,-1.678 -29.853,-5.88 -43.238,-13.873c0.629,-2.672 0.553,-5.937 -0.48,-8.635c16.935,-5.689 38.687,-7.792 56.1,-7.827l-12.382,30.335Z" style="fill:#7b7b7b;" />
            <clipPath id="_clip5">
                <path d="M61.187,192.067c-15.191,-1.678 -29.853,-5.88 -43.238,-13.873c0.629,-2.672 0.553,-5.937 -0.48,-8.635c16.935,-5.689 38.687,-7.792 56.1,-7.827l-12.382,30.335Z" />
            </clipPath>
            <g clip-path="url(#_clip5)">
                <path d="M53.597,207.727c-14.427,-5.043 -27.773,-12.428 -39.023,-23.22c1.212,-2.463 1.871,-5.662 1.469,-8.523c17.78,-1.744 39.45,1.087 56.426,4.959l-18.872,26.784Z" style="fill:#4f4e4c;" />
            </g>
            <path d="M155.089,182.846c0.162,-0.044 0.273,-0.193 0.269,-0.362c-0.005,-0.168 -0.125,-0.311 -0.289,-0.346c-13.194,-2.788 -110.122,-23.271 -110.261,-23.301c0,0 0,0 0,0c-0.083,-0.006 -35.289,-2.825 -43.23,-3.461c-0.134,-0.011 -0.257,0.076 -0.291,0.207c-0.033,0.13 0.032,0.266 0.154,0.322c9.857,4.484 66.938,30.452 66.938,30.452l68.921,1.304c0,0 13.298,-3.599 17.789,-4.815Z" style="fill:#787878;" />
            <clipPath id="_clip6">
                <path d="M155.089,182.846c0.162,-0.044 0.273,-0.193 0.269,-0.362c-0.005,-0.168 -0.125,-0.311 -0.289,-0.346c-13.194,-2.788 -110.122,-23.271 -110.261,-23.301c0,0 0,0 0,0c-0.083,-0.006 -35.289,-2.825 -43.23,-3.461c-0.134,-0.011 -0.257,0.076 -0.291,0.207c-0.033,0.13 0.032,0.266 0.154,0.322c9.857,4.484 66.938,30.452 66.938,30.452l68.921,1.304c0,0 13.298,-3.599 17.789,-4.815Z" />
            </clipPath>
            <g clip-path="url(#_clip6)">
                <path d="M156.882,188.065c0.163,-0.044 0.274,-0.194 0.269,-0.362c-0.004,-0.169 -0.124,-0.312 -0.288,-0.347c-13.194,-2.788 -110.122,-23.271 -110.261,-23.3c0,0 0,0 0,0c-0.083,-0.007 -35.289,-2.826 -43.23,-3.462c-0.134,-0.011 -0.257,0.077 -0.291,0.207c-0.033,0.131 0.031,0.267 0.154,0.322c9.857,4.485 66.937,30.452 66.937,30.452l68.922,1.305c0,0 13.298,-3.6 17.788,-4.815Z" style="fill:#353535;" />
            </g>
        </g>
        <g id="MainWing">
            <path d="M586.62,220.3c-98.794,-0.223 -177.535,5.64 -167.696,19.361c5.101,7.113 75.142,19.361 167.696,19.361c92.554,0 166.997,-8.731 167.696,-19.361c0.729,-11.061 -72.075,-19.145 -167.696,-19.361Z" style="fill:#989898;fill-opacity:0.297101;" />
            <path d="M632.61,258.4c0,-3.386 2.745,-6.131 6.131,-6.131c8.221,0 21.795,0 21.795,0l0,27.778c0,0 -13.574,0 -21.795,0c-3.386,0 -6.131,-2.745 -6.131,-6.131c0,-4.612 0,-10.904 0,-15.516Z" style="fill:#9d8c64;" />
            <g>
                <path d="M706.34,248.93c0,0 18.087,0 24.715,0c1.324,0 2.397,1.073 2.397,2.397c0,6.373 0,23.69 0,30.064c0,1.324 -1.073,2.397 -2.397,2.397c-6.628,0 -24.715,0 -24.715,0l0,-34.858Z" style="fill:#989898;" />
                <path d="M732.461,251.395c0.322,-1.517 3.184,5.427 3.184,14.964c0,9.536 -2.862,16.48 -3.184,14.964l0,-29.928Z" style="fill:#616161;" />
            </g>
            <clipPath id="_clip7">
                <rect x="652.522" y="239.658" width="75.114" height="53" />
            </clipPath>
            <g clip-path="url(#_clip7)">
                <path d="M646.941,253.726c-0.022,-3.723 1.442,-7.301 4.067,-9.942c2.624,-2.64 6.194,-4.125 9.917,-4.125c19.923,-0.001 54.89,-0.001 64.314,-0.001c1.323,0 2.396,1.073 2.396,2.397c0,8.816 0,39.39 0,48.207c0,1.323 -1.073,2.396 -2.396,2.396c-9.434,0 -44.469,0 -64.456,0c-3.74,0 -7.324,-1.498 -9.952,-4.16c-2.627,-2.661 -4.079,-6.265 -4.031,-10.004c0.111,-8.307 0.172,-16.571 0.141,-24.768Z" style="fill:#cfcbc8;" />
                <clipPath id="_clip8">
                    <path d="M646.941,253.726c-0.022,-3.723 1.442,-7.301 4.067,-9.942c2.624,-2.64 6.194,-4.125 9.917,-4.125c19.923,-0.001 54.89,-0.001 64.314,-0.001c1.323,0 2.396,1.073 2.396,2.397c0,8.816 0,39.39 0,48.207c0,1.323 -1.073,2.396 -2.396,2.396c-9.434,0 -44.469,0 -64.456,0c-3.74,0 -7.324,-1.498 -9.952,-4.16c-2.627,-2.661 -4.079,-6.265 -4.031,-10.004c0.111,-8.307 0.172,-16.571 0.141,-24.768Z" />
                </clipPath>
                <g clip-path="url(#_clip8)">
                    <path class="planeLight" d="M698.368,277.319c0,-0.293 0.237,-0.531 0.531,-0.531c0.796,0 2.291,0 3.087,0c0.293,0 0.531,0.238 0.531,0.531c0,0.777 0,2.215 0,2.991c0,0.294 -0.238,0.531 -0.531,0.531c-0.796,0 -2.291,0 -3.087,0c-0.294,0 -0.531,-0.237 -0.531,-0.531c0,-0.776 0,-2.214 0,-2.991Z" style="fill:#ac001e;" />
                    <path d="M706.34,234.347l0,64.023" style="fill:none;stroke:#989898;stroke-width:1.92px;stroke-linecap:round;" />
                    <path d="M672.272,235.699l0,64.022" style="fill:none;stroke:#989898;stroke-width:1.92px;stroke-linecap:round;" />
                    <path d="M659.302,235.699l0,64.022" style="fill:none;stroke:#989898;stroke-width:1.92px;stroke-linecap:round;" />
                    <path d="M678.953,253.568c-1.186,-0.337 4.244,-3.326 11.701,-3.326c7.456,0 12.886,2.989 11.7,3.326l-23.401,0Z" />
                </g>
            </g>
            <path id="Wing" d="M416.892,157.536c-0.127,-0.135 -0.304,-0.211 -0.49,-0.211c-1.369,0 -7.214,0 -9.692,0c-0.225,0 -0.433,0.122 -0.542,0.319c-0.11,0.197 -0.104,0.438 0.016,0.629c4.399,7.06 31.945,51.266 34.691,55.673c0.144,0.23 0.357,0.407 0.609,0.506c5.986,2.348 79.21,31.073 79.21,31.073l127.098,-9.498c0,0 48.554,-0.878 69.457,-1.256c0.248,-0.004 0.448,-0.202 0.456,-0.449c0.008,-0.248 -0.18,-0.458 -0.427,-0.478c-28.564,-2.31 -112.694,-9.116 -112.694,-9.116l-64.474,-8.282l-41.028,-2.866l-14.204,-1.557c-11.614,-3.076 -21.686,-7.867 -30.166,-14.429c0,0 -34.861,-36.924 -37.82,-40.058Z" style="fill:#bdc2c6;" />
            <clipPath id="_clip9">
                <path d="M416.892,157.536c-0.127,-0.135 -0.304,-0.211 -0.49,-0.211c-1.369,0 -7.214,0 -9.692,0c-0.225,0 -0.433,0.122 -0.542,0.319c-0.11,0.197 -0.104,0.438 0.016,0.629c4.399,7.06 31.945,51.266 34.691,55.673c0.144,0.23 0.357,0.407 0.609,0.506c5.986,2.348 79.21,31.073 79.21,31.073l127.098,-9.498c0,0 48.554,-0.878 69.457,-1.256c0.248,-0.004 0.448,-0.202 0.456,-0.449c0.008,-0.248 -0.18,-0.458 -0.427,-0.478c-28.564,-2.31 -112.694,-9.116 -112.694,-9.116l-64.474,-8.282l-41.028,-2.866l-14.204,-1.557c-11.614,-3.076 -21.686,-7.867 -30.166,-14.429c0,0 -34.861,-36.924 -37.82,-40.058Z" />
            </clipPath>
            <g clip-path="url(#_clip9)">
                <rect x="407.624" y="149.331" width="60.196" height="47.782" style="fill:#7f1322;" />
                <rect x="402.243" y="197.112" width="72.588" height="3.388" style="fill:#bd7873;" />
                <path d="M469.038,200.165l-49.004,0.522l45.295,27.527l35.29,21.229l117.034,-9.659l31.723,-3.433l-137.691,-15.696l-32.434,-10.407l-10.213,-10.083Z" style="fill:#353536;" />
                <path class="planeLight" d="M507.218,219.323c0,-0.141 0.056,-0.276 0.155,-0.376c0.1,-0.099 0.235,-0.155 0.376,-0.155c0.864,0 2.565,0 3.429,0c0.141,0 0.276,0.056 0.376,0.155c0.099,0.1 0.155,0.235 0.155,0.376c0,0.776 0,2.214 0,2.991c0,0.141 -0.056,0.276 -0.155,0.375c-0.1,0.1 -0.235,0.156 -0.376,0.156c-0.864,0 -2.565,0 -3.429,0c-0.141,0 -0.276,-0.056 -0.376,-0.156c-0.099,-0.099 -0.155,-0.234 -0.155,-0.375c0,-0.777 0,-2.215 0,-2.991Z" style="fill:#ac001e;" />
            </g>
            <path d="M569.265,236.723l-68.646,-1.252l0.133,16.165l68.513,-14.913Z" style="fill:#202128;" />
            <path d="M542.749,228.641l-68.647,-1.252l0.134,16.165l68.513,-14.913Z" style="fill:#202128;" />
        </g>
</svg>