<?xml version="1.0" encoding="UTF-8" standalone="no"?><!DOCTYPE svg PUBLIC "-//W3C//DTD SVG 1.1//EN" "http://www.w3.org/Graphics/SVG/1.1/DTD/svg11.dtd"><svg width="100%" height="100%" viewBox="0 0 123 97" version="1.1" xmlns="http://www.w3.org/2000/svg" xmlns:xlink="http://www.w3.org/1999/xlink" xml:space="preserve" style="fill-rule:evenodd;clip-rule:evenodd;stroke-linejoin:round;stroke-miterlimit:1.41421;"><g id="Cloud3.2e.1"><path id="Shadow" d="M50.95,29.998l0,-13.15c0,-3.877 1.829,-7.572 5.032,-10.164c3.203,-2.592 7.478,-3.839 11.762,-3.428c5.725,0.548 12.149,1.163 17.973,1.72c10.296,0.986 18.108,8.804 18.108,18.123l0,6.899l2.812,0c9.009,0 16.313,6.573 16.313,14.681c0,4.096 0,8.788 0,13.725c0,11.884 -6.103,23.102 -16.534,30.39c-10.43,7.289 -24.018,9.83 -36.811,6.884c-11.086,-2.552 -22.816,-5.253 -34.051,-7.839c-12.676,-2.919 -22.845,-11.419 -27.013,-22.582c-4.167,-11.162 -1.766,-23.464 6.379,-32.68c0,0 0.001,-0.001 0.001,-0.001c1.44,-1.629 3.626,-2.578 5.939,-2.578l30.09,0Z" style="fill:#c1dae3;"/><path id="MiddleRight3" d="M44.419,26.819l0,-13.15c0,-3.877 1.829,-7.572 5.032,-10.164c3.203,-2.592 7.478,-3.838 11.762,-3.428c5.725,0.548 12.149,1.163 17.973,1.721c10.296,0.985 18.108,8.803 18.108,18.122l0,6.899l2.812,0c9.009,0 16.313,6.573 16.313,14.681c0,4.096 0,8.788 0,13.725c0,11.885 -6.103,23.102 -16.534,30.391c-10.43,7.288 -24.018,9.829 -36.811,6.884c-11.086,-2.553 -22.816,-5.253 -34.051,-7.84c-12.676,-2.918 -22.845,-11.419 -27.013,-22.581c-4.167,-11.162 -1.766,-23.465 6.379,-32.681c0,0 0.001,0 0.001,-0.001c1.44,-1.629 3.626,-2.578 5.939,-2.578l30.09,0Z" style="fill:#fff;"/><clipPath id="_clip1"><path d="M44.419,26.819l0,-13.15c0,-3.877 1.829,-7.572 5.032,-10.164c3.203,-2.592 7.478,-3.838 11.762,-3.428c5.725,0.548 12.149,1.163 17.973,1.721c10.296,0.985 18.108,8.803 18.108,18.122l0,6.899l2.812,0c9.009,0 16.313,6.573 16.313,14.681c0,4.096 0,8.788 0,13.725c0,11.885 -6.103,23.102 -16.534,30.391c-10.43,7.288 -24.018,9.829 -36.811,6.884c-11.086,-2.553 -22.816,-5.253 -34.051,-7.84c-12.676,-2.918 -22.845,-11.419 -27.013,-22.581c-4.167,-11.162 -1.766,-23.465 6.379,-32.681c0,0 0.001,0 0.001,-0.001c1.44,-1.629 3.626,-2.578 5.939,-2.578l30.09,0Z"/></clipPath><g clip-path="url(#_clip1)"><path id="MiddleRightCloud3" d="M61.294,33.906l0,-13.15c0,-3.877 1.829,-7.571 5.032,-10.163c3.203,-2.593 7.478,-3.839 11.762,-3.429c5.725,0.548 12.149,1.163 17.973,1.721c10.296,0.986 18.108,8.804 18.108,18.123l0,6.898l2.812,0c9.009,0 16.313,6.573 16.313,14.682c0,4.096 0,8.788 0,13.724c0,11.885 -6.103,23.103 -16.534,30.391c-10.43,7.289 -24.018,9.83 -36.811,6.884c-11.086,-2.552 -22.816,-5.253 -34.051,-7.84c-12.676,-2.918 -22.845,-11.419 -27.013,-22.581c-4.167,-11.162 -1.766,-23.465 6.379,-32.68c0,-0.001 0.001,-0.001 0.001,-0.001c1.44,-1.629 3.626,-2.579 5.939,-2.579l30.09,0Z" style="fill:#d1ffff;"/></g></g></svg>