<?xml version="1.0" encoding="UTF-8" standalone="no"?><!DOCTYPE svg PUBLIC "-//W3C//DTD SVG 1.1//EN" "http://www.w3.org/Graphics/SVG/1.1/DTD/svg11.dtd"><svg width="100%" height="100%" viewBox="0 0 440 273" version="1.1" xmlns="http://www.w3.org/2000/svg" xmlns:xlink="http://www.w3.org/1999/xlink" xml:space="preserve" style="fill-rule:evenodd;clip-rule:evenodd;stroke-linejoin:round;stroke-miterlimit:1.41421;"><path id="Cloud4" d="M163.778,76.568l23.1,0l0,-8.897c0,-7.271 5.894,-13.165 13.165,-13.165l23.173,0l0,-9.738c0,-6.09 4.936,-11.026 11.025,-11.026l43.502,0c0.241,-5.412 2.496,-10.553 6.343,-14.4c4.075,-4.075 9.602,-6.364 15.365,-6.364l23.945,0c1.333,-7.38 7.79,-12.978 15.554,-12.978c10.412,0 24.486,0 37.547,0c9.599,0 18.804,3.813 25.592,10.6c6.219,6.22 9.942,14.47 10.521,23.193c5.868,0.551 10.461,5.491 10.461,11.504l0,39.341c9.577,1.615 16.871,9.947 16.871,19.983c0,17.253 0,41.877 0,58.897c0,5.163 -2.051,10.115 -5.701,13.765c-3.034,3.034 -6.965,4.963 -11.17,5.528l0,40.633c0,8.475 -6.87,15.345 -15.344,15.345l-10.621,0c-0.141,4.075 -1.822,7.954 -4.715,10.847c-3.026,3.026 -7.13,4.726 -11.409,4.726l-19.353,0c-0.875,4.338 -3.011,8.359 -6.186,11.535c-4.248,4.247 -10.008,6.634 -16.015,6.634c-8.019,0 -17.005,0 -24.902,0c-10.685,0 -19.527,-7.894 -21.012,-18.169l-14.879,0c-5.749,0 -11.263,-2.284 -15.328,-6.349c-2.591,-2.591 -4.459,-5.771 -5.472,-9.224l-19.472,0c-8.366,0 -15.147,-6.782 -15.147,-15.148l0,-5.617l-42.489,0c-9.039,0 -17.707,-3.59 -24.098,-9.981c-5.552,-5.552 -8.99,-12.821 -9.797,-20.559c-3.916,-0.993 -7.53,-3.025 -10.434,-5.93c-4.24,-4.239 -6.622,-9.989 -6.622,-15.985l0,-14.25l-15.573,0l0,3.177c0,3.081 -1.224,6.036 -3.402,8.215c-2.179,2.179 -5.134,3.403 -8.215,3.403c-10.372,0 -25.763,0 -37.963,0c-5.092,0 -9.976,-2.023 -13.577,-5.624c-2.543,-2.543 -4.299,-5.726 -5.111,-9.171l-6.483,0c-4.199,0 -8.226,-1.668 -11.195,-4.637c-2.97,-2.969 -4.638,-6.996 -4.638,-11.195l0,-14.795l-2.424,0c-11.706,0 -21.195,-9.489 -21.195,-21.195c0,-6.472 0,-13.606 0,-20.146c0,-5.901 2.344,-11.56 6.517,-15.733c4.172,-4.172 9.831,-6.516 15.732,-6.516l1.37,0l0,-2.565c0,-9.621 7.8,-17.421 17.422,-17.421l14.849,0c0.423,-4.495 2.399,-8.725 5.619,-11.945c3.652,-3.653 8.606,-5.705 13.772,-5.705c12.858,0 29.69,0 42.805,0c11.063,0 20.106,8.648 20.739,19.552c5.313,1.783 10.197,4.78 14.234,8.817c6.863,6.863 10.719,16.172 10.719,25.878l0,2.855Z" style="fill:#fff;"/><clipPath id="_clip1"><path id="Cloud41" d="M163.778,76.568l23.1,0l0,-8.897c0,-7.271 5.894,-13.165 13.165,-13.165l23.173,0l0,-9.738c0,-6.09 4.936,-11.026 11.025,-11.026l43.502,0c0.241,-5.412 2.496,-10.553 6.343,-14.4c4.075,-4.075 9.602,-6.364 15.365,-6.364l23.945,0c1.333,-7.38 7.79,-12.978 15.554,-12.978c10.412,0 24.486,0 37.547,0c9.599,0 18.804,3.813 25.592,10.6c6.219,6.22 9.942,14.47 10.521,23.193c5.868,0.551 10.461,5.491 10.461,11.504l0,39.341c9.577,1.615 16.871,9.947 16.871,19.983c0,17.253 0,41.877 0,58.897c0,5.163 -2.051,10.115 -5.701,13.765c-3.034,3.034 -6.965,4.963 -11.17,5.528l0,40.633c0,8.475 -6.87,15.345 -15.344,15.345l-10.621,0c-0.141,4.075 -1.822,7.954 -4.715,10.847c-3.026,3.026 -7.13,4.726 -11.409,4.726l-19.353,0c-0.875,4.338 -3.011,8.359 -6.186,11.535c-4.248,4.247 -10.008,6.634 -16.015,6.634c-8.019,0 -17.005,0 -24.902,0c-10.685,0 -19.527,-7.894 -21.012,-18.169l-14.879,0c-5.749,0 -11.263,-2.284 -15.328,-6.349c-2.591,-2.591 -4.459,-5.771 -5.472,-9.224l-19.472,0c-8.366,0 -15.147,-6.782 -15.147,-15.148l0,-5.617l-42.489,0c-9.039,0 -17.707,-3.59 -24.098,-9.981c-5.552,-5.552 -8.99,-12.821 -9.797,-20.559c-3.916,-0.993 -7.53,-3.025 -10.434,-5.93c-4.24,-4.239 -6.622,-9.989 -6.622,-15.985l0,-14.25l-15.573,0l0,3.177c0,3.081 -1.224,6.036 -3.402,8.215c-2.179,2.179 -5.134,3.403 -8.215,3.403c-10.372,0 -25.763,0 -37.963,0c-5.092,0 -9.976,-2.023 -13.577,-5.624c-2.543,-2.543 -4.299,-5.726 -5.111,-9.171l-6.483,0c-4.199,0 -8.226,-1.668 -11.195,-4.637c-2.97,-2.969 -4.638,-6.996 -4.638,-11.195l0,-14.795l-2.424,0c-11.706,0 -21.195,-9.489 -21.195,-21.195c0,-6.472 0,-13.606 0,-20.146c0,-5.901 2.344,-11.56 6.517,-15.733c4.172,-4.172 9.831,-6.516 15.732,-6.516l1.37,0l0,-2.565c0,-9.621 7.8,-17.421 17.422,-17.421l14.849,0c0.423,-4.495 2.399,-8.725 5.619,-11.945c3.652,-3.653 8.606,-5.705 13.772,-5.705c12.858,0 29.69,0 42.805,0c11.063,0 20.106,8.648 20.739,19.552c5.313,1.783 10.197,4.78 14.234,8.817c6.863,6.863 10.719,16.172 10.719,25.878l0,2.855Z"/></clipPath><g clip-path="url(#_clip1)"><path d="M164.816,92.141l23.1,0l0,-8.897c0,-7.271 5.894,-13.165 13.165,-13.165l23.173,0l0,-9.738c0,-6.09 4.936,-11.026 11.026,-11.026l43.501,0c0.241,-5.412 2.496,-10.553 6.343,-14.4c4.075,-4.075 9.602,-6.364 15.366,-6.364l23.944,0c1.334,-7.38 7.79,-12.978 15.554,-12.978c10.412,0 24.486,0 37.547,0c9.599,0 18.805,3.813 25.592,10.601c6.22,6.219 9.942,14.47 10.521,23.192c5.869,0.551 10.462,5.491 10.462,11.504l0,39.341c9.576,1.615 16.87,9.947 16.87,19.983c0,17.253 0,41.877 0,58.898c0,5.162 -2.05,10.114 -5.701,13.764c-3.034,3.034 -6.965,4.963 -11.169,5.528l0,40.633c0,8.475 -6.871,15.345 -15.345,15.345l-10.621,0c-0.141,4.075 -1.822,7.954 -4.715,10.848c-3.026,3.025 -7.13,4.725 -11.409,4.725l-19.353,0c-0.875,4.338 -3.01,8.36 -6.186,11.535c-4.247,4.248 -10.008,6.634 -16.015,6.634c-8.019,0 -17.005,0 -24.902,0c-10.685,0 -19.527,-7.894 -21.012,-18.169l-14.878,0c-5.75,0 -11.264,-2.284 -15.329,-6.349c-2.591,-2.591 -4.458,-5.77 -5.472,-9.224l-19.472,0c-8.365,0 -15.147,-6.782 -15.147,-15.148l0,-5.616l-42.489,0c-9.038,0 -17.707,-3.591 -24.098,-9.982c-5.551,-5.552 -8.99,-12.821 -9.797,-20.559c-3.916,-0.992 -7.529,-3.025 -10.434,-5.929c-4.24,-4.24 -6.621,-9.99 -6.621,-15.986l0,-14.249l-15.573,0l0,3.176c0,3.082 -1.224,6.037 -3.403,8.215c-2.179,2.179 -5.134,3.403 -8.215,3.403c-10.372,0 -25.763,0 -37.962,0c-5.093,0 -9.977,-2.023 -13.578,-5.624c-2.543,-2.543 -4.299,-5.726 -5.111,-9.17l-6.483,0c-4.199,0 -8.226,-1.669 -11.195,-4.638c-2.969,-2.969 -4.637,-6.996 -4.637,-11.195l0,-14.795l-2.425,0c-11.705,0 -21.195,-9.489 -21.195,-21.195c0,-6.472 0,-13.606 0,-20.146c0,-5.901 2.344,-11.56 6.517,-15.733c4.172,-4.172 9.831,-6.516 15.732,-6.516l1.371,0l0,-2.565c0,-9.621 7.799,-17.421 17.421,-17.421l14.849,0c0.423,-4.495 2.399,-8.725 5.619,-11.945c3.652,-3.652 8.606,-5.704 13.772,-5.704c12.859,0 29.691,0 42.805,0c11.063,0 20.107,8.647 20.739,19.551c5.313,1.783 10.197,4.78 14.234,8.817c6.863,6.864 10.719,16.172 10.719,25.878l0,2.855Z" style="fill:#d1ffff;"/></g></svg>