<?xml version="1.0" encoding="UTF-8" standalone="no"?><!DOCTYPE svg PUBLIC "-//W3C//DTD SVG 1.1//EN" "http://www.w3.org/Graphics/SVG/1.1/DTD/svg11.dtd"><svg width="100%" height="100%" viewBox="0 0 305 233" version="1.1" xmlns="http://www.w3.org/2000/svg" xmlns:xlink="http://www.w3.org/1999/xlink" xml:space="preserve" style="fill-rule:evenodd;clip-rule:evenodd;stroke-linejoin:round;stroke-miterlimit:1.41421;"><g id="Cloud3"><path id="MiddleRight2" d="M88.877,25.53c0.172,-14.126 12.949,-25.53 28.686,-25.53c14.424,0 32.229,0 48.374,0c11.786,0 23.089,4.214 31.423,11.714c4.429,3.986 7.826,8.727 10.038,13.887c10.679,0.575 20.792,4.648 28.399,11.495c4.321,3.889 7.648,8.505 9.832,13.529l10.871,0c13.048,0 23.625,9.52 23.625,21.262l0,7.088c13.678,0.046 24.75,10.039 24.75,22.36c0,0.001 0,0.001 0,0.002c0,5.079 -2.242,9.95 -6.232,13.541c-2.333,2.1 -5.152,3.662 -8.219,4.597l2.076,0l0,13.162c0,14.539 -13.095,26.325 -29.25,26.326l-14.602,0l0,2.748c0,6.042 -2.667,11.837 -7.414,16.109c-4.435,3.991 -10.346,6.349 -16.578,6.641c-2.431,14.91 -16.703,26.357 -33.946,26.357l-11.835,0l0,4.844c0,9.507 -8.563,17.213 -19.125,17.213c-0.561,0 -1.124,0 -1.688,0c-12.115,0 -21.937,-8.84 -21.937,-19.744l0,-2.313l-20.227,0c-16.641,0 -30.267,-11.613 -31.42,-26.325l-9.643,0c-23.299,0 -42.187,-16.999 -42.187,-37.969l0,-15.947c-18.177,-0.782 -32.648,-14.293 -32.648,-30.846c0,-2.511 0,-5.059 0,-7.593c0,-9.131 4.03,-17.887 11.203,-24.343c6.261,-5.634 14.468,-9.114 23.199,-9.908c2.23,-7.293 6.532,-14.014 12.579,-19.457c9.178,-8.26 21.625,-12.9 34.604,-12.9l7.292,0Z" style="fill:#fff;"/><clipPath id="_clip1"><path id="MiddleRight21" d="M88.877,25.53c0.172,-14.126 12.949,-25.53 28.686,-25.53c14.424,0 32.229,0 48.374,0c11.786,0 23.089,4.214 31.423,11.714c4.429,3.986 7.826,8.727 10.038,13.887c10.679,0.575 20.792,4.648 28.399,11.495c4.321,3.889 7.648,8.505 9.832,13.529l10.871,0c13.048,0 23.625,9.52 23.625,21.262l0,7.088c13.678,0.046 24.75,10.039 24.75,22.36c0,0.001 0,0.001 0,0.002c0,5.079 -2.242,9.95 -6.232,13.541c-2.333,2.1 -5.152,3.662 -8.219,4.597l2.076,0l0,13.162c0,14.539 -13.095,26.325 -29.25,26.326l-14.602,0l0,2.748c0,6.042 -2.667,11.837 -7.414,16.109c-4.435,3.991 -10.346,6.349 -16.578,6.641c-2.431,14.91 -16.703,26.357 -33.946,26.357l-11.835,0l0,4.844c0,9.507 -8.563,17.213 -19.125,17.213c-0.561,0 -1.124,0 -1.688,0c-12.115,0 -21.937,-8.84 -21.937,-19.744l0,-2.313l-20.227,0c-16.641,0 -30.267,-11.613 -31.42,-26.325l-9.643,0c-23.299,0 -42.187,-16.999 -42.187,-37.969l0,-15.947c-18.177,-0.782 -32.648,-14.293 -32.648,-30.846c0,-2.511 0,-5.059 0,-7.593c0,-9.131 4.03,-17.887 11.203,-24.343c6.261,-5.634 14.468,-9.114 23.199,-9.908c2.23,-7.293 6.532,-14.014 12.579,-19.457c9.178,-8.26 21.625,-12.9 34.604,-12.9l7.292,0Z"/></clipPath><g clip-path="url(#_clip1)"><path id="MiddleRight22" d="M108.002,26.543c0.172,-14.127 12.949,-25.531 28.686,-25.53c14.424,0 32.229,0 48.374,0c11.786,-0.001 23.089,4.213 31.423,11.713c4.429,3.987 7.826,8.728 10.038,13.888c10.679,0.575 20.792,4.648 28.399,11.494c4.321,3.889 7.648,8.505 9.832,13.529l10.871,0c13.048,0.001 23.625,9.52 23.625,21.263l0,7.088c13.678,0.045 24.75,10.039 24.75,22.36c0,0 0,0.001 0,0.002c0,5.079 -2.242,9.95 -6.232,13.541c-2.333,2.1 -5.152,3.661 -8.219,4.597l2.076,0l0,13.162c0,14.539 -13.095,26.325 -29.25,26.325l-14.602,0l0,2.749c0,6.042 -2.667,11.836 -7.414,16.109c-4.435,3.991 -10.346,6.348 -16.578,6.641c-2.431,14.91 -16.703,26.356 -33.946,26.356l-11.835,0l0,4.845c0,9.506 -8.563,17.212 -19.125,17.213c-0.561,0 -1.124,0 -1.688,0c-12.115,-0.001 -21.937,-8.84 -21.937,-19.744l0,-2.314l-20.227,0c-16.641,0 -30.267,-11.612 -31.42,-26.325l-9.643,0c-23.299,0 -42.187,-16.999 -42.187,-37.969l0,-15.947c-18.177,-0.781 -32.648,-14.292 -32.648,-30.845c0,-2.512 0,-5.059 0,-7.594c0,-9.13 4.03,-17.886 11.203,-24.342c6.261,-5.635 14.468,-9.114 23.199,-9.908c2.23,-7.294 6.532,-14.014 12.579,-19.457c9.178,-8.26 21.625,-12.9 34.604,-12.9l7.292,0Z" style="fill:#d1ffff;"/></g></g></svg>