<?xml version="1.0" encoding="UTF-8" standalone="no"?><!DOCTYPE svg PUBLIC "-//W3C//DTD SVG 1.1//EN" "http://www.w3.org/Graphics/SVG/1.1/DTD/svg11.dtd"><svg width="100%" height="100%" viewBox="0 0 211 169" version="1.1" xmlns="http://www.w3.org/2000/svg" xmlns:xlink="http://www.w3.org/1999/xlink" xml:space="preserve" style="fill-rule:evenodd;clip-rule:evenodd;stroke-linejoin:round;stroke-miterlimit:1.41421;"><g id="MainCloud2"><path id="Shadow" d="M64.75,104.585l-40,0c-6.564,0 -12.859,-2.347 -17.501,-6.525c-4.641,-4.177 -7.249,-9.843 -7.249,-15.75c0,-12.594 0,-28.48 0,-42.019c0,-7.653 3.378,-14.993 9.391,-20.405c6.013,-5.411 14.168,-8.451 22.671,-8.451c19.82,0 44.849,0 63,0c6.415,0 12.568,2.293 17.104,6.376c4.536,4.082 7.084,9.619 7.084,15.392l0,16.707l16.875,0l0,-2.532c0,-3.625 1.6,-7.102 4.448,-9.665c2.849,-2.563 6.712,-4.003 10.74,-4.003c3.095,0 6.38,0 9.562,0c9.941,0 18,7.253 18,16.2c0,0.507 0,1.013 0,1.518c0,8.109 -7.303,14.682 -16.312,14.682l-7.313,0l0,35.437l16.875,0c5.669,0 11.106,2.027 15.114,5.635c4.009,3.607 6.261,8.501 6.261,13.603l0,13.162l0.562,0c9.01,0 16.313,6.573 16.313,14.681c0,1.846 0,3.731 0,5.569c0,7.829 -7.052,14.175 -15.75,14.175c-2.212,0 -4.5,0 -6.75,0c-9.941,0 -18,-7.253 -18,-16.2l0,0l-21.375,0c-13.669,0 -24.75,-9.973 -24.75,-22.275l0,-11.137l-38.813,0c-5.519,0 -10.813,-1.974 -14.716,-5.487c-2.686,-2.417 -4.562,-5.427 -5.471,-8.688Z" style="fill:#c1dae3;"/><path id="MainCloud21" d="M64.75,93.15l-40,0c-6.564,0 -12.859,-2.347 -17.501,-6.524c-4.641,-4.178 -7.249,-9.843 -7.249,-15.751c0,-12.594 0,-28.48 0,-42.019c0,-7.653 3.378,-14.993 9.391,-20.404c6.013,-5.412 14.168,-8.452 22.671,-8.452c19.82,0 44.849,0 63,0c6.415,0 12.568,2.293 17.104,6.376c4.536,4.082 7.084,9.619 7.084,15.393l0,16.706l16.875,0l0,-2.531c0,-3.625 1.6,-7.102 4.448,-9.666c2.849,-2.563 6.712,-4.003 10.74,-4.003c3.095,0 6.38,0 9.562,0c9.941,0 18,7.253 18,16.2c0,0.507 0,1.014 0,1.519c0,8.108 -7.303,14.681 -16.312,14.681l-7.313,0l0,35.437l16.875,0c5.669,0.001 11.106,2.027 15.114,5.635c4.009,3.608 6.261,8.501 6.261,13.603l0,13.162l0.562,0c9.01,0 16.313,6.574 16.313,14.682c0,1.845 0,3.731 0,5.569c0,7.828 -7.052,14.174 -15.75,14.175c-2.212,0 -4.5,0 -6.75,0c-9.941,0 -18,-7.253 -18,-16.2l0,0l-21.375,0c-13.669,-0.001 -24.75,-9.973 -24.75,-22.275l0,-11.138l-38.813,0c-5.519,0 -10.813,-1.973 -14.716,-5.486c-2.686,-2.418 -4.562,-5.428 -5.471,-8.689Z" style="fill:#fff;"/><clipPath id="_clip1"><path d="M64.75,93.15l-40,0c-6.564,0 -12.859,-2.347 -17.501,-6.524c-4.641,-4.178 -7.249,-9.843 -7.249,-15.751c0,-12.594 0,-28.48 0,-42.019c0,-7.653 3.378,-14.993 9.391,-20.404c6.013,-5.412 14.168,-8.452 22.671,-8.452c19.82,0 44.849,0 63,0c6.415,0 12.568,2.293 17.104,6.376c4.536,4.082 7.084,9.619 7.084,15.393l0,16.706l16.875,0l0,-2.531c0,-3.625 1.6,-7.102 4.448,-9.666c2.849,-2.563 6.712,-4.003 10.74,-4.003c3.095,0 6.38,0 9.562,0c9.941,0 18,7.253 18,16.2c0,0.507 0,1.014 0,1.519c0,8.108 -7.303,14.681 -16.312,14.681l-7.313,0l0,35.437l16.875,0c5.669,0.001 11.106,2.027 15.114,5.635c4.009,3.608 6.261,8.501 6.261,13.603l0,13.162l0.562,0c9.01,0 16.313,6.574 16.313,14.682c0,1.845 0,3.731 0,5.569c0,7.828 -7.052,14.174 -15.75,14.175c-2.212,0 -4.5,0 -6.75,0c-9.941,0 -18,-7.253 -18,-16.2l0,0l-21.375,0c-13.669,-0.001 -24.75,-9.973 -24.75,-22.275l0,-11.138l-38.813,0c-5.519,0 -10.813,-1.973 -14.716,-5.486c-2.686,-2.418 -4.562,-5.428 -5.471,-8.689Z"/></clipPath><g clip-path="url(#_clip1)"><path id="MainCloud22" d="M63.625,103.275l-40,0c-6.564,0 -12.859,-2.347 -17.501,-6.524c-4.641,-4.178 -7.249,-9.843 -7.249,-15.751c0,-12.594 0,-28.48 0,-42.019c0,-7.653 3.378,-14.993 9.391,-20.404c6.013,-5.412 14.168,-8.452 22.671,-8.452c19.82,0 44.849,0 63,0c6.415,0 12.568,2.293 17.104,6.376c4.536,4.082 7.084,9.619 7.084,15.393l0,16.706l16.875,0l0,-2.531c0,-3.625 1.6,-7.102 4.448,-9.666c2.849,-2.563 6.712,-4.003 10.74,-4.003c3.095,0 6.38,0 9.562,0c9.941,0 18,7.253 18,16.2c0,0.507 0,1.014 0,1.519c0,8.108 -7.303,14.681 -16.312,14.681l-7.313,0l0,35.437l16.875,0c5.669,0.001 11.106,2.027 15.114,5.635c4.009,3.608 6.261,8.501 6.261,13.603l0,13.162l0.562,0c9.01,0 16.313,6.574 16.313,14.682c0,1.845 0,3.731 0,5.569c0,7.828 -7.052,14.174 -15.75,14.175c-2.212,0 -4.5,0 -6.75,0c-9.941,0 -18,-7.253 -18,-16.2l0,0l-21.375,0c-13.669,-0.001 -24.75,-9.973 -24.75,-22.275l0,-11.138l-38.813,0c-5.519,0 -10.813,-1.973 -14.716,-5.486c-2.686,-2.418 -4.562,-5.428 -5.471,-8.689Z" style="fill:#d1ffff;"/></g></g></svg>