<?xml version="1.0" encoding="UTF-8" standalone="no"?><!DOCTYPE svg PUBLIC "-//W3C//DTD SVG 1.1//EN" "http://www.w3.org/Graphics/SVG/1.1/DTD/svg11.dtd"><svg width="100%" height="100%" viewBox="0 0 499 808" version="1.1" xmlns="http://www.w3.org/2000/svg" xmlns:xlink="http://www.w3.org/1999/xlink" xml:space="preserve" style="fill-rule:evenodd;clip-rule:evenodd;stroke-linecap:round;stroke-miterlimit:1.5;"><g id="PalmTree"><path id="Branch" d="M242.548,794.096c0,0 -13.9,30.592 -36.642,-0.52c-26.944,-321.553 48.341,-622.537 48.341,-622.537c1.33,-5.089 17.94,-42.37 18.729,1.211c0,0 -66.253,299.773 -30.327,621.326" style="fill:#9a8059;"/><clipPath id="_clip1"><path d="M242.548,794.096c0,0 -13.9,30.592 -36.642,-0.52c-26.944,-321.553 48.341,-622.537 48.341,-622.537c1.33,-5.089 17.94,-42.37 18.729,1.211c0,0 -66.253,299.773 -30.327,621.326"/></clipPath><g clip-path="url(#_clip1)"><path d="M265.477,245.133l-3.039,-9.876l-4.938,7.217l-3.072,-7.217l-7.184,4.178l-1.519,-6.837l-3.848,4.178l-1.647,-6.869l-4.381,4.461" style="fill:none;stroke:#605340;stroke-width:1.17px;"/><path d="M260.103,267.861l-3.89,5.445l-2.028,-6.223l-5.284,5.095l-1.556,-7.779l-4.356,6.224l-2.023,-7.002l-6.067,4.668l0.311,-7.313l-4.357,3.89" style="fill:none;stroke:#605340;stroke-width:1.17px;"/><path d="M252.917,310.189l-2.8,-5.912l-5.29,4.512l-3.734,-6.379l-6.379,5.601l-2.178,-7.779l-2.956,3.89l-2.956,-5.913" style="fill:none;stroke:#605340;stroke-width:1.17px;"/><path d="M221.227,332.671l2.489,6.846l3.267,-4.357l2.645,4.979l5.29,-4.512l0.311,4.979l4.668,-4.512l1.089,4.512l4.823,-3.423l3.578,5.601" style="fill:none;stroke:#605340;stroke-width:1.17px;"/><path d="M245.459,378.422l-3.734,-4.356l-4.512,3.267l-4.356,-4.823l-3.423,2.334l-4.045,-3.267l-4.823,2.489l-3.268,-4.201" style="fill:none;stroke:#605340;stroke-width:1.17px;"/><path d="M213.029,404.862l1.401,6.69l4.045,-3.268l1.711,4.512l5.601,-3.889l4.045,5.601l4.046,-4.201l3.734,3.267l3.578,-4.512" style="fill:none;stroke:#605340;stroke-width:1.17px;"/><path d="M237.66,456.71l-3.734,4.512l-3.423,-3.423l-7.312,2.956l-2.334,-6.223l-5.756,4.511l-4.046,-3.267l-0.622,2.645l-3.111,-5.29" style="fill:none;stroke:#605340;stroke-width:1.17px;"/><path d="M234.617,513.76l-3.112,2.801l-3.734,-2.957l-4.668,4.046l-7.001,-5.757l-7.312,4.668l-1.712,-6.224l-3.422,1.4" style="fill:none;stroke:#605340;stroke-width:1.17px;"/><path d="M233.084,580.033l-4.045,4.357l-4.356,-3.268l-3.423,5.135l-5.757,-5.913l-6.845,2.49l-2.023,-3.579l-3.889,2.645l-0.778,-3.889l-3.423,1.711" style="fill:none;stroke:#605340;stroke-width:1.17px;"/><path d="M234.305,642.544l-4.2,4.201l-6.068,-4.201l-3.423,4.668l-7.623,-5.445l-4.046,4.045l-4.823,-6.69l-6.223,2.645" style="fill:none;stroke:#605340;stroke-width:1.17px;"/><path d="M236.484,704.406l-5.29,-5.757l-3.112,6.846l-4.045,-7.001l-2.645,7.779l-3.578,-6.379l-4.046,3.578l-2.956,-2.956l-3.578,4.668l-3.112,-5.912l-3.423,1.867l-1.711,-2.645" style="fill:none;stroke:#605340;stroke-width:1.17px;"/><path d="M240.612,755.115l-2.489,3.734l-6.223,-5.913l-8.713,4.357l-4.979,-5.912l-5.445,4.356l-4.823,-4.201l-3.423,0.934l-2.334,-2.49" style="fill:none;stroke:#605340;stroke-width:1.17px;"/><path d="M273.922,148.674c-13.994,-14.611 -103.25,472.716 -46.228,667.875c53.879,184.401 25.966,-455.327 25.966,-455.327c1.975,-8.562 33.637,-6.068 20.262,-212.548Z" style="fill-opacity:0.152174;"/></g><path id="Leaves" d="M268.133,122.077c-6.238,-36.859 -34.545,-88.176 -134.528,-122.077c0,0 -1.708,24.953 31.36,40.601c0,0 -8.508,17.245 -23.402,9.028c0,0 26.793,24.521 51.174,14.023c0,0 6.322,17.741 -2,23.252c-37.191,-19.059 -85.253,-29.075 -139.636,-11.032c0,0 28.292,21.94 55.437,17.004c0,0 -20.042,11.969 -17.516,29.026c0,0 47.065,3.79 50.54,-7.581c0,0 22.814,5.013 16.033,23.821c-64.288,-5.029 -137.188,16.734 -155.595,132.503c0,0 33.664,-16.771 50.445,-50.826c0,0 24.184,-16.78 22.21,36.523l0.114,0c0,0 16.666,-10.365 25.057,-59.226c0,0 24.184,-0.987 24.677,29.613c0.494,30.6 17.274,-2.961 20.729,-44.419c0,0 29.613,-0.075 28.132,35.004l0.054,2.505c0,0 17.221,-14.806 16.234,-43.432l0.04,0c0,0 25.13,-4.426 25.624,34.063c0,0 16.287,-3.957 19.248,-28.14c0,0 18.262,-1.465 18.755,28.14c0,0 3.639,-2.495 7.431,-6.861c5.813,14.011 18.837,19.522 18.837,19.522c2.961,-21.222 21.565,-18.261 21.565,-18.261l0.151,0c-12.833,33.068 4.442,70.577 4.442,70.577c4.442,-34.548 44.334,-38.496 44.334,-38.496l0.579,0c-14.807,28.132 4.442,65.642 4.442,65.642c5.922,-28.133 36.37,-22.21 36.37,-22.21l0.646,0c-4.929,53.228 19.96,74.958 20.03,75.019l1.686,0c-8.884,-47.874 20.235,-52.809 20.235,-52.809c9.378,43.925 49.849,71.071 50.07,70.859c-12.188,-116.348 -62.937,-167.906 -112.776,-189.993c2.88,-7.629 7.643,-13.932 7.643,-13.932c14.807,24.524 56.265,17.428 56.265,17.428c-10.858,-4.442 -7.404,-35.042 -7.404,-35.042c48.862,19.742 72.295,-6.865 72.295,-6.865c-51.014,-27.555 -93.732,-35.011 -128.377,-32.21c-29.429,-6.486 -24.978,-29.358 -24.978,-29.358l0.35,-1.332c20.49,10.843 42.732,-6.136 42.732,-6.136c-17.968,-3.154 -13.776,-22.98 -13.776,-22.98c27.759,6.757 36.699,-19.361 36.699,-19.361c-64.435,-30.761 -119.268,37.523 -142.677,88.426Zm-97.241,17.761c2.826,-1.592 5.774,-4.132 8.627,-8.065c0,0 8.369,3.476 10.146,11.415c-6.067,-1.294 -12.348,-2.435 -18.773,-3.35Zm144.783,-12.837c1.535,-4.666 3.271,-8.036 3.271,-8.036c3.044,1.303 6.085,2.254 9.087,2.916c-4.316,1.575 -8.435,3.295 -12.358,5.12Zm-120.979,-38.012l28.706,8.984c0,0 -0.826,3.408 -3.333,7.203c-7.706,-5.724 -16.188,-11.222 -25.373,-16.187Z" style="fill:#006b14;"/><clipPath id="_clip2"><path d="M268.133,122.077c-6.238,-36.859 -34.545,-88.176 -134.528,-122.077c0,0 -1.708,24.953 31.36,40.601c0,0 -8.508,17.245 -23.402,9.028c0,0 26.793,24.521 51.174,14.023c0,0 6.322,17.741 -2,23.252c-37.191,-19.059 -85.253,-29.075 -139.636,-11.032c0,0 28.292,21.94 55.437,17.004c0,0 -20.042,11.969 -17.516,29.026c0,0 47.065,3.79 50.54,-7.581c0,0 22.814,5.013 16.033,23.821c-64.288,-5.029 -137.188,16.734 -155.595,132.503c0,0 33.664,-16.771 50.445,-50.826c0,0 24.184,-16.78 22.21,36.523l0.114,0c0,0 16.666,-10.365 25.057,-59.226c0,0 24.184,-0.987 24.677,29.613c0.494,30.6 17.274,-2.961 20.729,-44.419c0,0 29.613,-0.075 28.132,35.004l0.054,2.505c0,0 17.221,-14.806 16.234,-43.432l0.04,0c0,0 25.13,-4.426 25.624,34.063c0,0 16.287,-3.957 19.248,-28.14c0,0 18.262,-1.465 18.755,28.14c0,0 3.639,-2.495 7.431,-6.861c5.813,14.011 18.837,19.522 18.837,19.522c2.961,-21.222 21.565,-18.261 21.565,-18.261l0.151,0c-12.833,33.068 4.442,70.577 4.442,70.577c4.442,-34.548 44.334,-38.496 44.334,-38.496l0.579,0c-14.807,28.132 4.442,65.642 4.442,65.642c5.922,-28.133 36.37,-22.21 36.37,-22.21l0.646,0c-4.929,53.228 19.96,74.958 20.03,75.019l1.686,0c-8.884,-47.874 20.235,-52.809 20.235,-52.809c9.378,43.925 49.849,71.071 50.07,70.859c-12.188,-116.348 -62.937,-167.906 -112.776,-189.993c2.88,-7.629 7.643,-13.932 7.643,-13.932c14.807,24.524 56.265,17.428 56.265,17.428c-10.858,-4.442 -7.404,-35.042 -7.404,-35.042c48.862,19.742 72.295,-6.865 72.295,-6.865c-51.014,-27.555 -93.732,-35.011 -128.377,-32.21c-29.429,-6.486 -24.978,-29.358 -24.978,-29.358l0.35,-1.332c20.49,10.843 42.732,-6.136 42.732,-6.136c-17.968,-3.154 -13.776,-22.98 -13.776,-22.98c27.759,6.757 36.699,-19.361 36.699,-19.361c-64.435,-30.761 -119.268,37.523 -142.677,88.426Zm-97.241,17.761c2.826,-1.592 5.774,-4.132 8.627,-8.065c0,0 8.369,3.476 10.146,11.415c-6.067,-1.294 -12.348,-2.435 -18.773,-3.35Zm144.783,-12.837c1.535,-4.666 3.271,-8.036 3.271,-8.036c3.044,1.303 6.085,2.254 9.087,2.916c-4.316,1.575 -8.435,3.295 -12.358,5.12Zm-120.979,-38.012l28.706,8.984c0,0 -0.826,3.408 -3.333,7.203c-7.706,-5.724 -16.188,-11.222 -25.373,-16.187Z"/></clipPath><g clip-path="url(#_clip2)"><path d="M268.011,121.786c7.945,-3.644 -20.269,-97.381 -134.832,-122.486l-0.009,-0.103c0,0 110.819,55.883 122.293,121.228l0.028,-0.172c-4.48,7.593 -35.472,-15.309 -35.472,-15.309l0.262,-0.189c0,0 -50.875,-39.207 -112.175,-39.051l-0.155,0c0,0 84.145,33.916 111.797,83.144l-0.017,-0.105c-25.081,-2.604 -83.931,2.783 -129.389,18.361c-27.74,9.507 -71.499,61.918 -91.286,104.966l0.062,-0.203c0,0 299.444,-5.774 306.433,-83.261l-0.374,-0.138c0,0 146.377,17.786 124.498,128.395l-0.043,-0.161l48.774,70.9l28.108,-25.449l-7.778,-217.272l0.073,0.103l-88.235,-111.292c0,0 -37.411,-28.936 -142.247,88.435" style="fill-opacity:0.275362;"/></g><circle id="Coconut1" cx="224.409" cy="192.079" r="24.896" style="fill:#543e1d;"/><clipPath id="_clip3"><circle cx="224.409" cy="192.079" r="24.896"/></clipPath><g clip-path="url(#_clip3)"><path d="M200.888,203.761c0,0 32.734,-8.77 22.638,-43.135c-10.095,-34.366 31,14.174 31,14.174l-4.996,45.685l-22.843,2.447l-16.417,-4.793l-9.382,-14.378Z" style="fill-opacity:0.0627451;"/><circle cx="219.861" cy="172.824" r="1.402" style="fill:#675437;"/><circle cx="214.571" cy="180.281" r="0.829" style="fill:#675437;"/></g><circle id="CoconutMain" cx="261.455" cy="208.212" r="24.896" style="fill:#44341a;"/><clipPath id="_clip4"><circle cx="261.455" cy="208.212" r="24.896"/></clipPath><g clip-path="url(#_clip4)"><circle cx="252.811" cy="194.812" r="2.358" style="fill:#534025;"/><circle cx="248.605" cy="203.735" r="1.338" style="fill:#675437;"/></g></g></svg>